<?xml version="1.0" encoding="UTF-8" standalone="no"?>
<!-- Created with Inkscape (http://www.inkscape.org/) -->

<svg
   width="256"
   height="256"
   viewBox="0 0 67.73333 67.733335"
   version="1.1"
   id="svg5"
   xml:space="preserve"
   sodipodi:docname="/tmp/ink_ext_XXXXXX.svgJHI611"
   inkscape:export-filename="cover.svg"
   inkscape:export-xdpi="96"
   inkscape:export-ydpi="96"
   xmlns:inkscape="http://www.inkscape.org/namespaces/inkscape"
   xmlns:sodipodi="http://sodipodi.sourceforge.net/DTD/sodipodi-0.dtd"
   xmlns:xlink="http://www.w3.org/1999/xlink"
   xmlns="http://www.w3.org/2000/svg"
   xmlns:svg="http://www.w3.org/2000/svg"><sodipodi:namedview
     id="namedview7"
     pagecolor="#ffffff"
     bordercolor="#111111"
     borderopacity="1"
     inkscape:showpageshadow="0"
     inkscape:pageopacity="0"
     inkscape:pagecheckerboard="1"
     inkscape:deskcolor="#d1d1d1"
     inkscape:document-units="mm"
     showgrid="false"
     showguides="true"
     inkscape:zoom="1.8833977"
     inkscape:cx="130.34953"
     inkscape:cy="89.731447"
     inkscape:window-width="1908"
     inkscape:window-height="1049"
     inkscape:window-x="4"
     inkscape:window-y="4"
     inkscape:window-maximized="1"
     inkscape:current-layer="layer2"><sodipodi:guide
       position="33.866666,66.34385"
       orientation="-1,0"
       id="guide781"
       inkscape:locked="false"
       inkscape:label=""
       inkscape:color="rgb(0,134,229)" /><sodipodi:guide
       position="0,67.733332"
       orientation="0,256"
       id="guide4567"
       inkscape:locked="false" /><sodipodi:guide
       position="67.733332,67.733332"
       orientation="256,0"
       id="guide4569"
       inkscape:locked="false" /><sodipodi:guide
       position="67.733332,0"
       orientation="0,-256"
       id="guide4571"
       inkscape:locked="false" /><sodipodi:guide
       position="0,0"
       orientation="-256,0"
       id="guide4573"
       inkscape:locked="false" /></sodipodi:namedview><defs
     id="defs2"><linearGradient
       inkscape:collect="always"
       id="linearGradient6522"><stop
         style="stop-color:#ffffff;stop-opacity:1;"
         offset="0"
         id="stop6518" /><stop
         style="stop-color:#ffffff;stop-opacity:0;"
         offset="1"
         id="stop6520" /></linearGradient><radialGradient
       inkscape:collect="always"
       xlink:href="#linearGradient6522"
       id="radialGradient6524"
       cx="27.53743"
       cy="26.606728"
       fx="27.53743"
       fy="26.606728"
       r="33.866665"
       gradientUnits="userSpaceOnUse"
       gradientTransform="matrix(1.7220479,-0.99422481,0.86566262,1.4993849,-42.915788,14.091397)" /></defs><g
     inkscape:label="Layer 1"
     inkscape:groupmode="layer"
     id="layer1"><g
       inkscape:groupmode="layer"
       id="layer2"
       inkscape:label="Layer 2"
       transform="translate(8.4230625,15.314745)"><path
         style="font-variation-settings:normal;opacity:0.3;fill:none;fill-opacity:1;stroke:#ff0000;stroke-width:2.64583;stroke-linecap:round;stroke-linejoin:round;stroke-miterlimit:4;stroke-dasharray:none;stroke-dashoffset:0;stroke-opacity:1;stop-color:#000000;stop-opacity:1"
         d="m 212.73257,18.499493 c -1.18738,0.185176 -2.38936,0.08086 -3.58498,0.09719 -1.05746,0.01444 -2.11893,0.02862 -3.17479,0.09233 -1.07996,0.06517 -2.15173,0.20162 -3.22807,0.301287 -1.34864,0.124882 -2.69564,0.247707 -4.04307,0.3839 -1.60578,0.162303 -3.21485,0.292481 -4.81548,0.495667 -0.90206,0.114512 -1.79741,0.279505 -2.69539,0.417919 -2.19891,0.338943 -4.40334,0.687261 -6.57333,1.161417 -0.95443,0.208548 -1.89101,0.477526 -2.83388,0.724065 -1.87522,0.490327 -3.74982,0.973315 -5.61449,1.496725 -0.93479,0.26239 -1.88156,0.50623 -2.80726,0.796955 -0.52353,0.164422 -1.04255,0.34093 -1.5661,0.50539 -1.29721,0.407495 -2.57951,0.816085 -3.84598,1.297482 -1.43986,0.547312 -2.89048,1.090535 -4.17092,1.9195 -2.93697,1.901434 -6.03997,3.776446 -8.10747,6.53116 -1.07647,1.434277 -2.1055,2.705212 -2.52492,4.426995 -0.14857,0.609935 -0.20242,1.041547 -0.20242,1.661947 0,0.147764 0.007,0.47102 0.007,0.615346"
         id="path783"
         sodipodi:nodetypes="cssssssssssssssssc"
         transform="translate(-119.06694,0.62537086)" /><path
         style="font-variation-settings:normal;opacity:0.3;fill:none;fill-opacity:1;stroke:#0000ff;stroke-width:2.64583;stroke-linecap:round;stroke-linejoin:round;stroke-miterlimit:4;stroke-dasharray:none;stroke-dashoffset:0;stroke-opacity:1;stop-color:#000000"
         d="m 93.131942,18.353697 c 1.18738,0.185176 2.38937,0.08087 3.58497,0.09719 1.05747,0.01444 2.11894,0.02862 3.1748,0.09233 1.079958,0.06517 2.151728,0.20162 3.228068,0.301287 1.34864,0.124882 2.69563,0.247707 4.04307,0.3839 1.60577,0.162304 3.21485,0.292481 4.81547,0.495667 0.90206,0.114512 1.79742,0.279506 2.69539,0.417919 2.19891,0.338943 4.40334,0.687261 6.57334,1.161417 0.95442,0.208549 1.89101,0.477527 2.83387,0.724066 1.87522,0.490326 3.74982,0.973315 5.6145,1.496724 0.93479,0.26239 1.88155,0.50623 2.80726,0.796955 0.52353,0.164422 1.04255,0.34093 1.56609,0.50539 1.29722,0.407495 2.57952,0.816085 3.84598,1.297482 1.43987,0.547312 2.89048,1.090535 4.17092,1.9195 2.93697,1.901435 6.03996,3.776446 8.10746,6.53116 1.07647,1.434278 2.10551,2.705212 2.52493,4.426995 0.14857,0.609936 0.20242,1.041547 0.20242,1.661947 0,0.147764 -0.007,0.47102 -0.007,0.615347"
         id="path785"
         sodipodi:nodetypes="cssssssssssssssssc"
         transform="translate(-119.06694,0.62537086)" /><path
         style="font-variation-settings:normal;opacity:0.3;fill:none;fill-opacity:1;stroke:#ff0000;stroke-width:2.64583;stroke-linecap:round;stroke-linejoin:round;stroke-miterlimit:4;stroke-dasharray:none;stroke-dashoffset:0;stroke-opacity:1;stop-color:#000000;stop-opacity:1"
         d="m 212.73257,64.409483 c -1.18738,-0.185175 -2.38936,-0.08087 -3.58497,-0.09719 -1.05746,-0.01442 -2.11894,-0.02862 -3.17479,-0.09233 -1.07996,-0.0652 -2.15174,-0.201618 -3.22808,-0.301292 -1.34863,-0.124874 -2.69564,-0.2477 -4.04306,-0.383893 -1.60579,-0.162304 -3.21486,-0.292485 -4.81548,-0.495666 -0.90206,-0.114513 -1.79742,-0.279505 -2.69539,-0.417922 -2.19891,-0.338942 -4.40334,-0.687265 -6.57334,-1.161419 -0.95443,-0.208547 -1.891,-0.477524 -2.83388,-0.724064 -1.87521,-0.490323 -3.74982,-0.973313 -5.61449,-1.496723 -0.93479,-0.262389 -1.88155,-0.506233 -2.80725,-0.796958 -0.52354,-0.164423 -1.04256,-0.34093 -1.5661,-0.50539 -1.29721,-0.407493 -2.57951,-0.816086 -3.84599,-1.297482 -1.43986,-0.547306 -2.89048,-1.090529 -4.17092,-1.919496 -2.93697,-1.901439 -6.03996,-3.776445 -8.10746,-6.531162 -1.07647,-1.434277 -2.10551,-2.705211 -2.52492,-4.426994 -0.14858,-0.609937 -0.20242,-1.041548 -0.20242,-1.661947 0,-0.147765 0.007,-0.471021 0.007,-0.615347"
         id="path787"
         sodipodi:nodetypes="cssssssssssssssssc"
         transform="translate(-119.06694,0.62537086)" /><path
         style="font-variation-settings:normal;opacity:0.3;fill:none;fill-opacity:1;stroke:#0000ff;stroke-width:2.64583;stroke-linecap:round;stroke-linejoin:round;stroke-miterlimit:4;stroke-dasharray:none;stroke-dashoffset:0;stroke-opacity:1;stop-color:#000000"
         d="m 93.131942,64.266732 c 1.18738,-0.185176 2.38936,-0.08087 3.58497,-0.09719 1.05746,-0.01442 2.11894,-0.02862 3.1748,-0.09233 1.079948,-0.0652 2.151718,-0.201625 3.228068,-0.301291 1.34863,-0.124876 2.69563,-0.247709 4.04307,-0.383901 1.60577,-0.162298 3.21485,-0.292479 4.81547,-0.495667 0.90206,-0.114506 1.79742,-0.279506 2.69539,-0.417915 2.19891,-0.33894 4.40334,-0.687263 6.57333,-1.161418 0.95443,-0.208548 1.89101,-0.477525 2.83388,-0.724064 1.87522,-0.49033 3.74982,-0.973313 5.6145,-1.496723 0.93479,-0.262389 1.88155,-0.506233 2.80726,-0.796958 0.52353,-0.164422 1.04255,-0.34093 1.56609,-0.50539 1.29722,-0.407493 2.57952,-0.816086 3.84598,-1.297483 1.43987,-0.547314 2.89048,-1.090536 4.17092,-1.919496 2.93697,-1.901438 6.03997,-3.776445 8.10745,-6.531162 1.07647,-1.434278 2.10552,-2.705213 2.52494,-4.426996 0.14857,-0.609935 0.20242,-1.041547 0.20242,-1.661946 0,-0.147765 -0.007,-0.471021 -0.007,-0.615346"
         id="path789"
         sodipodi:nodetypes="cssssssssssssssssc"
         transform="translate(-119.06694,0.62537086)" /></g><g
       inkscape:label="Layer 1"
       id="layer1-3"
       transform="translate(-110.64388,15.940116)"
       style="stroke-width:0.43572"><path
         style="font-variation-settings:normal;opacity:1;fill:none;fill-opacity:1;stroke:#000000;stroke-width:0.264583;stroke-linecap:round;stroke-linejoin:round;stroke-miterlimit:4;stroke-dasharray:none;stroke-dashoffset:0;stroke-opacity:1;stop-color:#000000;stop-opacity:1"
         d="m 212.73257,18.499493 c -1.18738,0.185176 -2.38936,0.08086 -3.58498,0.09719 -1.05746,0.01444 -2.11893,0.02862 -3.17479,0.09233 -1.07996,0.06517 -2.15173,0.20162 -3.22807,0.301287 -1.34864,0.124882 -2.69564,0.247707 -4.04307,0.3839 -1.60578,0.162303 -3.21485,0.292481 -4.81548,0.495667 -0.90206,0.114512 -1.79741,0.279505 -2.69539,0.417919 -2.19891,0.338943 -4.40334,0.687261 -6.57333,1.161417 -0.95443,0.208548 -1.89101,0.477526 -2.83388,0.724065 -1.87522,0.490327 -3.74982,0.973315 -5.61449,1.496725 -0.93479,0.26239 -1.88156,0.50623 -2.80726,0.796955 -0.52353,0.164422 -1.04255,0.34093 -1.5661,0.50539 -1.29721,0.407495 -2.57951,0.816085 -3.84598,1.297482 -1.43986,0.547312 -2.89048,1.090535 -4.17092,1.9195 -2.93697,1.901434 -6.03997,3.776446 -8.10747,6.53116 -1.07647,1.434277 -2.1055,2.705212 -2.52492,4.426995 -0.14857,0.609935 -0.20242,1.041547 -0.20242,1.661947 0,0.147764 0.007,0.47102 0.007,0.615346"
         id="path7356"
         sodipodi:nodetypes="cssssssssssssssssc" /><path
         style="font-variation-settings:normal;fill:none;fill-opacity:1;stroke:#000000;stroke-width:0.264583;stroke-linecap:round;stroke-linejoin:round;stroke-miterlimit:4;stroke-dasharray:1.13347, 2.26693;stroke-dashoffset:0;stroke-opacity:1;stop-color:#000000"
         d="m 93.131942,18.353697 c 1.18738,0.185176 2.38937,0.08087 3.58497,0.09719 1.05747,0.01444 2.11894,0.02862 3.1748,0.09233 1.079958,0.06517 2.151728,0.20162 3.228068,0.301287 1.34864,0.124882 2.69563,0.247707 4.04307,0.3839 1.60577,0.162304 3.21485,0.292481 4.81547,0.495667 0.90206,0.114512 1.79742,0.279506 2.69539,0.417919 2.19891,0.338943 4.40334,0.687261 6.57334,1.161417 0.95442,0.208549 1.89101,0.477527 2.83387,0.724066 1.87522,0.490326 3.74982,0.973315 5.6145,1.496724 0.93479,0.26239 1.88155,0.50623 2.80726,0.796955 0.52353,0.164422 1.04255,0.34093 1.56609,0.50539 1.29722,0.407495 2.57952,0.816085 3.84598,1.297482 1.43987,0.547312 2.89048,1.090535 4.17092,1.9195 2.93697,1.901435 6.03996,3.776446 8.10746,6.53116 1.07647,1.434278 2.10551,2.705212 2.52493,4.426995 0.14857,0.609936 0.20242,1.041547 0.20242,1.661947 0,0.147764 -0.007,0.47102 -0.007,0.615347"
         id="path7356-9"
         sodipodi:nodetypes="cssssssssssssssssc" /><path
         style="font-variation-settings:normal;opacity:1;fill:none;fill-opacity:1;stroke:#0000ff;stroke-width:0.264583;stroke-linecap:round;stroke-linejoin:round;stroke-miterlimit:4;stroke-dasharray:none;stroke-dashoffset:0;stroke-opacity:1;stop-color:#000000;stop-opacity:1"
         d="m 125.73466,20.422488 c -0.86166,-0.380039 -1.07028,-0.422867 -1.91225,0.02118 -0.24712,0.130328 -0.56036,0.331084 -0.71511,0.572082 -0.46963,0.731391 -0.53289,1.700481 -0.61977,2.537292 -0.10024,0.965577 -0.19161,1.929693 -0.27014,2.897495 -0.16629,2.049218 -0.32182,4.087425 -0.30723,6.144589 0.006,0.904561 0.0685,1.804496 0.12712,2.706802 0.0407,0.627225 0.20877,3.299973 0.27016,4.052249 0.13503,1.65466 0.33018,3.306018 0.43437,4.96335 0.1142,1.816961 0.13818,3.641219 0.15361,5.461268 0.009,1.028997 2.1e-4,2.059893 0.0477,3.088185 0.0676,1.463135 0.23341,2.924561 0.20129,4.391263 -0.0103,0.469813 -0.0224,0.951573 -0.0689,1.419617 -0.0264,0.265759 -0.0803,0.524595 -0.11123,0.78926 -0.076,0.64941 -0.0964,1.30332 -0.0529,1.954612 0.0217,0.324844 0.016,0.646782 0.0953,0.964067 0.12104,0.484136 0.57132,0.588288 1.02764,0.651541 0.58802,0.0815 1.47288,0.137408 1.99171,-0.24896 0.43773,-0.325968 0.73506,-0.783506 0.85813,-1.313673 0.22838,-0.983803 0.0846,-1.984587 -0.0105,-2.971654 -0.0753,-0.780356 -0.16253,-1.560668 -0.23307,-2.341298 -0.0595,-0.659163 -0.0789,-1.32055 -0.11655,-1.981102 -0.12071,-2.115952 -0.20213,-4.234077 -0.30192,-6.351175 -0.16858,-3.576023 -0.29437,-7.156073 -0.23308,-10.737145 0.0291,-1.701005 0.12798,-3.400626 0.1801,-5.10107 0.0209,-0.681294 0.0673,-1.362706 0.0636,-2.044666 -0.003,-0.571719 -0.0621,-1.139888 -0.0795,-1.710951 -0.0224,-0.73242 0.005,-1.465768 0.005,-2.198281 0,-1.252293 0.27895,-2.476015 0.24366,-3.729132 -0.0143,-0.505813 -0.0586,-1.079421 -0.32312,-1.520256 -0.0352,-0.0586 -0.0634,-0.150101 -0.11654,-0.195993 -0.0716,-0.06182 -0.15185,-0.113003 -0.22778,-0.169504 z"
         id="path7785" /><path
         style="font-variation-settings:normal;opacity:1;fill:none;fill-opacity:1;stroke:#000000;stroke-width:0.264583;stroke-linecap:round;stroke-linejoin:round;stroke-miterlimit:4;stroke-dasharray:none;stroke-dashoffset:0;stroke-opacity:1;stop-color:#000000;stop-opacity:1"
         d="m 212.73257,64.409483 c -1.18738,-0.185175 -2.38936,-0.08087 -3.58497,-0.09719 -1.05746,-0.01442 -2.11894,-0.02862 -3.17479,-0.09233 -1.07996,-0.0652 -2.15174,-0.201618 -3.22808,-0.301292 -1.34863,-0.124874 -2.69564,-0.2477 -4.04306,-0.383893 -1.60579,-0.162304 -3.21486,-0.292485 -4.81548,-0.495666 -0.90206,-0.114513 -1.79742,-0.279505 -2.69539,-0.417922 -2.19891,-0.338942 -4.40334,-0.687265 -6.57334,-1.161419 -0.95443,-0.208547 -1.891,-0.477524 -2.83388,-0.724064 -1.87521,-0.490323 -3.74982,-0.973313 -5.61449,-1.496723 -0.93479,-0.262389 -1.88155,-0.506233 -2.80725,-0.796958 -0.52354,-0.164423 -1.04256,-0.34093 -1.5661,-0.50539 -1.29721,-0.407493 -2.57951,-0.816086 -3.84599,-1.297482 -1.43986,-0.547306 -2.89048,-1.090529 -4.17092,-1.919496 -2.93697,-1.901439 -6.03996,-3.776445 -8.10746,-6.531162 -1.07647,-1.434277 -2.10551,-2.705211 -2.52492,-4.426994 -0.14858,-0.609937 -0.20242,-1.041548 -0.20242,-1.661947 0,-0.147765 0.007,-0.471021 0.007,-0.615347"
         id="path8967"
         sodipodi:nodetypes="cssssssssssssssssc" /><path
         style="font-variation-settings:normal;fill:none;fill-opacity:1;stroke:#000000;stroke-width:0.264583;stroke-linecap:round;stroke-linejoin:round;stroke-miterlimit:4;stroke-dasharray:1.13347, 2.26693;stroke-dashoffset:0;stroke-opacity:1;stop-color:#000000"
         d="m 93.131942,64.266732 c 1.18738,-0.185176 2.38936,-0.08087 3.58497,-0.09719 1.05746,-0.01442 2.11894,-0.02862 3.1748,-0.09233 1.079948,-0.0652 2.151718,-0.201625 3.228068,-0.301291 1.34863,-0.124876 2.69563,-0.247709 4.04307,-0.383901 1.60577,-0.162298 3.21485,-0.292479 4.81547,-0.495667 0.90206,-0.114506 1.79742,-0.279506 2.69539,-0.417915 2.19891,-0.33894 4.40334,-0.687263 6.57333,-1.161418 0.95443,-0.208548 1.89101,-0.477525 2.83388,-0.724064 1.87522,-0.49033 3.74982,-0.973313 5.6145,-1.496723 0.93479,-0.262389 1.88155,-0.506233 2.80726,-0.796958 0.52353,-0.164422 1.04255,-0.34093 1.56609,-0.50539 1.29722,-0.407493 2.57952,-0.816086 3.84598,-1.297483 1.43987,-0.547314 2.89048,-1.090536 4.17092,-1.919496 2.93697,-1.901438 6.03997,-3.776445 8.10745,-6.531162 1.07647,-1.434278 2.10552,-2.705213 2.52494,-4.426996 0.14857,-0.609935 0.20242,-1.041547 0.20242,-1.661946 0,-0.147765 -0.007,-0.471021 -0.007,-0.615346"
         id="path8969"
         sodipodi:nodetypes="cssssssssssssssssc" /><ellipse
         id="path11390"
         style="fill:#000000;stroke:none;stroke-width:0.264583"
         cx="124.65224"
         cy="22.158432"
         rx="0.70352703"
         ry="0.70293164" /><ellipse
         id="path11392"
         style="fill:#000000;stroke:none;stroke-width:0.264583"
         cx="162.1138"
         cy="29.337986"
         rx="0.70352703"
         ry="0.70293164" /><ellipse
         id="path11394"
         style="fill:#000000;stroke:none;stroke-width:0.264583"
         cx="152.97113"
         cy="41.364414"
         rx="0.70352703"
         ry="0.70293164" /><ellipse
         id="path11400"
         style="fill:#000000;stroke:none;stroke-width:0.264583"
         cx="124.64249"
         cy="60.389339"
         rx="0.70352703"
         ry="0.70293164" /><ellipse
         id="path11404"
         style="fill:#000000;stroke:none;stroke-width:0.264583"
         cx="180.49124"
         cy="60.385292"
         rx="0.70352703"
         ry="0.70293164" /><ellipse
         id="path11406"
         style="fill:#000000;stroke:none;stroke-width:0.264583"
         cx="124.5593"
         cy="41.339218"
         rx="1.4070541"
         ry="1.4058633" /></g><g
       inkscape:label=""
       transform="matrix(2.2950481,0,0,2.2950481,4.1027372,4.5147204)"
       id="g1501"
       style="stroke-width:0.43572"><g
   fill="#000000"
   fill-opacity="1"
   id="g52"
   transform="matrix(0.352778,0,0,0.352778,-0.198437,-0.324864)"
   style="stroke-width:0.238111">
    <g
   id="use50"
   transform="translate(5.2379999,3.9990001)"
   style="stroke-width:0.43572">
      <path
   d="m 1.640625,-1.40625 c 0,-0.046875 0.171875,-0.671875 0.171875,-0.703125 0.015625,-0.0625 0.21875,-0.40625 0.453125,-0.578125 0.0625,-0.046875 0.25,-0.1875 0.5625,-0.1875 0.0625,0 0.234375,0 0.375,0.09375 -0.21875,0.0625 -0.296875,0.265625 -0.296875,0.390625 0,0.140625 0.109375,0.25 0.265625,0.25 0.171875,0 0.390625,-0.125 0.390625,-0.421875 0,-0.359375 -0.375,-0.515625 -0.734375,-0.515625 -0.359375,0 -0.671875,0.15625 -0.984375,0.5 -0.125,-0.421875 -0.546875,-0.5 -0.71875,-0.5 -0.25,0 -0.421875,0.171875 -0.546875,0.359375 -0.15625,0.265625 -0.25,0.671875 -0.25,0.71875 0,0.078125 0.09375,0.078125 0.125,0.078125 0.09375,0 0.09375,-0.015625 0.140625,-0.203125 0.109375,-0.421875 0.25,-0.75 0.515625,-0.75 0.1875,0 0.234375,0.15625 0.234375,0.34375 0,0.125 -0.0625,0.390625 -0.125,0.578125 -0.046875,0.1875 -0.109375,0.46875 -0.140625,0.625 L 0.84375,-0.4375 C 0.828125,-0.34375 0.78125,-0.171875 0.78125,-0.15625 0.78125,0 0.90625,0.0625 1.015625,0.0625 1.125,0.0625 1.265625,0 1.3125,-0.125 1.328125,-0.171875 1.40625,-0.484375 1.453125,-0.65625 Z m 0,0"
   id="path112"
   style="stroke-width:0.43572" />
    </g>
  </g>
  <g
   fill="#000000"
   fill-opacity="1"
   id="g56"
   transform="matrix(0.352778,0,0,0.352778,-0.198437,-0.324864)"
   style="stroke-width:0.238111">
    <g
   id="use54"
   transform="translate(0,6.9879999)"
   style="stroke-width:0.43572">
      <path
   d="m 12.625,13.953125 1.203125,-3.1875 h -0.25 c -0.390625,1.03125 -1.453125,1.71875 -2.59375,2.015625 -0.203125,0.04687 -1.1875,0.3125 -3.09375,0.3125 H 1.875 L 6.953125,7.140625 C 7.015625,7.0625 7.03125,7.03125 7.03125,6.984375 c 0,-0.03125 0,-0.0625 -0.0625,-0.15625 L 2.328125,0.484375 H 7.78125 c 1.34375,0 2.25,0.140625 2.34375,0.15625 0.53125,0.078125 1.40625,0.25 2.1875,0.75 0.25,0.15625 0.921875,0.609375 1.265625,1.40625 h 0.25 L 12.625,0 H 0.84375 c -0.234375,0 -0.25,0.015625 -0.28125,0.0625 0,0.03125 0,0.234375 0,0.34375 l 5.265625,7.203125 -5.15625,6.0625 C 0.5625,13.78125 0.5625,13.84375 0.5625,13.84375 c 0,0.109375 0.09375,0.109375 0.28125,0.109375 z m 0,0"
   id="path116"
   style="stroke-width:0.43572" />
    </g>
  </g>
  <g
   fill="#000000"
   fill-opacity="1"
   id="g60"
   transform="matrix(0.352778,0,0,0.352778,-0.198437,-0.324864)"
   style="stroke-width:0.238111">
    <g
   id="use58"
   transform="translate(0.74199998,28.207001)"
   style="stroke-width:0.43572">
      <path
   d="m 2.265625,-4.359375 c 0,-0.109375 -0.09375,-0.265625 -0.28125,-0.265625 -0.1875,0 -0.390625,0.1875 -0.390625,0.390625 0,0.109375 0.078125,0.265625 0.28125,0.265625 0.1875,0 0.390625,-0.203125 0.390625,-0.390625 z M 0.84375,-0.8125 c -0.03125,0.09375 -0.0625,0.171875 -0.0625,0.296875 0,0.328125 0.265625,0.578125 0.65625,0.578125 0.6875,0 1,-0.953125 1,-1.0625 0,-0.09375 -0.09375,-0.09375 -0.109375,-0.09375 -0.09375,0 -0.109375,0.046875 -0.140625,0.125 -0.15625,0.5625 -0.453125,0.84375 -0.734375,0.84375 -0.140625,0 -0.171875,-0.09375 -0.171875,-0.25 0,-0.15625 0.046875,-0.28125 0.109375,-0.4375 C 1.46875,-1 1.546875,-1.1875 1.609375,-1.375 1.671875,-1.546875 1.9375,-2.171875 1.953125,-2.265625 1.984375,-2.328125 2,-2.40625 2,-2.484375 2,-2.8125 1.71875,-3.078125 1.34375,-3.078125 0.640625,-3.078125 0.328125,-2.125 0.328125,-2 c 0,0.078125 0.09375,0.078125 0.125,0.078125 0.09375,0 0.09375,-0.03125 0.125,-0.109375 C 0.75,-2.625 1.0625,-2.875 1.3125,-2.875 c 0.109375,0 0.171875,0.046875 0.171875,0.234375 0,0.171875 -0.03125,0.265625 -0.203125,0.703125 z m 0,0"
   id="path120"
   style="stroke-width:0.43572" />
    </g>
  </g>
  <g
   fill="#000000"
   fill-opacity="1"
   id="g66"
   transform="matrix(0.352778,0,0,0.352778,-0.198437,-0.324864)"
   style="stroke-width:0.238111">
    <g
   id="use62"
   transform="translate(3.5610001,28.207001)"
   style="stroke-width:0.43572">
      <path
   d="m 5.359375,-2.34375 c 0.09375,0 0.25,0 0.25,-0.171875 0,-0.171875 -0.15625,-0.171875 -0.25,-0.171875 H 0.75 c -0.09375,0 -0.265625,0 -0.265625,0.171875 0,0.171875 0.15625,0.171875 0.265625,0.171875 z m 0,1.53125 c 0.09375,0 0.25,0 0.25,-0.15625 0,-0.1875 -0.15625,-0.1875 -0.25,-0.1875 H 0.75 c -0.109375,0 -0.265625,0 -0.265625,0.1875 0,0.15625 0.171875,0.15625 0.265625,0.15625 z m 0,0"
   id="path124"
   style="stroke-width:0.43572" />
    </g>
    <g
   id="use64"
   transform="translate(9.6770229,28.207001)"
   style="stroke-width:0.43572">
      <path
   d="m 2.328125,-4.4375 c 0,-0.1875 0,-0.1875 -0.203125,-0.1875 -0.453125,0.4375 -1.078125,0.4375 -1.359375,0.4375 v 0.25 c 0.15625,0 0.625,0 1,-0.1875 v 3.546875 c 0,0.234375 0,0.328125 -0.6875,0.328125 H 0.8125 V 0 c 0.125,0 0.984375,-0.03125 1.234375,-0.03125 0.21875,0 1.09375,0.03125 1.25,0.03125 V -0.25 H 3.03125 c -0.703125,0 -0.703125,-0.09375 -0.703125,-0.328125 z m 0,0"
   id="path128"
   style="stroke-width:0.43572" />
    </g>
  </g>
  <g
   fill="#000000"
   fill-opacity="1"
   id="g70"
   transform="matrix(0.352778,0,0,0.352778,-0.198437,-0.324864)"
   style="stroke-width:0.238111">
    <g
   id="use68"
   transform="translate(16.051001,16.452)"
   style="stroke-width:0.43572">
      <path
   d="m 1.859375,-2.296875 c 0.296875,0 1.03125,-0.03125 1.53125,-0.234375 0.703125,-0.296875 0.75,-0.890625 0.75,-1.03125 0,-0.4375 -0.375,-0.84375 -1.0625,-0.84375 -1.109375,0 -2.625,0.96875 -2.625,2.71875 0,1.015625 0.59375,1.796875 1.578125,1.796875 1.421875,0 2.25,-1.0625 2.25,-1.171875 0,-0.0625 -0.046875,-0.140625 -0.109375,-0.140625 -0.0625,0 -0.078125,0.03125 -0.140625,0.109375 -0.78125,0.984375 -1.875,0.984375 -1.984375,0.984375 -0.78125,0 -0.875,-0.84375 -0.875,-1.15625 0,-0.125 0.015625,-0.421875 0.15625,-1.03125 z m -0.46875,-0.21875 C 1.78125,-4.03125 2.8125,-4.1875 3.078125,-4.1875 c 0.453125,0 0.734375,0.296875 0.734375,0.625 0,1.046875 -1.59375,1.046875 -2.015625,1.046875 z m 0,0"
   id="path132"
   style="stroke-width:0.43572" />
    </g>
  </g>
  <g
   fill="#000000"
   fill-opacity="1"
   id="g74"
   transform="matrix(0.352778,0,0,0.352778,-0.198437,-0.324864)"
   style="stroke-width:0.238111">
    <g
   id="use72"
   transform="translate(20.690001,17.947001)"
   style="stroke-width:0.43572">
      <path
   d="m 2.265625,-4.359375 c 0,-0.109375 -0.09375,-0.265625 -0.28125,-0.265625 -0.1875,0 -0.390625,0.1875 -0.390625,0.390625 0,0.109375 0.078125,0.265625 0.28125,0.265625 0.1875,0 0.390625,-0.203125 0.390625,-0.390625 z M 0.84375,-0.8125 c -0.03125,0.09375 -0.0625,0.171875 -0.0625,0.296875 0,0.328125 0.265625,0.578125 0.65625,0.578125 0.6875,0 1,-0.953125 1,-1.0625 0,-0.09375 -0.09375,-0.09375 -0.109375,-0.09375 -0.09375,0 -0.109375,0.046875 -0.140625,0.125 -0.15625,0.5625 -0.453125,0.84375 -0.734375,0.84375 -0.140625,0 -0.171875,-0.09375 -0.171875,-0.25 0,-0.15625 0.046875,-0.28125 0.109375,-0.4375 C 1.46875,-1 1.546875,-1.1875 1.609375,-1.375 1.671875,-1.546875 1.9375,-2.171875 1.953125,-2.265625 1.984375,-2.328125 2,-2.40625 2,-2.484375 2,-2.8125 1.71875,-3.078125 1.34375,-3.078125 0.640625,-3.078125 0.328125,-2.125 0.328125,-2 c 0,0.078125 0.09375,0.078125 0.125,0.078125 0.09375,0 0.09375,-0.03125 0.125,-0.109375 C 0.75,-2.625 1.0625,-2.875 1.3125,-2.875 c 0.109375,0 0.171875,0.046875 0.171875,0.234375 0,0.171875 -0.03125,0.265625 -0.203125,0.703125 z m 0,0"
   id="path136"
   style="stroke-width:0.43572" />
    </g>
  </g>
  <g
   fill="#000000"
   fill-opacity="1"
   id="g78"
   transform="matrix(0.352778,0,0,0.352778,-0.198437,-0.324864)"
   style="stroke-width:0.238111">
    <g
   id="use76"
   transform="translate(24.007,16.452)"
   style="stroke-width:0.43572">
      <path
   d="m 3.65625,-3.984375 h 0.859375 c 0.203125,0 0.296875,0 0.296875,-0.203125 0,-0.109375 -0.09375,-0.109375 -0.265625,-0.109375 H 3.71875 L 3.921875,-5.4375 c 0.046875,-0.203125 0.1875,-0.90625 0.25,-1.03125 0.078125,-0.1875 0.25,-0.34375 0.46875,-0.34375 0.03125,0 0.296875,0 0.484375,0.1875 -0.4375,0.03125 -0.546875,0.390625 -0.546875,0.53125 0,0.234375 0.1875,0.359375 0.375,0.359375 C 5.21875,-5.734375 5.5,-5.96875 5.5,-6.34375 c 0,-0.453125 -0.453125,-0.6875 -0.859375,-0.6875 -0.34375,0 -0.96875,0.1875 -1.265625,1.171875 -0.0625,0.203125 -0.09375,0.3125 -0.328125,1.5625 h -0.6875 c -0.203125,0 -0.3125,0 -0.3125,0.1875 0,0.125 0.09375,0.125 0.28125,0.125 h 0.65625 L 2.25,-0.046875 c -0.1875,0.96875 -0.359375,1.875 -0.875,1.875 -0.046875,0 -0.28125,0 -0.484375,-0.1875 C 1.359375,1.609375 1.453125,1.25 1.453125,1.109375 1.453125,0.875 1.265625,0.75 1.078125,0.75 0.8125,0.75 0.53125,0.984375 0.53125,1.359375 c 0,0.4375 0.4375,0.6875 0.84375,0.6875 0.546875,0 0.953125,-0.59375 1.125,-0.96875 0.328125,-0.625 0.546875,-1.828125 0.5625,-1.90625 z m 0,0"
   id="path140"
   style="stroke-width:0.43572" />
    </g>
  </g>
  <g
   fill="#000000"
   fill-opacity="1"
   id="g82"
   transform="matrix(0.352778,0,0,0.352778,-0.198437,-0.324864)"
   style="stroke-width:0.238111">
    <g
   id="use80"
   transform="translate(28.884001,17.947001)"
   style="stroke-width:0.43572">
      <path
   d="m 2.265625,-4.359375 c 0,-0.109375 -0.09375,-0.265625 -0.28125,-0.265625 -0.1875,0 -0.390625,0.1875 -0.390625,0.390625 0,0.109375 0.078125,0.265625 0.28125,0.265625 0.1875,0 0.390625,-0.203125 0.390625,-0.390625 z M 0.84375,-0.8125 c -0.03125,0.09375 -0.0625,0.171875 -0.0625,0.296875 0,0.328125 0.265625,0.578125 0.65625,0.578125 0.6875,0 1,-0.953125 1,-1.0625 0,-0.09375 -0.09375,-0.09375 -0.109375,-0.09375 -0.09375,0 -0.109375,0.046875 -0.140625,0.125 -0.15625,0.5625 -0.453125,0.84375 -0.734375,0.84375 -0.140625,0 -0.171875,-0.09375 -0.171875,-0.25 0,-0.15625 0.046875,-0.28125 0.109375,-0.4375 C 1.46875,-1 1.546875,-1.1875 1.609375,-1.375 1.671875,-1.546875 1.9375,-2.171875 1.953125,-2.265625 1.984375,-2.328125 2,-2.40625 2,-2.484375 2,-2.8125 1.71875,-3.078125 1.34375,-3.078125 0.640625,-3.078125 0.328125,-2.125 0.328125,-2 c 0,0.078125 0.09375,0.078125 0.125,0.078125 0.09375,0 0.09375,-0.03125 0.125,-0.109375 C 0.75,-2.625 1.0625,-2.875 1.3125,-2.875 c 0.109375,0 0.171875,0.046875 0.171875,0.234375 0,0.171875 -0.03125,0.265625 -0.203125,0.703125 z m 0,0"
   id="path144"
   style="stroke-width:0.43572" />
    </g>
  </g>
  <g
   fill="#000000"
   fill-opacity="1"
   id="g86"
   transform="matrix(0.352778,0,0,0.352778,-0.198437,-0.324864)"
   style="stroke-width:0.238111">
    <g
   id="use84"
   transform="translate(34.967999,16.452)"
   style="stroke-width:0.43572">
      <path
   d="m 6.84375,-3.265625 c 0.15625,0 0.34375,0 0.34375,-0.1875 C 7.1875,-3.65625 7,-3.65625 6.859375,-3.65625 h -5.96875 c -0.140625,0 -0.328125,0 -0.328125,0.203125 0,0.1875 0.1875,0.1875 0.328125,0.1875 z m 0.015625,1.9375 c 0.140625,0 0.328125,0 0.328125,-0.203125 0,-0.1875 -0.1875,-0.1875 -0.34375,-0.1875 H 0.890625 c -0.140625,0 -0.328125,0 -0.328125,0.1875 0,0.203125 0.1875,0.203125 0.328125,0.203125 z m 0,0"
   id="path148"
   style="stroke-width:0.43572" />
    </g>
  </g>
  <g
   fill="#000000"
   fill-opacity="1"
   id="g90"
   transform="matrix(0.352778,0,0,0.352778,-0.198437,-0.324864)"
   style="stroke-width:0.238111">
    <g
   id="use88"
   transform="translate(45.486511,16.452)"
   style="stroke-width:0.43572">
      <path
   d="M 2.546875,2.5 V 2.09375 h -0.96875 v -9.171875 h 0.96875 v -0.40625 h -1.375 V 2.5 Z m 0,0"
   id="path152"
   style="stroke-width:0.43572" />
    </g>
  </g>
  <g
   fill="#000000"
   fill-opacity="1"
   id="g94"
   transform="matrix(0.352778,0,0,0.352778,-0.198437,-0.324864)"
   style="stroke-width:0.238111">
    <g
   id="use92"
   transform="translate(48.251999,16.452)"
   style="stroke-width:0.43572">
      <path
   d="M 3.734375,-6.03125 C 3.8125,-6.390625 3.84375,-6.5 4.78125,-6.5 c 0.296875,0 0.375,0 0.375,-0.1875 0,-0.125 -0.109375,-0.125 -0.15625,-0.125 -0.328125,0 -1.140625,0.03125 -1.46875,0.03125 -0.296875,0 -1.03125,-0.03125 -1.328125,-0.03125 -0.0625,0 -0.1875,0 -0.1875,0.203125 0,0.109375 0.09375,0.109375 0.28125,0.109375 0.015625,0 0.203125,0 0.375,0.015625 0.171875,0.03125 0.265625,0.03125 0.265625,0.171875 0,0.03125 0,0.0625 -0.03125,0.1875 L 1.5625,-0.78125 c -0.09375,0.390625 -0.109375,0.46875 -0.90625,0.46875 -0.171875,0 -0.265625,0 -0.265625,0.203125 C 0.390625,0 0.484375,0 0.65625,0 h 4.625 C 5.515625,0 5.515625,0 5.578125,-0.171875 L 6.375,-2.328125 c 0.03125,-0.109375 0.03125,-0.125 0.03125,-0.140625 0,-0.03125 -0.03125,-0.109375 -0.109375,-0.109375 -0.09375,0 -0.109375,0.0625 -0.171875,0.21875 -0.34375,0.90625 -0.78125,2.046875 -2.5,2.046875 H 2.6875 c -0.140625,0 -0.171875,0 -0.21875,0 -0.109375,-0.015625 -0.140625,-0.03125 -0.140625,-0.109375 0,-0.03125 0,-0.046875 0.046875,-0.21875 z m 0,0"
   id="path156"
   style="stroke-width:0.43572" />
    </g>
  </g>
  <g
   fill="#000000"
   fill-opacity="1"
   id="g98"
   transform="matrix(0.352778,0,0,0.352778,-0.198437,-0.324864)"
   style="stroke-width:0.238111">
    <g
   id="use96"
   transform="translate(57.799,16.452)"
   style="stroke-width:0.43572">
      <path
   d="m 1.90625,-3.765625 c 0,-0.296875 -0.234375,-0.53125 -0.515625,-0.53125 -0.296875,0 -0.53125,0.234375 -0.53125,0.53125 0,0.28125 0.234375,0.53125 0.53125,0.53125 0.28125,0 0.515625,-0.25 0.515625,-0.53125 z m 0,3.234375 c 0,-0.28125 -0.234375,-0.53125 -0.515625,-0.53125 -0.296875,0 -0.53125,0.25 -0.53125,0.53125 C 0.859375,-0.234375 1.09375,0 1.390625,0 1.671875,0 1.90625,-0.234375 1.90625,-0.53125 Z m 0,0"
   id="path160"
   style="stroke-width:0.43572" />
    </g>
  </g>
  <g
   fill="#000000"
   fill-opacity="1"
   id="g102"
   transform="matrix(0.352778,0,0,0.352778,-0.198437,-0.324864)"
   style="stroke-width:0.238111">
    <g
   id="use100"
   transform="translate(63.334,16.452)"
   style="stroke-width:0.43572">
      <path
   d="M 5.078125,-4.03125 C 5.0625,-4.0625 5.03125,-4.140625 5.03125,-4.171875 c 0,0 0.171875,-0.140625 0.28125,-0.21875 l 1.75,-1.34375 C 8,-6.4375 8.390625,-6.46875 8.6875,-6.5 8.765625,-6.515625 8.859375,-6.515625 8.859375,-6.703125 8.859375,-6.734375 8.828125,-6.8125 8.75,-6.8125 c -0.21875,0 -0.46875,0.03125 -0.703125,0.03125 -0.359375,0 -0.75,-0.03125 -1.109375,-0.03125 -0.0625,0 -0.1875,0 -0.1875,0.203125 0,0.0625 0.046875,0.09375 0.125,0.109375 0.21875,0.015625 0.296875,0.0625 0.296875,0.203125 0,0.1875 -0.296875,0.421875 -0.359375,0.46875 L 2.9375,-2.84375 3.734375,-6.046875 C 3.8125,-6.40625 3.84375,-6.5 4.5625,-6.5 c 0.25,0 0.34375,0 0.34375,-0.203125 0,-0.078125 -0.078125,-0.109375 -0.140625,-0.109375 -0.28125,0 -1,0.03125 -1.28125,0.03125 C 3.203125,-6.78125 2.5,-6.8125 2.203125,-6.8125 2.140625,-6.8125 2,-6.8125 2,-6.625 2,-6.5 2.09375,-6.5 2.296875,-6.5 c 0.125,0 0.3125,0.015625 0.421875,0.015625 0.15625,0.03125 0.21875,0.046875 0.21875,0.171875 0,0.03125 0,0.0625 -0.03125,0.1875 L 1.5625,-0.78125 c -0.09375,0.390625 -0.109375,0.46875 -0.90625,0.46875 -0.171875,0 -0.28125,0 -0.28125,0.1875 C 0.375,0 0.5,0 0.53125,0 0.8125,0 1.515625,-0.03125 1.796875,-0.03125 2,-0.03125 2.21875,-0.015625 2.4375,-0.015625 2.65625,-0.015625 2.875,0 3.078125,0 3.15625,0 3.28125,0 3.28125,-0.203125 3.28125,-0.3125 3.1875,-0.3125 3,-0.3125 c -0.375,0 -0.640625,0 -0.640625,-0.171875 0,-0.078125 0.046875,-0.296875 0.078125,-0.4375 C 2.578125,-1.453125 2.71875,-1.96875 2.84375,-2.5 l 1.484375,-1.15625 1.15625,2.6875 c 0.125,0.265625 0.125,0.296875 0.125,0.34375 0,0.3125 -0.4375,0.3125 -0.53125,0.3125 -0.109375,0 -0.21875,0 -0.21875,0.203125 C 4.859375,0 4.984375,0 5,0 5.40625,0 5.828125,-0.03125 6.21875,-0.03125 6.4375,-0.03125 6.984375,0 7.203125,0 7.25,0 7.375,0 7.375,-0.203125 7.375,-0.3125 7.265625,-0.3125 7.171875,-0.3125 c -0.40625,0 -0.53125,-0.09375 -0.6875,-0.4375 z m 0,0"
   id="path164"
   style="stroke-width:0.43572" />
    </g>
  </g>
  <g
   fill="#000000"
   fill-opacity="1"
   id="g106"
   transform="matrix(0.352778,0,0,0.352778,-0.198437,-0.324864)"
   style="stroke-width:0.238111">
    <g
   id="use104"
   transform="translate(72.508003,16.452)"
   style="stroke-width:0.43572">
      <path
   d="M 1.578125,-7.484375 H 0.21875 v 0.40625 H 1.1875 V 2.09375 H 0.21875 V 2.5 h 1.359375 z m 0,0"
   id="path168"
   style="stroke-width:0.43572" />
    </g>
  </g>
</g><g
       inkscape:groupmode="layer"
       id="layer4"
       inkscape:label="Layer 4"
       style="mix-blend-mode:soft-light"><rect
         style="display:none;opacity:1;mix-blend-mode:normal;fill:url(#radialGradient6524);fill-opacity:1;stroke:none;stroke-width:2.64583;stroke-linecap:square;stroke-dasharray:none;stroke-opacity:1"
         id="rect4575"
         width="67.73333"
         height="67.73333"
         x="0"
         y="4.9999989e-07" /></g></g></svg>
