<?xml version="1.0" encoding="UTF-8" standalone="no"?>
<svg
   version="1.0"
   width="44.934582"
   height="31.638351"
   viewBox="0 0 371.36018 261.47398"
   preserveAspectRatio="xMidYMid"
   id="svg3897"
   sodipodi:docname="handshakeold.svg"
   xmlns:inkscape="http://www.inkscape.org/namespaces/inkscape"
   xmlns:sodipodi="http://sodipodi.sourceforge.net/DTD/sodipodi-0.dtd"
   xmlns="http://www.w3.org/2000/svg"
   xmlns:svg="http://www.w3.org/2000/svg">
  <sodipodi:namedview
     id="namedview4464"
     pagecolor="#ffffff"
     bordercolor="#111111"
     borderopacity="1"
     inkscape:showpageshadow="0"
     inkscape:pageopacity="0"
     inkscape:pagecheckerboard="1"
     inkscape:deskcolor="#d1d1d1"
     inkscape:document-units="pt"
     showgrid="false" />
  <defs
     id="defs3901" />
  <g
     transform="matrix(0.07269921,0,0,-0.07269921,-0.42619042,317.00702)"
     fill="#AB7E74"
     stroke="none"
     id="g3895"
     style="fill:#000000">
    <path
       d="m 4223,4341 c -417,-151 -450,-168 -493,-257 -20,-40 -22,-57 -17,-125 5,-79 5,-79 -21,-86 -48,-12 -145,13 -316,81 -224,89 -310,110 -456,110 -142,0 -219,-18 -357,-85 l -102,-49 -64,35 c -198,109 -407,130 -702,70 -71,-14 -177,-29 -235,-32 l -105,-6 -13,49 c -9,34 -27,61 -60,95 -45,45 -55,49 -272,120 -258,85 -304,90 -385,49 -91,-47 -83,-27 -362,-886 C 34,2717 7,2628 6,2565 c -1,-60 3,-77 27,-118 15,-26 46,-59 67,-73 40,-27 300,-117 444,-155 89,-24 141,-17 209,27 33,22 37,22 37,7 0,-10 -28,-73 -62,-141 -62,-122 -63,-124 -63,-205 1,-67 6,-92 27,-138 49,-107 151,-177 272,-186 l 61,-5 v -92 c 0,-80 4,-97 28,-143 74,-141 227,-210 373,-168 32,9 69,23 81,31 20,13 23,11 42,-30 65,-134 240,-208 382,-162 28,10 52,16 53,14 61,-134 113,-195 204,-240 65,-32 189,-32 247,-1 47,25 102,81 139,141 l 26,42 52,-26 c 141,-72 294,-25 375,114 21,35 27,62 31,122 l 4,78 54,7 c 69,8 164,56 205,103 48,54 82,137 87,210 4,54 7,62 21,56 9,-4 50,-9 91,-12 105,-5 175,22 251,97 66,66 99,142 99,228 0,53 1,55 23,49 140,-41 258,8 328,136 32,59 34,70 36,168 2,101 14,138 27,85 9,-36 72,-102 120,-127 76,-39 134,-30 364,56 233,87 248,94 283,133 46,49 63,93 63,163 1,61 -17,114 -289,845 l -290,780 -50,51 c -73,76 -156,93 -262,55 z m 161,-143 c 19,-18 93,-208 310,-793 157,-424 286,-781 286,-793 0,-52 -27,-79 -107,-110 -373,-142 -383,-145 -432,-105 -16,13 -103,235 -297,758 -339,914 -310,825 -289,868 19,41 0,31 240,123 207,79 250,87 289,52 z M 951,4134 c 111,-36 211,-70 222,-75 10,-6 25,-26 33,-44 17,-41 32,12 -275,-939 -240,-742 -235,-731 -308,-730 -21,0 -126,29 -233,64 -211,69 -250,92 -250,147 0,39 498,1584 519,1607 18,20 47,34 73,35 9,1 108,-29 219,-65 z m 1212,-223 c 60,-16 147,-50 165,-66 2,-2 -103,-108 -234,-236 -238,-235 -339,-348 -363,-407 -19,-45 -3,-78 80,-161 109,-109 230,-161 377,-161 105,0 202,23 405,96 218,78 278,94 354,94 72,0 106,-11 187,-60 33,-20 193,-103 354,-185 409,-206 575,-320 619,-424 33,-77 10,-205 -45,-255 -12,-10 -41,-21 -66,-23 -53,-6 -39,-13 -577,278 -212,115 -394,209 -403,209 -25,0 -66,-45 -66,-73 0,-13 10,-33 23,-44 12,-11 169,-100 349,-197 180,-98 339,-189 354,-204 92,-91 65,-256 -50,-312 -37,-17 -59,-21 -104,-18 -51,4 -92,23 -413,196 -206,111 -367,192 -383,192 -52,0 -84,-62 -53,-104 7,-10 121,-75 252,-146 132,-71 256,-142 276,-159 112,-93 84,-268 -53,-326 -86,-35 -91,-33 -532,203 -195,104 -213,108 -246,49 -13,-24 -13,-30 0,-54 9,-15 32,-37 52,-48 l 35,-20 h -77 -78 l -4,65 c -6,83 -35,147 -90,202 -71,71 -126,93 -236,93 h -92 v 27 c 0,51 -40,136 -86,183 -68,70 -140,100 -241,99 -82,0 -83,0 -83,25 0,44 -54,144 -105,195 -69,68 -121,89 -220,89 -88,0 -144,-19 -203,-67 l -32,-28 v 49 c 0,81 22,157 223,778 l 194,600 119,7 c 65,3 178,18 249,32 180,35 168,33 286,35 76,1 127,-5 182,-18 z m 942,-6 c 33,-9 134,-45 225,-82 205,-81 290,-100 380,-85 35,6 65,10 66,9 1,-1 102,-271 224,-600 157,-422 219,-602 212,-609 -8,-8 -34,11 -90,63 -106,99 -242,181 -577,351 -154,77 -311,160 -350,183 -174,106 -291,101 -635,-23 -233,-85 -276,-95 -390,-90 -110,5 -164,27 -246,101 -48,44 -49,45 -34,73 23,45 465,482 558,551 100,76 244,148 332,168 81,18 241,13 325,-10 z M 1237,2363 c 56,-41 86,-90 91,-147 4,-53 1,-61 -78,-213 -45,-87 -94,-176 -109,-198 -52,-79 -150,-106 -236,-66 -48,22 -69,44 -90,94 -29,70 -21,106 57,254 112,217 137,253 188,281 55,29 135,27 177,-5 z m 398,-302 c 81,-36 127,-125 106,-205 -15,-59 -234,-465 -272,-503 -50,-51 -128,-66 -196,-38 -79,33 -117,98 -111,184 4,48 20,86 122,276 65,121 128,231 140,244 28,32 93,61 136,61 19,0 53,-9 75,-19 z m 418,-305 c 44,-18 95,-78 103,-121 13,-71 -1,-116 -87,-274 -100,-184 -128,-212 -217,-219 -125,-9 -217,89 -198,211 6,35 133,285 178,350 42,59 146,85 221,53 z m 722,-381 c 149,-80 185,-158 123,-263 -38,-63 -113,-79 -191,-41 l -45,22 19,53 c 22,63 25,161 5,208 -8,19 -31,53 -53,77 l -38,43 55,-31 c 30,-16 87,-47 125,-68 z m -299,6 c 100,-58 110,-117 45,-257 -80,-170 -129,-224 -205,-224 -55,0 -97,22 -143,74 -48,55 -69,122 -54,174 14,47 78,162 109,196 65,70 164,85 248,37 z"
       id="path3893"
       style="fill:#000000" />
  </g>
</svg>
