<?xml version="1.0" encoding="UTF-8" standalone="no"?>
<!-- Created with Inkscape (http://www.inkscape.org/) -->

<svg
   width="641.81018"
   height="135.33708"
   viewBox="0 0 169.81228 35.807935"
   version="1.1"
   id="svg1083"
   sodipodi:docname="/tmp/ink_ext_XXXXXX.svg717411"
   inkscape:export-filename="interaction.svg"
   inkscape:export-xdpi="96"
   inkscape:export-ydpi="96"
   xml:space="preserve"
   xmlns:inkscape="http://www.inkscape.org/namespaces/inkscape"
   xmlns:sodipodi="http://sodipodi.sourceforge.net/DTD/sodipodi-0.dtd"
   xmlns="http://www.w3.org/2000/svg"
   xmlns:svg="http://www.w3.org/2000/svg"><sodipodi:namedview
     id="namedview1085"
     pagecolor="#ffffff"
     bordercolor="#111111"
     borderopacity="1"
     inkscape:showpageshadow="0"
     inkscape:pageopacity="0"
     inkscape:pagecheckerboard="1"
     inkscape:deskcolor="#d1d1d1"
     inkscape:document-units="mm"
     showgrid="false"
     inkscape:lockguides="false"
     inkscape:zoom="1.6111378"
     inkscape:cx="251.06481"
     inkscape:cy="222.20322"
     inkscape:window-width="1908"
     inkscape:window-height="1049"
     inkscape:window-x="4"
     inkscape:window-y="4"
     inkscape:window-maximized="1"
     inkscape:current-layer="layer1"
     showguides="true"><sodipodi:guide
       position="30.110989,18.031928"
       orientation="0,-1"
       id="guide5183"
       inkscape:locked="false" /></sodipodi:namedview><defs
     id="defs1080" /><g
     inkscape:label="Layer 1"
     inkscape:groupmode="layer"
     id="layer1"
     transform="translate(-4.7848396,-18.327754)"><circle
       id="path3960"
       style="fill:#000000;stroke:none;stroke-width:0.264583"
       cx="-20.988281"
       cy="37.471153"
       r="0.92604053"
       transform="scale(-1,1)" /><circle
       id="path3962"
       style="fill:#000000;stroke:none;stroke-width:0.264583"
       cx="-20.988281"
       cy="25.969217"
       r="0.92604053"
       transform="scale(-1,1)" /><circle
       id="path3966"
       style="fill:#000000;stroke:none;stroke-width:0.264583"
       cx="-20.957081"
       cy="48.546696"
       r="0.92604053"
       transform="scale(-1,1)" /><circle
       id="path3968"
       style="fill:#000000;stroke:none;stroke-width:0.264583"
       cx="-10.619615"
       cy="25.709229"
       r="0.92604053"
       transform="scale(-1,1)" /><circle
       id="path3970"
       style="fill:#000000;stroke:none;stroke-width:0.264583"
       cx="-11.087608"
       cy="37.013569"
       r="0.92604053"
       transform="scale(-1,1)" /><circle
       id="path3972"
       style="fill:#000000;stroke:none;stroke-width:0.264583"
       cx="-11.503605"
       cy="48.588295"
       r="0.92604053"
       transform="scale(-1,1)" /><circle
       id="path3974"
       style="fill:#000000;stroke:none;stroke-width:0.264583"
       cx="-16.318741"
       cy="43.190918"
       r="0.92604053"
       transform="scale(-1,1)" /><circle
       id="path3976"
       style="fill:#000000;stroke:none;stroke-width:0.264583"
       cx="-16.204342"
       cy="30.659428"
       r="0.92604053"
       transform="scale(-1,1)" /><circle
       id="path3978"
       style="fill:#000000;stroke:none;stroke-width:0.264583"
       cx="-5.7108798"
       cy="30.035452"
       r="0.92604053"
       transform="scale(-1,1)" /><circle
       id="path3980"
       style="fill:#000000;stroke:none;stroke-width:0.264583"
       cx="-6.7508655"
       cy="42.858128"
       r="0.92604053"
       transform="scale(-1,1)" /><path
       style="font-variation-settings:normal;opacity:1;vector-effect:none;fill:none;fill-opacity:1;stroke:#000000;stroke-width:0.264583px;stroke-linecap:round;stroke-linejoin:round;stroke-miterlimit:4;stroke-dasharray:none;stroke-dashoffset:0;stroke-opacity:1;-inkscape-stroke:none;stop-color:#000000;stop-opacity:1"
       d="m 132.35527,18.460045 c 3.06341,0.486993 6.18652,0.328708 9.26653,0.676282 6.30132,0.711096 12.79581,1.875473 18.78217,3.998373 2.76222,0.979543 5.61578,2.036585 8.08003,3.654296 0.96957,0.636489 2.50244,2.064266 3.03742,2.562754 1.78111,1.659622 2.60866,3.624453 2.88318,6.003493 0.0686,0.594733 0.10144,1.415013 -0.0356,2.005116 -0.47142,2.029971 -1.69891,3.721801 -3.08487,5.232294 -0.77087,0.84014 -1.42109,1.540878 -2.32553,2.206818 -0.94115,0.692963 -2.06567,1.335056 -3.08489,1.886471 -2.05211,1.110224 -4.18885,2.104592 -6.44266,2.740724 -1.78323,0.503312 -3.6342,0.680302 -5.45786,0.972897 -3.11401,0.499626 -0.46705,0.154765 -5.4104,0.996624 -1.58809,0.270455 -3.20898,0.320665 -4.80531,0.533908 -1.86388,0.248984 -3.70442,0.522219 -5.57652,0.723741 -1.46776,0.157996 -2.97421,0.25127 -4.42562,0.533906 -0.89996,0.175252 -1.99853,0.709059 -2.84759,0.806791 -0.26763,0.03081 -0.53787,-0.03164 -0.8068,-0.04746"
       id="path4076" /><path
       style="font-variation-settings:normal;opacity:1;vector-effect:none;fill:none;fill-opacity:1;stroke:#000000;stroke-width:0.264583px;stroke-linecap:round;stroke-linejoin:round;stroke-miterlimit:4;stroke-dasharray:none;stroke-dashoffset:0;stroke-opacity:1;-inkscape-stroke:none;stop-color:#000000;stop-opacity:1"
       d="m 27.955171,30.547473 c -0.05954,0.904944 -0.07949,0.704006 -0.0356,1.435619 0.0435,0.724911 0.07767,1.444461 0.08305,2.171224 0.0021,0.27683 0,0.55368 0,0.830521 0,0.06328 -0.03797,0.240454 0,0.189834 0.04799,-0.06399 0.02365,-0.158208 0.0356,-0.237295 0.05134,-0.340127 0.08482,-0.68345 0.154244,-1.020355 0.150495,-0.730316 0.409101,-1.906098 1.00852,-2.43224 0.184788,-0.1622 0.430133,-0.245798 0.664437,-0.320347 0.22541,-0.07172 0.378556,0.648269 0.379678,0.652555 0.240635,0.920041 0.303413,1.876187 0.237299,2.823774 -0.01881,0.269697 -0.04993,0.53848 -0.08306,0.806794 -0.0065,0.05237 -0.02692,0.206287 -0.03559,0.154238 -0.01471,-0.08827 0.0076,-0.566279 0.01188,-0.67628"
       id="path4134" /><path
       style="font-variation-settings:normal;opacity:1;vector-effect:none;fill:none;fill-opacity:1;stroke:#000000;stroke-width:0.264583px;stroke-linecap:round;stroke-linejoin:round;stroke-miterlimit:4;stroke-dasharray:none;stroke-dashoffset:0;stroke-opacity:1;-inkscape-stroke:none;stop-color:#000000;stop-opacity:1"
       d="m 32.190949,30.986467 c 0.05862,0.829824 -0.453372,3.687374 0.130521,4.271256 0.115711,0.115708 0.330796,-0.132074 0.533916,-0.818658 0.210894,-0.712858 0.379283,-1.437674 0.557652,-2.159359 0.02331,-0.09429 0.324975,-1.563661 0.391546,-1.613583 0.04757,-0.03567 0.01079,0.118523 0.01185,0.177969 0.0088,0.482129 -0.01561,0.64955 0.01185,1.174594 0.05865,1.120815 0.05239,2.437477 0.711901,3.417009 0.229121,0.340299 0.587542,-0.21872 0.759354,-0.711877 0.119309,-0.342453 0.216382,-1.208979 0.272892,-1.661044"
       id="path4136" /><path
       style="font-variation-settings:normal;opacity:1;vector-effect:none;fill:none;fill-opacity:1;stroke:#000000;stroke-width:0.264583px;stroke-linecap:round;stroke-linejoin:round;stroke-miterlimit:4;stroke-dasharray:none;stroke-dashoffset:0;stroke-opacity:1;-inkscape-stroke:none;stop-color:#000000;stop-opacity:1"
       d="m 35.7623,30.701717 c 0.246033,1.057577 0.165499,2.150322 0.189833,3.227168 0.0086,0.379757 0.0062,0.760288 0.0356,1.139005 0.0064,0.08233 -0.01127,0.232712 0.07119,0.237292 0.08874,0.0049 0.114909,-0.140904 0.14238,-0.225428 0.409083,-1.258676 0.597697,-3.38165 1.672955,-4.259392 0.276606,-0.225796 0.245825,0.275598 0.249166,0.427125 0.02328,1.055319 -0.103184,2.072695 -0.189843,3.120392 -0.01699,0.205293 -0.0356,0.410964 -0.0356,0.616958 0,0.05277 0.0099,0.200327 0.0356,0.154242 0.577741,-1.035889 1.155647,-3.963376 2.527236,-4.2238 0.163928,-0.03113 0.05579,0.331663 0.04745,0.49831 -0.06126,1.225148 -0.586412,2.741047 -0.450866,3.927187 0.0035,0.03069 0.06249,-0.02968 0.07119,-0.05932 0.07994,-0.272502 0.129516,-0.553026 0.189844,-0.830527 0.03856,-0.17735 0.07119,-0.355938 0.106786,-0.533908"
       id="path4138" /><path
       style="font-variation-settings:normal;opacity:1;vector-effect:none;fill:none;fill-opacity:1;stroke:#000000;stroke-width:0.264583px;stroke-linecap:round;stroke-linejoin:round;stroke-miterlimit:4;stroke-dasharray:none;stroke-dashoffset:0;stroke-opacity:1;-inkscape-stroke:none;stop-color:#000000;stop-opacity:1"
       d="m 42.19309,27.937261 c 0.292775,1.723698 -0.08962,3.467259 -0.332213,5.172972 -0.0555,0.390263 -0.166116,1.001284 -0.166116,1.435613 0,0.180716 0.14877,-0.329613 0.213572,-0.498311 0.321646,-0.837359 0.641606,-2.031648 1.400063,-2.633946 0.55825,-0.443309 0.778225,0.315283 0.806816,0.723742 0.08065,1.152152 -0.438129,2.359554 -1.732278,2.539026 -0.213206,0.02957 -0.437033,-0.09097 -0.605115,-0.225428 -0.519732,-0.415774 -0.414364,-1.09371 -0.284761,-1.649179"
       id="path4140" /><path
       style="font-variation-settings:normal;opacity:1;vector-effect:none;fill:none;fill-opacity:1;stroke:#000000;stroke-width:0.264583px;stroke-linecap:round;stroke-linejoin:round;stroke-miterlimit:4;stroke-dasharray:none;stroke-dashoffset:0;stroke-opacity:1;-inkscape-stroke:none;stop-color:#000000;stop-opacity:1"
       d="m 45.171195,31.994956 c 0.727239,0.611105 2.165276,-0.922663 1.044115,-1.411888 -0.234386,-0.102275 -0.442071,0.09916 -0.545793,0.272888 -0.310669,0.520348 -0.84664,3.414213 0.166105,3.642432 0.697744,0.157234 1.496817,-3.06477 1.815338,-3.618704 0.168045,-0.292248 0.255836,0.932278 0.391544,2.111899 0.01003,0.08724 0.03334,0.348803 0.03559,0.261019 0.01154,-0.44985 -0.123428,-1.56736 0.118655,-1.933929 0.43066,-0.652129 2.081033,-0.246399 2.705201,-0.142375"
       id="path4142" /><path
       style="font-variation-settings:normal;opacity:1;vector-effect:none;fill:none;fill-opacity:1;stroke:#000000;stroke-width:0.264583px;stroke-linecap:round;stroke-linejoin:round;stroke-miterlimit:4;stroke-dasharray:none;stroke-dashoffset:0;stroke-opacity:1;-inkscape-stroke:none;stop-color:#000000;stop-opacity:1"
       d="m 31.692627,38.164552 c -0.174019,-0.300569 -0.312639,-0.624639 -0.52206,-0.901708 -0.05547,-0.07339 -0.160467,-0.09426 -0.249166,-0.118649 -0.412729,-0.113499 -0.60766,0.285496 -0.74749,0.605096 -0.596977,1.364478 -0.744532,4.058021 -0.86614,5.410261 -0.03346,0.372039 -0.05376,0.874694 -0.05932,1.269511 -0.0024,0.170045 -0.06698,0.666493 0,0.51018 0.03366,-0.07855 0.04194,-0.315085 0.04746,-0.4034"
       id="path4154" /><path
       style="font-variation-settings:normal;opacity:1;vector-effect:none;fill:none;fill-opacity:1;stroke:#000000;stroke-width:0.264583px;stroke-linecap:round;stroke-linejoin:round;stroke-miterlimit:4;stroke-dasharray:none;stroke-dashoffset:0;stroke-opacity:1;-inkscape-stroke:none;stop-color:#000000;stop-opacity:1"
       d="m 28.382306,41.5341 c 1.149604,-0.12029 1.952382,-0.267967 3.025564,-0.70001"
       id="path4156" /><path
       style="font-variation-settings:normal;opacity:1;vector-effect:none;fill:none;fill-opacity:1;stroke:#000000;stroke-width:0.264583px;stroke-linecap:round;stroke-linejoin:round;stroke-miterlimit:4;stroke-dasharray:none;stroke-dashoffset:0;stroke-opacity:1;-inkscape-stroke:none;stop-color:#000000;stop-opacity:1"
       d="m 32.713006,39.706949 c -0.31192,0.926152 -0.359875,1.858049 -0.391536,2.823778 -0.0044,0.134393 0,0.268931 0,0.403397 0,0.03164 -0.0053,0.126109 0,0.09492 0.04082,-0.240419 0.07118,-0.482494 0.106776,-0.723741"
       id="path4158" /><path
       style="font-variation-settings:normal;opacity:1;vector-effect:none;fill:none;fill-opacity:1;stroke:#000000;stroke-width:0.264583px;stroke-linecap:round;stroke-linejoin:round;stroke-miterlimit:4;stroke-dasharray:none;stroke-dashoffset:0;stroke-opacity:1;-inkscape-stroke:none;stop-color:#000000;stop-opacity:1"
       d="m 33.816451,40.857817 c 0.706694,0.299802 0.728152,0.534776 1.364461,0.07119 0.825355,-0.601316 0.13589,-2.26704 -0.877998,-0.818658 -0.627335,0.896176 -0.538684,0.595382 -0.462735,1.744097 0.0155,0.234537 0.06311,0.5945 0.261024,0.771199 0.239036,0.213421 1.15801,0.600059 1.459394,0.237294 0.274979,-0.330983 0.357931,-0.635772 0.486463,-1.008493"
       id="path4164" /><path
       style="font-variation-settings:normal;opacity:1;vector-effect:none;fill:none;fill-opacity:1;stroke:#000000;stroke-width:0.264583px;stroke-linecap:round;stroke-linejoin:round;stroke-miterlimit:4;stroke-dasharray:none;stroke-dashoffset:0;stroke-opacity:1;-inkscape-stroke:none;stop-color:#000000;stop-opacity:1"
       d="m 37.708149,36.788258 c -0.207391,1.860103 -0.704355,3.674068 -0.878009,5.540772 -0.01577,0.169511 -0.02373,0.339934 -0.02373,0.510175 0,0.07949 -0.01505,0.306687 0.02373,0.237294 0.109222,-0.195447 0.134469,-0.427124 0.201702,-0.640688"
       id="path4166" /><path
       style="font-variation-settings:normal;opacity:1;vector-effect:none;fill:none;fill-opacity:1;stroke:#000000;stroke-width:0.264583px;stroke-linecap:round;stroke-linejoin:round;stroke-miterlimit:4;stroke-dasharray:none;stroke-dashoffset:0;stroke-opacity:1;-inkscape-stroke:none;stop-color:#000000;stop-opacity:1"
       d="m 39.274318,41.403587 c -0.09887,-0.395486 -0.163515,-0.801143 -0.296627,-1.186458 -0.113792,-0.329388 -0.494342,-0.02508 -0.581379,0.10678 -0.21222,0.321533 -0.889365,2.461202 -0.201703,2.657674 0.255656,0.07304 0.640474,-0.546487 0.771224,-0.830522 0.694634,-1.509001 1.00576,-3.245498 1.364469,-4.828895 0.02991,-0.132048 0.04157,-0.538665 0.04745,-0.403399 0.05832,1.34198 -0.356751,2.958269 -0.415271,4.354314 -0.01275,0.304284 -0.05044,0.611476 -0.01188,0.913574 0.165939,1.299795 0.860671,0.888469 1.29328,0.05932 0.185487,-0.355508 0.300578,-0.743517 0.450866,-1.115272"
       id="path4168" /><path
       style="font-variation-settings:normal;opacity:1;vector-effect:none;fill:none;fill-opacity:1;stroke:#000000;stroke-width:0.264583px;stroke-linecap:round;stroke-linejoin:round;stroke-miterlimit:4;stroke-dasharray:none;stroke-dashoffset:0;stroke-opacity:1;-inkscape-stroke:none;stop-color:#000000;stop-opacity:1"
       d="m 43.498238,39.540849 c 0.209616,-0.0039 0.632798,0.197749 0.628843,-0.01185 -0.0039,-0.209613 -0.430226,-0.05525 -0.628843,0.01185 -0.388803,0.131384 -0.752139,0.338822 -1.091576,0.569499 -0.09072,0.06165 -0.190955,0.455187 -0.201702,0.545772 -0.125887,1.060956 0.94571,0.930005 0.972923,1.637316 0.02668,0.693343 -1.532184,0.412292 -1.839063,0.201697 -0.08811,-0.06046 -0.134475,-0.166103 -0.201711,-0.249155"
       id="path4172" /><path
       style="font-variation-settings:normal;opacity:1;vector-effect:none;fill:none;fill-opacity:1;stroke:#000000;stroke-width:0.264583px;stroke-linecap:round;stroke-linejoin:round;stroke-miterlimit:4;stroke-dasharray:none;stroke-dashoffset:0;stroke-opacity:1;-inkscape-stroke:none;stop-color:#000000;stop-opacity:1"
       d="m 129.10143,31.787193 c -0.0474,-0.300569 -0.0476,-0.61256 -0.14237,-0.901707 -0.0843,-0.257191 -0.57175,-1.075182 -0.98479,-0.759335 -0.58111,0.444365 -0.95552,2.899081 -0.46274,3.47633 0.14483,0.169648 0.42348,-0.209598 0.53393,-0.403397 0.23566,-0.413515 0.66458,-1.655514 0.77122,-1.95766 0.0678,-0.192237 0.12791,-0.387142 0.18983,-0.581367 0.0251,-0.07868 -0.0103,-0.250867 0.0712,-0.237292 0.0819,0.01365 -0.001,0.166117 0,0.249156 0.007,0.371785 0.0237,0.74343 0.0237,1.115272 0,0.336257 -0.0632,0.674555 -0.0237,1.008491 0.0727,0.615953 0.65019,0.995807 1.12718,0.462722 0.87766,-0.980897 1.64695,-3.144271 2.05263,-4.366176 0.26058,-0.784852 0.47793,-2.111729 0,-1.744097 -0.80741,0.621073 -1.15421,1.997161 -1.43566,2.906832 -0.32704,1.057024 -0.79069,2.442375 -0.36781,3.535652 0.40127,1.037402 1.37612,0.357352 1.86279,-0.177972 0.53674,-0.590394 0.75664,-1.529022 0.99666,-2.242408"
       id="path4174" /><path
       style="font-variation-settings:normal;opacity:1;vector-effect:none;fill:none;fill-opacity:1;stroke:#000000;stroke-width:0.264583px;stroke-linecap:round;stroke-linejoin:round;stroke-miterlimit:4;stroke-dasharray:none;stroke-dashoffset:0;stroke-opacity:1;-inkscape-stroke:none;stop-color:#000000;stop-opacity:1"
       d="m 134.95085,31.087184 c -0.10283,-0.336164 -0.15386,-0.692789 -0.30849,-1.008492 -0.21063,-0.430009 -0.71813,0.0381 -0.81868,0.237293 -0.35937,0.711939 -0.64495,1.7897 -0.45087,2.598349 0.40022,1.667507 1.30619,-0.122195 1.44752,-0.723741 0.0847,-0.36055 -0.0666,-1.416973 0.13052,-1.103409 0.7903,1.257261 0.52348,5.377051 -0.84241,6.323834 -0.98967,0.686006 -1.51119,-0.925156 -1.50685,-1.601722 0.002,-0.347887 0.10283,-0.688146 0.15425,-1.032221"
       id="path4176" /><path
       style="font-variation-settings:normal;opacity:1;vector-effect:none;fill:none;fill-opacity:1;stroke:#000000;stroke-width:0.264583px;stroke-linecap:round;stroke-linejoin:round;stroke-miterlimit:4;stroke-dasharray:none;stroke-dashoffset:0;stroke-opacity:1;-inkscape-stroke:none;stop-color:#000000;stop-opacity:1"
       d="m 136.8967,31.466852 c 0.23334,0.05932 0.476,0.266147 0.70003,0.177966 0.40363,-0.158871 0.68037,-1.24412 0.48647,-1.625448 -0.13412,-0.263748 -0.42222,-0.346396 -0.62885,-0.118648 -0.28173,0.310538 -0.54811,0.645328 -0.73562,1.020355 -0.33465,0.669269 -1.03118,3.530283 0.72376,2.835643 0.21442,-0.08488 0.42527,-0.197932 0.59324,-0.355939 0.62259,-0.585631 0.68926,-0.753578 1.00852,-1.316969"
       id="path4178" /><path
       style="font-variation-settings:normal;opacity:1;vector-effect:none;fill:none;fill-opacity:1;stroke:#000000;stroke-width:0.264583px;stroke-linecap:round;stroke-linejoin:round;stroke-miterlimit:4;stroke-dasharray:none;stroke-dashoffset:0;stroke-opacity:1;-inkscape-stroke:none;stop-color:#000000;stop-opacity:1"
       d="m 139.8748,27.029489 c -0.19194,1.895836 -0.66225,3.7429 -1.11531,5.588231 -0.0611,0.248733 -0.1221,0.497515 -0.17797,0.747467 -0.0193,0.0863 -0.12957,0.293867 -0.0475,0.261024 0.10844,-0.04337 0.11089,-0.205575 0.16611,-0.308483 0.1188,-0.221392 0.22514,-0.4499 0.35595,-0.664419 0.25412,-0.416755 0.70347,-1.128514 1.1509,-1.400024 0.70861,-0.429999 1.14986,-0.234269 1.03224,0.557639 -0.0773,0.520295 -0.4187,1.286875 -0.93732,1.494941 -0.71726,0.287752 -1.28789,0.129122 -1.61364,-0.450853 -0.0761,-0.135493 -0.14505,-0.297715 -0.11864,-0.450858 0.037,-0.214392 0.19774,-0.387578 0.29661,-0.581366"
       id="path4180" /><path
       style="font-variation-settings:normal;opacity:1;vector-effect:none;fill:none;fill-opacity:1;stroke:#000000;stroke-width:0.264583px;stroke-linecap:round;stroke-linejoin:round;stroke-miterlimit:4;stroke-dasharray:none;stroke-dashoffset:0;stroke-opacity:1;-inkscape-stroke:none;stop-color:#000000;stop-opacity:1"
       d="m 142.3427,31.110911 c -0.17737,1.46959 -0.0605,0.981746 -0.32035,1.993256 -0.058,0.225772 -0.11486,0.451888 -0.17797,0.676283 -0.008,0.02899 -0.0356,0.113168 -0.0356,0.08305 0,-0.607491 0.48847,-1.141589 0.56951,-1.720365 0.0477,-0.340953 -0.25154,-0.764085 -0.0356,-1.032224 0.0626,-0.07775 1.37557,-0.477091 1.74415,-0.391532 0.17278,0.04011 1.19256,0.281884 0.81868,-0.01186 -1.14388,-0.898723 -2.24099,2.25936 -1.60176,2.989883 0.26728,0.305456 0.60638,-0.208405 0.79494,-0.616961 0.26312,-0.570077 0.41492,-1.185228 0.61698,-1.779693 0.003,-0.0089 0.21934,-0.769924 0.33222,-0.913575 0.0244,-0.0311 0.001,0.07912 0,0.118649 -0.004,0.129643 -0.019,0.362998 -0.0356,0.486448 -0.10407,0.773046 -0.47928,2.014217 0.2373,2.633945 0.57645,0.498547 0.8205,-0.814083 0.90173,-1.139004"
       id="path4182" /><path
       style="font-variation-settings:normal;opacity:1;vector-effect:none;fill:none;fill-opacity:1;stroke:#000000;stroke-width:0.264583px;stroke-linecap:round;stroke-linejoin:round;stroke-miterlimit:4;stroke-dasharray:none;stroke-dashoffset:0;stroke-opacity:1;-inkscape-stroke:none;stop-color:#000000;stop-opacity:1"
       d="m 147.30225,30.517682 c -0.0396,0.249158 -0.0705,0.499834 -0.11866,0.747472 -0.15075,0.775272 -0.33159,1.542786 -0.45086,2.325463 -0.0265,0.17362 -0.0602,0.34676 -0.0712,0.522042 -0.001,0.01974 0.0318,0.06687 0.0356,0.04746 0.0619,-0.317867 0.0949,-0.640691 0.14238,-0.961035"
       id="path4184" /><path
       style="font-variation-settings:normal;opacity:1;vector-effect:none;fill:none;fill-opacity:1;stroke:#000000;stroke-width:0.264583px;stroke-linecap:round;stroke-linejoin:round;stroke-miterlimit:4;stroke-dasharray:none;stroke-dashoffset:0;stroke-opacity:1;-inkscape-stroke:none;stop-color:#000000;stop-opacity:1"
       d="m 150.37527,31.217696 c -0.32036,-0.110737 -0.62532,-0.285722 -0.96107,-0.33221 -1.06917,-0.148036 -1.28141,1.152429 -1.28141,1.898337 0,0.433533 -0.0504,1.183569 0.33222,1.56613 0.29291,0.292907 0.71542,0.215511 1.02038,-0.01188 0.51973,-0.387504 0.75799,-0.804738 1.09158,-1.305105"
       id="path4186" /><path
       style="font-variation-settings:normal;opacity:1;vector-effect:none;fill:none;fill-opacity:1;stroke:#000000;stroke-width:0.264583px;stroke-linecap:round;stroke-linejoin:round;stroke-miterlimit:4;stroke-dasharray:none;stroke-dashoffset:0;stroke-opacity:1;-inkscape-stroke:none;stop-color:#000000;stop-opacity:1"
       d="m 130.0269,39.772075 c -0.2373,-0.209608 -0.44012,-0.466387 -0.7119,-0.628822 -0.25823,-0.154342 -0.70291,0.262509 -0.78308,0.3678 -0.81547,1.07102 -0.57397,3.86421 1.34074,3.001748 0.45455,-0.204751 0.79682,-0.748311 1.07971,-1.103411"
       id="path4188" /><path
       style="font-variation-settings:normal;opacity:1;vector-effect:none;fill:none;fill-opacity:1;stroke:#000000;stroke-width:0.264583px;stroke-linecap:round;stroke-linejoin:round;stroke-miterlimit:4;stroke-dasharray:none;stroke-dashoffset:0;stroke-opacity:1;-inkscape-stroke:none;stop-color:#000000;stop-opacity:1"
       d="m 131.43883,39.653428 c -0.17567,0.978482 -0.40976,2.248865 0.17797,3.155987 0.19135,0.29533 0.47917,-0.141023 0.60512,-0.415264 0.39881,-0.86836 0.48706,-1.57475 0.67629,-2.515296 0.0413,-0.205308 0.0861,-0.410077 0.11865,-0.61696 0.0111,-0.07043 0.0623,-0.163156 0.0119,-0.213561 -0.0479,-0.04786 -0.0153,0.134524 -0.0237,0.201697 -0.0232,0.185941 -0.0517,0.371263 -0.0712,0.557638 -0.0498,0.476827 -0.33933,2.754971 0.10678,2.978015 0.54267,0.271325 0.93749,-1.763392 0.97292,-1.910199"
       id="path4192" /><path
       style="font-variation-settings:normal;opacity:1;vector-effect:none;fill:none;fill-opacity:1;stroke:#000000;stroke-width:0.264583px;stroke-linecap:round;stroke-linejoin:round;stroke-miterlimit:4;stroke-dasharray:none;stroke-dashoffset:0;stroke-opacity:1;-inkscape-stroke:none;stop-color:#000000;stop-opacity:1"
       d="m 134.33387,39.617836 c 0.24178,0.982673 0.10693,1.995596 0.17797,2.989882 8e-4,0.01048 0.055,-0.531578 0.0593,-0.569503 0.0738,-0.650502 0.0813,-1.776232 0.7119,-2.183085 0.13586,-0.08766 0.27807,-0.06952 0.42714,-0.106786 0.0849,-0.02125 0.16869,-0.04856 0.24916,-0.08305 0.0465,-0.01995 0.068,-0.09492 0.11865,-0.09492 0.0862,0 0.002,3.276827 0.37967,3.547514 0.75119,0.53888 0.76169,-2.87193 0.83055,-3.155981 0.0346,-0.142759 0.8581,0.852971 1.03225,0.866116 0.29778,0.02246 0.6193,-0.02883 0.87801,-0.177972 0.29816,-0.171876 0.12053,-0.94392 -0.0475,-1.139002 -0.1751,-0.20334 -0.39234,-0.138629 -0.49833,0.142375 -0.33056,0.876342 -0.53907,2.512626 0.15425,3.298362 0.67043,0.759801 1.83093,-1.767182 1.96957,-2.040716"
       id="path4194" /><path
       style="font-variation-settings:normal;opacity:1;vector-effect:none;fill:none;fill-opacity:1;stroke:#000000;stroke-width:0.264583px;stroke-linecap:round;stroke-linejoin:round;stroke-miterlimit:4;stroke-dasharray:none;stroke-dashoffset:0;stroke-opacity:1;-inkscape-stroke:none;stop-color:#000000;stop-opacity:1"
       d="m 143.01901,39.178847 c -0.21357,-0.110736 -0.40015,-0.329729 -0.64071,-0.332211 -0.70175,-0.0072 -0.98739,1.148176 -0.81868,1.661044 0.14994,0.455808 1.1478,0.846063 0.88986,1.435618 -0.30765,0.703194 -1.63223,0.798153 -2.2306,0.462717 -0.20923,-0.11729 -0.25958,-0.267774 -0.34408,-0.450853"
       id="path4196" /><path
       style="font-variation-settings:normal;opacity:1;vector-effect:none;fill:none;fill-opacity:1;stroke:#000000;stroke-width:0.264583px;stroke-linecap:round;stroke-linejoin:round;stroke-miterlimit:4;stroke-dasharray:none;stroke-dashoffset:0;stroke-opacity:1;-inkscape-stroke:none;stop-color:#000000;stop-opacity:1"
       d="m 66.905498,25.158694 c -0.477632,0.879838 -0.609958,1.877195 -0.854271,2.835642 -0.07155,0.280703 -0.09417,0.578459 -0.213572,0.842385 -0.07276,0.160841 -0.01543,-0.310771 0.02373,-0.676282"
       id="path4202" /><path
       style="font-variation-settings:normal;opacity:1;vector-effect:none;fill:none;fill-opacity:1;stroke:#000000;stroke-width:0.264583px;stroke-linecap:round;stroke-linejoin:round;stroke-miterlimit:4;stroke-dasharray:none;stroke-dashoffset:0;stroke-opacity:1;-inkscape-stroke:none;stop-color:#000000;stop-opacity:1"
       d="m 65.196945,25.657006 c -0.781724,-2.569431 3.552111,-3.271876 3.773054,-0.640687 0.140848,1.677363 -1.055862,4.37797 -3.108616,4.20007 -0.29659,-0.0257 -0.608888,-0.111972 -0.842412,-0.296614 -0.299064,-0.236463 -0.458777,-0.60905 -0.688163,-0.913575"
       id="path4204" /><path
       style="font-variation-settings:normal;opacity:1;vector-effect:none;fill:none;fill-opacity:1;stroke:#000000;stroke-width:0.264583px;stroke-linecap:round;stroke-linejoin:round;stroke-miterlimit:4;stroke-dasharray:none;stroke-dashoffset:0;stroke-opacity:1;-inkscape-stroke:none;stop-color:#000000;stop-opacity:1"
       d="m 69.800542,26.712957 c 0.620284,-0.04771 0.907608,0.132132 1.222089,-0.3678 0.555323,-0.882793 -0.669642,-0.832911 -0.996659,-0.296619 -0.121758,0.199678 -0.149937,0.443064 -0.22543,0.664419 -0.233963,0.686017 -0.783796,2.035209 -0.308486,2.313598 0.925851,0.54227 1.750772,-0.653768 2.21874,-1.269511"
       id="path4206" /><path
       style="font-variation-settings:normal;opacity:1;vector-effect:none;fill:none;fill-opacity:1;stroke:#000000;stroke-width:0.264583px;stroke-linecap:round;stroke-linejoin:round;stroke-miterlimit:4;stroke-dasharray:none;stroke-dashoffset:0;stroke-opacity:1;-inkscape-stroke:none;stop-color:#000000;stop-opacity:1"
       d="m 73.454943,27.436698 c -0.03164,-0.225428 -0.03336,-0.457128 -0.09492,-0.676283 -0.09904,-0.352598 -0.779415,-1.072176 -1.162767,-0.61696 -0.39823,0.472884 -0.547918,1.229695 -0.581377,1.82715 -0.03772,0.673456 0.0098,1.076192 0.237297,0.94917 1.120992,-0.625993 2.149141,-3.764931 2.539095,-4.710248 0.07396,-0.179295 0.305826,-0.709403 0.201702,-0.545773 -0.687594,1.080539 -1.163912,3.351804 -1.23395,4.567875 -0.01376,0.238995 -0.06703,0.535577 0.09492,0.711873 1.185791,1.290826 2.223704,-1.249904 2.325523,-2.064438 0.01572,-0.125824 0.101471,-0.399788 -0.02373,-0.379668 -0.782084,0.125687 -1.619287,2.47964 -1.245817,3.096661 0.28075,0.463834 0.727398,0.435704 1.127162,0.166103 0.341027,-0.229988 0.614712,-0.54775 0.901735,-0.842385 0.160776,-0.16504 0.292671,-0.355938 0.43901,-0.533907"
       id="path4208" /><path
       style="font-variation-settings:normal;opacity:1;vector-effect:none;fill:none;fill-opacity:1;stroke:#000000;stroke-width:0.264583px;stroke-linecap:round;stroke-linejoin:round;stroke-miterlimit:4;stroke-dasharray:none;stroke-dashoffset:0;stroke-opacity:1;-inkscape-stroke:none;stop-color:#000000;stop-opacity:1"
       d="m 78.367025,27.685854 c -0.05898,-0.398292 0.0318,-1.298678 -0.379677,-1.64918 -0.100081,-0.08525 -0.234193,0.151533 -0.28476,0.272888 -0.08555,0.205311 -0.839312,3.012927 -0.213569,2.942422 0.736126,-0.08294 0.720947,-1.175544 0.878006,-1.56613 0.123508,-0.30715 1.859664,-3.487588 1.518708,-4.283122 -0.02424,-0.05655 -0.09871,0.07784 -0.130511,0.130512 -0.09599,0.15898 -0.180707,0.32568 -0.249166,0.498312 -0.113874,0.287156 -0.211023,0.581167 -0.296619,0.877982 -0.159745,0.553943 -0.271613,1.121227 -0.439007,1.672907 -0.113707,0.374742 -0.351647,0.715231 -0.403405,1.103409 -0.03815,0.286146 0.08081,0.572217 0.14238,0.854253 0.092,0.421423 0.201084,1.265903 0.889866,1.032219 0.5974,-0.20268 0.871857,-1.407183 0.984792,-1.64918"
       id="path4210" /><path
       style="font-variation-settings:normal;opacity:1;vector-effect:none;fill:none;fill-opacity:1;stroke:#000000;stroke-width:0.264583px;stroke-linecap:round;stroke-linejoin:round;stroke-miterlimit:4;stroke-dasharray:none;stroke-dashoffset:0;stroke-opacity:1;-inkscape-stroke:none;stop-color:#000000;stop-opacity:1"
       d="m 81.34512,26.653635 c -0.380638,0.776314 -0.656625,1.600389 -0.842402,2.44411 -0.04321,0.196221 -0.06894,0.395905 -0.106786,0.593229 -0.01754,0.09142 -0.08736,0.361654 -0.05933,0.272888 0.15658,-0.495821 0.218107,-0.7938 0.332221,-1.28138"
       id="path4212" /><path
       style="font-variation-settings:normal;opacity:1;vector-effect:none;fill:none;fill-opacity:1;stroke:#000000;stroke-width:0.264583px;stroke-linecap:round;stroke-linejoin:round;stroke-miterlimit:4;stroke-dasharray:none;stroke-dashoffset:0;stroke-opacity:1;-inkscape-stroke:none;stop-color:#000000;stop-opacity:1"
       d="m 82.187532,26.499396 c -0.05537,0.26893 -0.117417,0.536571 -0.166108,0.80679 -0.08708,0.483291 -0.133835,0.972987 -0.2017,1.45935 -0.04027,0.288606 -0.118655,0.574714 -0.118655,0.866116 0,0.243573 0.272724,-0.404337 0.391546,-0.61696 0.07041,-0.125994 0.804532,-1.822231 1.328875,-2.040711 0.256151,-0.106732 -0.06551,2.18956 -0.07119,2.30173 -0.0029,0.05655 -0.0019,0.208658 0.03559,0.166107 0.167376,-0.190615 0.26103,-0.435037 0.391546,-0.652555"
       id="path4214" /><path
       style="font-variation-settings:normal;opacity:1;vector-effect:none;fill:none;fill-opacity:1;stroke:#000000;stroke-width:0.264583px;stroke-linecap:round;stroke-linejoin:round;stroke-miterlimit:4;stroke-dasharray:none;stroke-dashoffset:0;stroke-opacity:1;-inkscape-stroke:none;stop-color:#000000;stop-opacity:1"
       d="m 86.091096,27.74518 c -0.05933,-0.229383 -0.08153,-0.471738 -0.177974,-0.68815 -0.05913,-0.132691 -0.333338,-0.470669 -0.510188,-0.569498 -0.897486,-0.501529 -1.202979,1.697398 -1.210223,2.135628 -0.0041,0.249905 -0.12673,0.580572 0.05932,0.747468 0.696632,0.624909 1.36657,-0.905911 1.435658,-1.044082 0.305459,-0.610896 0.552501,-1.251302 0.771224,-1.89834 0.256601,-0.759092 0.446489,-1.539261 0.652568,-2.313596 0.05506,-0.206874 0.08946,-0.418723 0.130514,-0.628824 0.03467,-0.177405 0.222731,-0.661723 0.09492,-0.533907 -0.323955,0.323955 -0.55413,1.656566 -0.676296,2.111898 -0.396872,1.479207 -0.751723,3.008662 -0.664437,4.556007 0.01243,0.220419 0.302294,0.747564 0.652568,0.415263 0.389641,-0.369647 0.64071,-0.862162 0.961065,-1.293243"
       id="path4220" /><path
       style="font-variation-settings:normal;opacity:1;vector-effect:none;fill:none;fill-opacity:1;stroke:#000000;stroke-width:0.264583px;stroke-linecap:round;stroke-linejoin:round;stroke-miterlimit:4;stroke-dasharray:none;stroke-dashoffset:0;stroke-opacity:1;-inkscape-stroke:none;stop-color:#000000;stop-opacity:1"
       d="m 92.664267,27.579073 c -0.02373,-0.205653 -0.01754,-0.417013 -0.07119,-0.61696 -0.0571,-0.212834 -0.61722,-1.105482 -0.925462,-0.735605 -0.405551,0.486647 -0.637453,2.116281 -0.510188,2.752589 0.02811,0.140523 0.05927,0.395493 0.201702,0.379668 1.034931,-0.11499 1.983412,-3.676104 2.43231,-5.054321 0.148894,-0.457138 0.264411,-0.9245 0.391546,-1.38816 0.0074,-0.02697 0.03309,-0.10125 0.01185,-0.08305 -0.357994,0.306831 -0.310163,0.89069 -0.450868,1.340699 -0.355344,1.136482 -0.886397,2.230198 -1.079709,3.405141 -0.05477,0.332898 0.31728,2.137926 1.186494,1.364429 0.302369,-0.269072 0.450872,-0.672325 0.676307,-1.008488"
       id="path4222" /><path
       style="font-variation-settings:normal;opacity:1;vector-effect:none;fill:none;fill-opacity:1;stroke:#000000;stroke-width:0.264583px;stroke-linecap:round;stroke-linejoin:round;stroke-miterlimit:4;stroke-dasharray:none;stroke-dashoffset:0;stroke-opacity:1;-inkscape-stroke:none;stop-color:#000000;stop-opacity:1"
       d="m 95.322017,26.143455 c -0.538594,0.857696 -1.014479,1.962408 -0.735629,3.001749 0.02786,0.103852 0.269277,0.679101 0.569521,0.415258 0.85453,-0.750923 1.279805,-1.971382 1.257684,-3.084798 -0.0063,-0.318321 -0.03542,-0.638882 -0.106784,-0.949165 -0.01799,-0.07823 -0.164742,-0.352221 -0.320354,-0.225429 -0.07738,0.06305 -0.104291,0.170784 -0.166108,0.249156 -0.159936,0.202769 -0.470964,0.336429 -0.49833,0.593229 -2.6e-5,2.52e-4 0.160316,1.023888 0.593246,0.937306 0.541692,-0.108333 0.991235,-1.083284 1.233959,-1.435618 0.150963,-0.21914 0.267649,-0.353243 0.272891,-0.344073 0.166888,0.292029 -0.299741,2.602856 -0.355949,3.072934 -0.01609,0.134435 -0.09148,0.275356 -0.04746,0.403395 0.138875,0.403989 1.227836,-2.023571 1.245825,-2.052579 0.161375,-0.260212 0.338907,-0.511408 0.533916,-0.747468 0.0338,-0.04091 0.139816,-0.12419 0.14238,-0.07119 0.02217,0.458221 -0.189957,1.088137 -0.28476,1.530536 -0.0785,0.366313 -0.149731,0.734259 -0.213569,1.103409 -0.03238,0.187219 -0.164621,0.696973 -0.02373,0.569502 0.478517,-0.432933 1.315426,-2.8304 2.028904,-2.978018 0.49735,-0.1029 -1.215078,4.367325 -0.0119,2.527164"
       id="path4224" /><path
       style="font-variation-settings:normal;opacity:1;vector-effect:none;fill:none;fill-opacity:1;stroke:#000000;stroke-width:0.264583px;stroke-linecap:round;stroke-linejoin:round;stroke-miterlimit:4;stroke-dasharray:none;stroke-dashoffset:0;stroke-opacity:1;-inkscape-stroke:none;stop-color:#000000;stop-opacity:1"
       d="m 102.33419,26.772279 c -0.0751,-0.205652 -0.1003,-0.437286 -0.22544,-0.616956 -0.1344,-0.192987 -0.49947,0.06967 -0.66443,0.237292 -0.47613,0.483793 -0.71187,1.30909 -0.80682,1.945794 -0.0699,0.468982 0.099,0.998367 0.59325,0.296615 0.41557,-0.590024 0.64079,-1.308876 1.10344,-1.862745 0.19089,-0.228513 -0.20333,0.562149 -0.26103,0.854253 -0.0175,0.08851 -0.33969,1.62051 -0.0237,1.862745 0.47677,0.36551 1.29083,-1.384468 1.48311,-1.779692"
       id="path4226" /><path
       style="font-variation-settings:normal;opacity:1;vector-effect:none;fill:none;fill-opacity:1;stroke:#000000;stroke-width:0.264583px;stroke-linecap:round;stroke-linejoin:round;stroke-miterlimit:4;stroke-dasharray:none;stroke-dashoffset:0;stroke-opacity:1;-inkscape-stroke:none;stop-color:#000000;stop-opacity:1"
       d="m 104.10207,26.380747 c -0.15435,1.017124 -0.75201,1.972113 -0.80682,3.013613 -0.0103,0.196084 0.12656,-0.371759 0.18984,-0.557639"
       id="path4228" /><path
       style="font-variation-settings:normal;opacity:1;vector-effect:none;fill:none;fill-opacity:1;stroke:#000000;stroke-width:0.264583px;stroke-linecap:round;stroke-linejoin:round;stroke-miterlimit:4;stroke-dasharray:none;stroke-dashoffset:0;stroke-opacity:1;-inkscape-stroke:none;stop-color:#000000;stop-opacity:1"
       d="m 105.06313,23.011201 c -0.0514,0.205653 -0.10283,0.411307 -0.15424,0.61696"
       id="path4230" /><path
       style="font-variation-settings:normal;opacity:1;vector-effect:none;fill:none;fill-opacity:1;stroke:#000000;stroke-width:0.264583px;stroke-linecap:round;stroke-linejoin:round;stroke-miterlimit:4;stroke-dasharray:none;stroke-dashoffset:0;stroke-opacity:1;-inkscape-stroke:none;stop-color:#000000;stop-opacity:1"
       d="m 105.075,25.775655 c -0.17615,1.350394 -0.0245,0.288744 -0.24917,1.613584 -0.0697,0.410899 -0.13318,0.822826 -0.2017,1.233921 -0.0224,0.134685 -0.0444,0.269504 -0.0712,0.403395 -0.009,0.04422 -0.0597,0.168638 -0.0356,0.130512 0.40393,-0.639531 0.83188,-2.217894 1.51871,-2.550891 0.14168,-0.06869 0.0971,0.305283 0.0949,0.462722 -0.01,0.711074 -0.0513,0.65726 -0.17798,1.530531 -0.0562,0.38758 -0.32427,1.516103 0.2729,0.355941 0.0551,-0.107121 0.0949,-0.221473 0.14238,-0.33221"
       id="path4232" /><path
       style="font-variation-settings:normal;opacity:1;vector-effect:none;fill:none;fill-opacity:1;stroke:#000000;stroke-width:0.264583px;stroke-linecap:round;stroke-linejoin:round;stroke-miterlimit:4;stroke-dasharray:none;stroke-dashoffset:0;stroke-opacity:1;-inkscape-stroke:none;stop-color:#000000;stop-opacity:1"
       d="m 108.76499,26.712957 c -0.3599,0.04746 -0.73948,0.01578 -1.07971,0.142375 -0.19402,0.07219 -0.35739,0.24241 -0.45087,0.427127 -0.50904,1.005937 1.11936,1.132972 1.4238,1.684774 0.33666,0.610206 -1.40515,0.427093 -1.72042,0.33221 -0.3245,-0.09766 -0.46564,-0.212254 -0.70003,-0.379668"
       id="path4234" /><path
       d="m 94.470829,32.728489 c -2.075844,0.751686 -2.240121,0.836312 -2.454178,1.279358 -0.09956,0.199128 -0.109509,0.283747 -0.08463,0.622255 0.0249,0.393265 0.0249,0.393265 -0.104547,0.428111 -0.238947,0.05974 -0.721817,-0.06472 -1.573062,-0.403221 -1.115083,-0.443045 -1.543194,-0.547585 -2.269989,-0.547585 -0.706883,0 -1.090192,0.0896 -1.777162,0.423133 l -0.50776,0.243926 -0.318595,-0.174231 c -0.985652,-0.542606 -2.026064,-0.647145 -3.494589,-0.348462 -0.353439,0.06968 -0.881112,0.144373 -1.16984,0.159302 l -0.522693,0.02986 -0.06472,-0.243926 c -0.04481,-0.169247 -0.134405,-0.303659 -0.298682,-0.472913 -0.224013,-0.224013 -0.273793,-0.243924 -1.354028,-0.597365 -1.284337,-0.423134 -1.513327,-0.448024 -1.916548,-0.243926 -0.453001,0.23397 -0.413178,0.134406 -1.802052,4.410549 -1.139973,3.519477 -1.27438,3.962524 -1.279358,4.27614 -0.0049,0.298682 0.01497,0.38331 0.134406,0.58741 0.07467,0.129422 0.22899,0.293703 0.333529,0.363398 0.199127,0.134406 1.493412,0.582429 2.210251,0.771596 0.443047,0.119477 0.701904,0.08463 1.040412,-0.134406 0.164264,-0.109509 0.184177,-0.109509 0.184177,-0.03484 0,0.04977 -0.139389,0.363395 -0.308639,0.701903 -0.308639,0.607321 -0.313618,0.617278 -0.313618,1.020499 0.0049,0.333529 0.02986,0.45798 0.134405,0.68697 0.243926,0.532652 0.751686,0.881114 1.35403,0.925917 l 0.30366,0.0249 v 0.45798 c 0,0.398244 0.01989,0.48287 0.139389,0.71186 0.368375,0.701906 1.130017,1.045391 1.85681,0.836311 0.159302,-0.04481 0.343485,-0.114492 0.403223,-0.154318 0.09956,-0.06472 0.114493,-0.05476 0.209073,0.149335 0.323573,0.667059 1.19473,1.035434 1.901613,0.806444 0.139389,-0.04977 0.258857,-0.07965 0.263836,-0.06968 0.30366,0.667058 0.562519,0.97072 1.01552,1.19473 0.323574,0.159302 0.940852,0.159302 1.229578,0.0049 0.233967,-0.12446 0.50776,-0.403221 0.691948,-0.701904 l 0.129422,-0.209073 0.258859,0.129422 c 0.701903,0.358419 1.463545,0.12446 1.866766,-0.567498 0.104548,-0.174231 0.134406,-0.308639 0.154319,-0.607321 l 0.01989,-0.388288 0.268816,-0.03484 c 0.343485,-0.03983 0.8164,-0.278774 1.020501,-0.512741 0.238946,-0.268816 0.408198,-0.681993 0.43309,-1.045389 0.01989,-0.268815 0.03484,-0.308639 0.104547,-0.278772 0.04481,0.01989 0.248901,0.04481 0.453001,0.05974 0.522695,0.0249 0.871157,-0.10951 1.249489,-0.48287 0.328551,-0.328552 0.492826,-0.706883 0.492826,-1.134994 0,-0.263836 0.0049,-0.273793 0.114493,-0.243924 0.696926,0.20409 1.284337,-0.03983 1.632799,-0.677016 0.159302,-0.293703 0.169248,-0.348462 0.179215,-0.836311 0.0098,-0.50278 0.06968,-0.68697 0.134406,-0.423134 0.04481,0.179215 0.358418,0.507762 0.597365,0.632213 0.378331,0.194144 0.667057,0.149335 1.812007,-0.278771 1.159886,-0.433088 1.234556,-0.467937 1.408787,-0.662081 0.22899,-0.243923 0.313618,-0.462957 0.313618,-0.811419 0.0049,-0.303662 -0.08464,-0.567498 -1.438656,-4.206449 l -1.44358,-3.882821 -0.248903,-0.25388 c -0.363397,-0.378331 -0.776575,-0.462959 -1.304247,-0.273793 z m 0.801465,0.71186 c 0.09458,0.0896 0.462959,1.035435 1.543194,3.94759 0.781555,2.11069 1.423722,3.887854 1.423722,3.94759 0,0.258857 -0.134406,0.393264 -0.532652,0.547585 -1.85681,0.706881 -1.906592,0.721816 -2.150515,0.522693 -0.07965,-0.06472 -0.512739,-1.16984 -1.478479,-3.773356 -1.687559,-4.549934 -1.543194,-4.106888 -1.438656,-4.320944 0.09458,-0.20409 0,-0.154319 1.19473,-0.612299 1.030455,-0.393267 1.244512,-0.43309 1.438656,-0.258859 z m -17.089628,0.318595 c 0.552563,0.179215 1.050368,0.348463 1.105125,0.373355 0.04977,0.02986 0.12446,0.129422 0.164285,0.219033 0.08463,0.20409 0.159302,-0.05974 -1.368961,4.674383 -1.194732,3.69371 -1.16984,3.638951 -1.533237,3.633972 -0.104548,0 -0.627234,-0.144373 -1.159884,-0.318593 -1.050368,-0.343485 -1.244512,-0.45798 -1.244512,-0.731773 0,-0.194144 2.479067,-7.885223 2.583606,-7.999718 0.0896,-0.09956 0.233967,-0.169247 0.363398,-0.174231 0.04481,-0.0049 0.537629,0.144373 1.090191,0.323572 z m 6.03339,1.110104 c 0.298683,0.07965 0.731773,0.248903 0.821378,0.328552 0.01005,0.0098 -0.512739,0.537629 -1.164863,1.174817 -1.184775,1.16984 -1.687556,1.732361 -1.80703,2.026064 -0.09458,0.224013 -0.01497,0.388288 0.398244,0.801466 0.542606,0.542608 1.14495,0.801465 1.876723,0.801465 0.522695,0 1.005565,-0.114493 2.016107,-0.477891 1.085215,-0.388288 1.383897,-0.467936 1.762228,-0.467936 0.358419,0 0.527673,0.05475 0.930894,0.298682 0.164285,0.09956 0.960763,0.512739 1.762228,0.920937 2.036021,1.025478 2.862376,1.592974 3.081411,2.110693 0.164264,0.383308 0.04977,1.020498 -0.224013,1.269401 -0.05974,0.04977 -0.20411,0.104547 -0.328551,0.114493 -0.263836,0.02986 -0.194144,0.06472 -2.872332,-1.383897 -1.055345,-0.572475 -1.961349,-1.040411 -2.006152,-1.040411 -0.124459,0 -0.328551,0.224013 -0.328551,0.363396 0,0.06472 0.04977,0.164285 0.114493,0.219035 0.05974,0.05476 0.84129,0.497804 1.737338,0.980674 0.896047,0.487849 1.687558,0.94085 1.762228,1.015521 0.45798,0.453003 0.323572,1.274379 -0.248903,1.553151 -0.184177,0.08463 -0.293703,0.104547 -0.517716,0.0896 -0.25388,-0.01989 -0.45798,-0.114493 -2.055933,-0.975699 -1.025476,-0.552562 -1.826942,-0.955783 -1.90659,-0.955783 -0.25886,0 -0.418157,0.308639 -0.263837,0.517716 0.03484,0.04977 0.602342,0.373354 1.254466,0.726796 0.657104,0.353439 1.274381,0.70688 1.373941,0.791508 0.557541,0.462958 0.418156,1.334115 -0.263837,1.622843 -0.428111,0.174231 -0.453,0.164286 -2.648319,-1.010544 -0.970719,-0.517716 -1.060324,-0.537629 -1.224599,-0.243924 -0.06472,0.119477 -0.06472,0.149335 0,0.268814 0.04481,0.07467 0.159302,0.184176 0.258859,0.238946 l 0.174232,0.09956 h -0.383311 -0.388288 l -0.01989,-0.323573 c -0.02986,-0.413177 -0.174231,-0.731772 -0.448024,-1.005565 -0.353441,-0.353441 -0.627234,-0.462959 -1.174819,-0.462959 h -0.45798 V 44.72059 c 0,-0.25388 -0.199127,-0.677014 -0.428113,-0.910981 -0.338506,-0.348462 -0.696925,-0.497803 -1.199707,-0.492826 -0.408201,0 -0.413178,0 -0.413178,-0.12446 0,-0.219034 -0.268815,-0.716839 -0.522695,-0.970719 -0.343485,-0.338506 -0.602344,-0.443045 -1.095171,-0.443045 -0.438067,0 -0.716837,0.09458 -1.010542,0.333529 l -0.159302,0.139389 v -0.243923 c 0,-0.403224 0.109509,-0.781555 1.110104,-3.872921 l 0.96574,-2.986827 0.592388,-0.03484 c 0.323574,-0.01497 0.886093,-0.0896 1.239532,-0.159302 0.89605,-0.174231 0.836314,-0.164286 1.423722,-0.174231 0.378332,-0.0049 0.632211,0.0249 0.906004,0.0896 z m 4.689319,0.02986 c 0.164285,0.04481 0.667057,0.224011 1.12006,0.408198 1.020499,0.403221 1.443633,0.497806 1.891657,0.423134 0.174231,-0.02986 0.323572,-0.04977 0.328551,-0.04481 0.0049,0.0049 0.50776,1.34905 1.115082,2.986827 0.781552,2.100736 1.090191,2.996783 1.055345,3.031629 -0.03983,0.03983 -0.169248,-0.05475 -0.448024,-0.313616 -0.527673,-0.492826 -1.204686,-0.901026 -2.872332,-1.747294 -0.766619,-0.383308 -1.548171,-0.796488 -1.742315,-0.910983 -0.866181,-0.527673 -1.448612,-0.502783 -3.161058,0.114493 -1.159886,0.423134 -1.373941,0.472916 -1.941439,0.448026 -0.547585,-0.0249 -0.816398,-0.134406 -1.224599,-0.502783 -0.238946,-0.219034 -0.243923,-0.224013 -0.169247,-0.363398 0.114493,-0.224013 2.314792,-2.399418 2.77775,-2.742903 0.497805,-0.378331 1.214642,-0.73675 1.65271,-0.836312 0.403223,-0.0896 1.199709,-0.06472 1.617865,0.04977 z m -9.298989,7.676143 c 0.278772,0.20409 0.428113,0.448024 0.453003,0.731773 0.01989,0.263836 0.0049,0.303662 -0.388287,1.060324 -0.224013,0.433089 -0.467937,0.876135 -0.542606,0.985653 -0.25886,0.393265 -0.746709,0.527673 -1.17482,0.32855 -0.238946,-0.10951 -0.343485,-0.219034 -0.448023,-0.467935 -0.144373,-0.348464 -0.104548,-0.527672 0.283749,-1.264424 0.557539,-1.080235 0.68199,-1.259446 0.93587,-1.39883 0.273793,-0.144373 0.672037,-0.134406 0.881114,0.0249 z m 1.981262,1.503371 c 0.403223,0.179215 0.632213,0.622255 0.527672,1.020499 -0.07467,0.293703 -1.16486,2.31479 -1.354027,2.503955 -0.248901,0.253882 -0.637188,0.328552 -0.975696,0.18916 -0.393265,-0.164285 -0.582432,-0.487849 -0.552563,-0.91596 0.01989,-0.238946 0.09956,-0.428113 0.607322,-1.37394 0.323572,-0.602344 0.637188,-1.14993 0.696926,-1.214643 0.139389,-0.159302 0.462957,-0.303661 0.677014,-0.303661 0.09458,0 0.263836,0.04481 0.373352,0.09458 z m 2.080823,1.518303 c 0.219034,0.0896 0.472914,0.388287 0.512739,0.602344 0.06472,0.353441 -0.0049,0.577452 -0.43309,1.363984 -0.497804,0.91596 -0.637188,1.055345 -1.080235,1.090191 -0.622255,0.04481 -1.080237,-0.443047 -0.985653,-1.050368 0.02986,-0.174231 0.662081,-1.418743 0.886091,-1.742315 0.209073,-0.293703 0.726796,-0.423134 1.100148,-0.263836 z m 3.594148,1.896635 c 0.741729,0.398244 0.92094,0.786532 0.612301,1.309225 -0.18916,0.313618 -0.562519,0.393267 -0.950807,0.20409 l -0.224012,-0.10951 0.09458,-0.263834 c 0.109509,-0.313618 0.12446,-0.801467 0.0249,-1.035434 -0.03983,-0.09458 -0.154318,-0.263836 -0.263838,-0.383309 l -0.189161,-0.214056 0.273793,0.154318 c 0.149335,0.07965 0.43309,0.233967 0.622255,0.338506 z M 85.774184,47.4635 c 0.497806,0.288728 0.547585,0.582431 0.224013,1.279358 -0.398244,0.846268 -0.642168,1.115081 -1.020499,1.115081 -0.273793,0 -0.48287,-0.109509 -0.711862,-0.368375 -0.238944,-0.273793 -0.343485,-0.607321 -0.268813,-0.866178 0.06968,-0.23397 0.388287,-0.806445 0.542606,-0.975699 0.323574,-0.348462 0.8164,-0.423134 1.234555,-0.184176 z"
       id="path3893"
       style="fill:#000000;stroke:none;stroke-width:0.00497803" /><path
       style="font-variation-settings:normal;opacity:1;vector-effect:none;fill:none;fill-opacity:1;stroke:#000000;stroke-width:0.264583px;stroke-linecap:round;stroke-linejoin:round;stroke-miterlimit:4;stroke-dasharray:none;stroke-dashoffset:0;stroke-opacity:1;-inkscape-stroke:none;stop-color:#000000;stop-opacity:1"
       d="m 81.684817,25.215296 c 0.110435,-0.17426 0.249188,-0.335677 0.341985,-0.521259"
       id="path5185" /><path
       style="font-variation-settings:normal;opacity:1;vector-effect:none;fill:none;fill-opacity:1;stroke:#000000;stroke-width:0.264583px;stroke-linecap:round;stroke-linejoin:round;stroke-miterlimit:4;stroke-dasharray:none;stroke-dashoffset:0;stroke-opacity:1;-inkscape-stroke:none;stop-color:#000000;stop-opacity:1"
       d="m 32.906561,38.734862 c 0.0403,-0.124563 0.08909,-0.245936 0.142769,-0.365212"
       id="path5189" /><path
       style="font-variation-settings:normal;opacity:1;vector-effect:none;fill:none;fill-opacity:1;stroke:#000000;stroke-width:0.264583px;stroke-linecap:round;stroke-linejoin:round;stroke-miterlimit:4;stroke-dasharray:none;stroke-dashoffset:0;stroke-opacity:1;-inkscape-stroke:none;stop-color:#000000;stop-opacity:1"
       d="m 147.49587,29.407564 c 0.10136,-0.137009 0.1702,-0.309547 0.30643,-0.418526"
       id="path5191" /></g></svg>
