<?xml version="1.0" encoding="UTF-8" standalone="no"?>
<!-- Created with Inkscape (http://www.inkscape.org/) -->

<svg
   width="658.56616"
   height="591.89789"
   viewBox="0 0 174.24563 156.60632"
   version="1.1"
   id="svg1083"
   sodipodi:docname="/tmp/ink_ext_XXXXXX.svg717411"
   inkscape:export-filename="SpecParabola.svg"
   inkscape:export-xdpi="96"
   inkscape:export-ydpi="96"
   xml:space="preserve"
   xmlns:inkscape="http://www.inkscape.org/namespaces/inkscape"
   xmlns:sodipodi="http://sodipodi.sourceforge.net/DTD/sodipodi-0.dtd"
   xmlns="http://www.w3.org/2000/svg"
   xmlns:svg="http://www.w3.org/2000/svg"><sodipodi:namedview
     id="namedview1085"
     pagecolor="#ffffff"
     bordercolor="#111111"
     borderopacity="1"
     inkscape:showpageshadow="0"
     inkscape:pageopacity="0"
     inkscape:pagecheckerboard="1"
     inkscape:deskcolor="#d1d1d1"
     inkscape:document-units="mm"
     showgrid="false"
     inkscape:lockguides="false"
     inkscape:zoom="1.6111378"
     inkscape:cx="251.06481"
     inkscape:cy="222.20322"
     inkscape:window-width="1908"
     inkscape:window-height="1049"
     inkscape:window-x="4"
     inkscape:window-y="4"
     inkscape:window-maximized="1"
     inkscape:current-layer="layer1"
     showguides="true"><sodipodi:guide
       position="83.296447,30.524716"
       orientation="0,-1"
       id="guide5183"
       inkscape:locked="false" /><sodipodi:guide
       position="58.10156,88.15773"
       orientation="1,0"
       id="guide7771"
       inkscape:locked="false" /><sodipodi:guide
       position="95.429115,92.09886"
       orientation="1,0"
       id="guide13671"
       inkscape:locked="false" /></sodipodi:namedview><defs
     id="defs1080" /><g
     inkscape:label="Layer 1"
     inkscape:groupmode="layer"
     id="layer1"
     transform="translate(5.5509186,37.961727)"><path
       style="font-variation-settings:normal;opacity:1;fill:none;fill-opacity:1;stroke:#000000;stroke-width:0.264583;stroke-linecap:round;stroke-linejoin:round;stroke-miterlimit:4;stroke-dasharray:none;stroke-dashoffset:0;stroke-opacity:1;stop-color:#000000;stop-opacity:1"
       d="m 168.47202,58.030596 c -1.56293,0.24395 -3.14508,0.106535 -4.71884,0.128043 -1.39192,0.01902 -2.78913,0.0377 -4.17893,0.121635 -1.42153,0.08585 -2.83228,0.265614 -4.24906,0.396915 -1.77518,0.164519 -3.54821,0.326329 -5.32182,0.505749 -2.11366,0.213818 -4.23165,0.385314 -6.33853,0.652991 -1.18737,0.150857 -2.3659,0.368219 -3.54789,0.550565 -2.89439,0.446523 -5.79605,0.905396 -8.65237,1.530048 -1.25629,0.274741 -2.4891,0.629092 -3.73019,0.953882 -2.46831,0.645955 -4.93581,1.282243 -7.39026,1.971781 -1.23044,0.345672 -2.47665,0.666907 -3.69514,1.049907 -0.68912,0.216609 -1.37229,0.44914 -2.06143,0.665799 -1.7075,0.536833 -3.39536,1.075109 -5.06239,1.709301 -1.89528,0.721027 -3.8047,1.436667 -5.49012,2.528744 -3.86589,2.504945 -7.950302,4.975081 -10.671712,8.604135 -1.41694,1.889514 -2.77144,3.56384 -3.32351,5.832113 -0.195578,0.803528 -0.26645,1.372132 -0.26645,2.189445 0,0.194665 0.0089,0.620521 0.0089,0.810656"
       id="path7356"
       sodipodi:nodetypes="cssssssssssssssssc" /><path
       style="font-variation-settings:normal;fill:none;fill-opacity:1;stroke:#000000;stroke-width:0.264583;stroke-linecap:round;stroke-linejoin:round;stroke-miterlimit:4;stroke-dasharray:1.13347, 2.26693;stroke-dashoffset:0;stroke-opacity:1;stop-color:#000000"
       d="m 11.043757,57.838525 c 1.562934,0.24395 3.145085,0.106535 4.718842,0.128043 1.39192,0.01902 2.789125,0.0377 4.178928,0.121635 1.42153,0.08585 2.832282,0.265614 4.24906,0.396915 1.775181,0.164519 3.548215,0.326329 5.321826,0.505749 2.113655,0.213818 4.231649,0.385314 6.338524,0.652991 1.187372,0.150857 2.365906,0.368219 3.547889,0.550565 2.89439,0.446523 5.796049,0.905396 8.652375,1.530048 1.25629,0.274741 2.489099,0.629092 3.730184,0.953882 2.468313,0.645955 4.935811,1.282243 7.390266,1.971781 1.230441,0.345672 2.476648,0.666907 3.695141,1.049907 0.68912,0.216609 1.372288,0.44914 2.061423,0.665799 1.707506,0.536833 3.395366,1.075109 5.062395,1.709301 1.89528,0.721027 3.804699,1.436667 5.490116,2.528744 3.865888,2.504945 7.9503,4.975081 10.671707,8.604135 1.416941,1.889514 2.771448,3.56384 3.323517,5.832113 0.195576,0.803528 0.266448,1.372132 0.266448,2.189445 0,0.194665 -0.0089,0.620521 -0.0089,0.810656"
       id="path7356-9"
       sodipodi:nodetypes="cssssssssssssssssc" /><path
       style="font-variation-settings:normal;opacity:1;fill:none;fill-opacity:1;stroke:#000000;stroke-width:0.264583;stroke-linecap:round;stroke-linejoin:round;stroke-miterlimit:4;stroke-dasharray:none;stroke-dashoffset:0;stroke-opacity:1;stop-color:#000000;stop-opacity:1"
       d="m -4.9685577,41.063747 c -0.376579,0.710094 -0.293566,0.382797 -0.365017,1.129779 -0.08123,0.849204 -0.194019,1.726843 0.156435,2.528967 0.03447,0.0789 0.624909,1.0946 0.590979,0.721323"
       id="path7591" /><path
       style="font-variation-settings:normal;opacity:1;fill:none;fill-opacity:1;stroke:#000000;stroke-width:0.264583;stroke-linecap:round;stroke-linejoin:round;stroke-miterlimit:4;stroke-dasharray:none;stroke-dashoffset:0;stroke-opacity:1;stop-color:#000000;stop-opacity:1"
       d="m -4.0038767,41.52435 c -0.154048,0.492694 -0.202554,0.984676 -0.173815,1.494782 0.01931,0.34299 0.10373,0.679304 0.225962,0.999424 0.04015,0.105151 0.180901,0.432871 0.243342,0.504055 0.21362,0.243514 0.755923,0.465222 0.990759,0.112977 0.388356,-0.582515 0.06573,-2.687421 -0.582287,-3.033022 -0.245414,-0.130884 -0.429876,-0.08393 -0.703961,-0.07822 z"
       id="path7593" /><path
       style="font-variation-settings:normal;opacity:1;fill:none;fill-opacity:1;stroke:#000000;stroke-width:0.264583;stroke-linecap:round;stroke-linejoin:round;stroke-miterlimit:4;stroke-dasharray:none;stroke-dashoffset:0;stroke-opacity:1;stop-color:#000000;stop-opacity:1"
       d="m -2.0049787,40.646597 c 0.130363,0.211471 0.284081,0.410218 0.391086,0.634418 0.326051,0.683133 0.504544,2.248496 0.356325,2.989567 -0.07033,0.351621 -0.194741,0.68295 -0.295489,1.025491 -0.03208,0.109061 -0.07681,0.208179 -0.121669,0.312864 -0.02066,0.04822 0.0026,0.204944 -0.01738,0.15643 -0.02336,-0.05676 -0.04056,-0.115872 -0.06084,-0.173808"
       id="path7595" /><path
       style="font-variation-settings:normal;opacity:1;fill:none;fill-opacity:1;stroke:#000000;stroke-width:0.264583;stroke-linecap:round;stroke-linejoin:round;stroke-miterlimit:4;stroke-dasharray:none;stroke-dashoffset:0;stroke-opacity:1;stop-color:#000000;stop-opacity:1"
       d="m 102.16093,74.13894 c -0.27534,0.420306 -0.32613,0.943416 -0.42669,1.428239 -0.0935,0.45062 -0.23691,0.979125 -0.12127,1.437225 0.13433,0.532119 0.57823,1.018338 0.95668,1.396804"
       id="path7613" /><path
       style="font-variation-settings:normal;opacity:1;fill:none;fill-opacity:1;stroke:#000000;stroke-width:0.264583;stroke-linecap:round;stroke-linejoin:round;stroke-miterlimit:4;stroke-dasharray:none;stroke-dashoffset:0;stroke-opacity:1;stop-color:#000000;stop-opacity:1"
       d="m 103.25235,74.902464 c 0.0359,0.07935 0.0618,0.164049 0.10779,0.23804 0.12799,0.206057 0.64188,0.891421 0.76355,1.055463 0.27934,0.376629 0.5482,0.762216 0.83092,1.136306 0.0139,0.01836 0.26722,0.335925 0.30541,0.381762 0.0984,0.118112 0.10362,0.103608 0.027,0.02695"
       id="path7649" /><path
       style="font-variation-settings:normal;opacity:1;fill:none;fill-opacity:1;stroke:#000000;stroke-width:0.264583;stroke-linecap:round;stroke-linejoin:round;stroke-miterlimit:4;stroke-dasharray:none;stroke-dashoffset:0;stroke-opacity:1;stop-color:#000000;stop-opacity:1"
       d="m 103.42752,77.817336 c 0.41115,-1.192631 0.8673,-2.004343 1.7337,-2.860974 0.0482,-0.04766 0.33333,-0.255352 0.32338,-0.354814"
       id="path7651" /><path
       style="font-variation-settings:normal;opacity:1;fill:none;fill-opacity:1;stroke:#000000;stroke-width:0.264583;stroke-linecap:round;stroke-linejoin:round;stroke-miterlimit:4;stroke-dasharray:none;stroke-dashoffset:0;stroke-opacity:1;stop-color:#000000;stop-opacity:1"
       d="m 106.49517,76.115123 c 0.29834,-0.0299 0.60272,-0.04043 0.90279,-0.02695 0.0565,0.0026 0.26334,0.05295 0.34135,0.02695"
       id="path7653" /><path
       style="font-variation-settings:normal;opacity:1;fill:none;fill-opacity:1;stroke:#000000;stroke-width:0.264583;stroke-linecap:round;stroke-linejoin:round;stroke-miterlimit:4;stroke-dasharray:none;stroke-dashoffset:0;stroke-opacity:1;stop-color:#000000;stop-opacity:1"
       d="m 108.30523,76.977458 c 0.38442,-0.565636 0.81212,-1.099206 1.23066,-1.639334 0.1249,-0.161192 0.2492,-0.322861 0.37278,-0.485063 0.0201,-0.02643 0.0327,-0.05971 0.0584,-0.08084 0.0195,-0.01603 0.0116,0.08808 0.004,0.20211 -0.0223,0.356166 0.009,0.02797 -0.0359,0.61082 -0.0419,0.542216 -0.10152,1.082241 -0.12576,1.625859 -0.004,0.0845 -0.007,0.428358 -0.004,0.498539 7.9e-4,0.01849 -0.002,0.06479 0.0135,0.0539 0.0154,-0.01122 0.0518,-0.143817 0.0584,-0.166179"
       id="path7655" /><path
       style="font-variation-settings:normal;opacity:1;fill:none;fill-opacity:1;stroke:#000000;stroke-width:0.264583;stroke-linecap:round;stroke-linejoin:round;stroke-miterlimit:4;stroke-dasharray:none;stroke-dashoffset:0;stroke-opacity:1;stop-color:#000000;stop-opacity:1"
       d="m 111.10789,77.031354 c -0.48958,1.464167 -0.32383,0.966981 -0.49855,1.491118"
       id="path7657" /><path
       style="font-variation-settings:normal;opacity:1;fill:none;fill-opacity:1;stroke:#000000;stroke-width:0.264583;stroke-linecap:round;stroke-linejoin:round;stroke-miterlimit:4;stroke-dasharray:none;stroke-dashoffset:0;stroke-opacity:1;stop-color:#000000;stop-opacity:1"
       d="m 112.29813,74.606038 c 0.18416,0.29987 0.37431,0.951537 0.86685,0.992581 0.18885,0.01574 0.47706,-0.561983 0.55245,-0.732086 0.0211,-0.04755 0.12446,-0.24063 0.0898,-0.309901"
       id="path7659" /><path
       style="font-variation-settings:normal;opacity:1;fill:none;fill-opacity:1;stroke:#000000;stroke-width:0.264583;stroke-linecap:round;stroke-linejoin:round;stroke-miterlimit:4;stroke-dasharray:none;stroke-dashoffset:0;stroke-opacity:1;stop-color:#000000;stop-opacity:1"
       d="m 113.16049,75.486338 c 0.002,0.133242 -8e-5,0.266555 0.004,0.399727 0.0123,0.359458 0.0379,0.717765 0.0404,1.077918 0.002,0.259342 -0.0435,0.858528 0.0494,0.61082"
       id="path7661" /><path
       style="font-variation-settings:normal;opacity:1;fill:none;fill-opacity:1;stroke:#000000;stroke-width:0.264583;stroke-linecap:round;stroke-linejoin:round;stroke-miterlimit:4;stroke-dasharray:none;stroke-dashoffset:0;stroke-opacity:1;stop-color:#000000;stop-opacity:1"
       d="m 114.60224,76.097155 c 0.49508,-0.132926 1.05801,0.01037 1.56751,-0.09881"
       id="path7663" /><path
       style="font-variation-settings:normal;opacity:1;fill:none;fill-opacity:1;stroke:#000000;stroke-width:0.264583;stroke-linecap:round;stroke-linejoin:round;stroke-miterlimit:4;stroke-dasharray:none;stroke-dashoffset:0;stroke-opacity:1;stop-color:#000000;stop-opacity:1"
       d="m 117.16237,76.218422 c 0.29799,-0.386707 0.64505,-0.730697 0.94769,-1.113848 0.0874,-0.11067 0.17247,-0.223227 0.25602,-0.336849 0.0482,-0.06555 0.10818,-0.166606 0.11228,-0.161687 0.0438,0.05256 0.0347,0.38813 0.0359,0.44015 0.0144,0.613529 -0.0626,1.212077 -0.14821,1.818986 -0.0233,0.164809 -0.0597,0.313087 -0.0898,0.476081 -0.009,0.04622 -0.0135,0.09308 -0.0225,0.139229 -0.002,0.0079 -0.0103,0.03042 -0.009,0.02246 0.0147,-0.09167 0.0282,-0.139724 0.0494,-0.224567"
       id="path7673" /><path
       style="font-variation-settings:normal;opacity:1;fill:none;fill-opacity:1;stroke:#000000;stroke-width:0.264583;stroke-linecap:round;stroke-linejoin:round;stroke-miterlimit:4;stroke-dasharray:none;stroke-dashoffset:0;stroke-opacity:1;stop-color:#000000;stop-opacity:1"
       d="m 119.23742,74.399438 c 0.22307,0.305408 0.51545,0.570698 0.66922,0.916228 0.28304,0.635992 -0.0578,1.984409 -0.16618,2.595986 -0.0303,0.170675 0.0335,0.479229 -0.1572,0.269481"
       id="path7675" /><path
       style="font-variation-settings:normal;opacity:1;fill:none;fill-opacity:1;stroke:#000000;stroke-width:0.264583;stroke-linecap:round;stroke-linejoin:round;stroke-miterlimit:4;stroke-dasharray:none;stroke-dashoffset:0;stroke-opacity:1;stop-color:#000000;stop-opacity:1"
       d="m 112.13643,73.76167 c 0.6519,-0.147928 1.28524,0.03979 1.92683,0.121264 0.11005,0.01397 0.2239,-0.0037 0.33237,0.01797"
       id="path7677" /><path
       style="font-variation-settings:normal;opacity:1;fill:none;fill-opacity:1;stroke:#000000;stroke-width:0.264583;stroke-linecap:round;stroke-linejoin:round;stroke-miterlimit:4;stroke-dasharray:none;stroke-dashoffset:0;stroke-opacity:1;stop-color:#000000;stop-opacity:1"
       d="m 103.29277,73.914374 c 0.15121,-0.01947 0.30223,-0.04049 0.45364,-0.05839 0.35832,-0.04236 0.71835,-0.0776 1.07794,-0.107791 0.26391,-0.02215 0.5682,-0.05164 0.83541,-0.01347"
       id="path7679" /><path
       style="font-variation-settings:normal;opacity:1;fill:none;fill-opacity:1;stroke:#000000;stroke-width:0.264583;stroke-linecap:round;stroke-linejoin:round;stroke-miterlimit:4;stroke-dasharray:none;stroke-dashoffset:0;stroke-opacity:1;stop-color:#000000;stop-opacity:1"
       d="m 92.681158,87.416988 c -0.0644,0.103301 -0.14027,0.200263 -0.19313,0.309904 -0.15332,0.317968 -0.212,1.202518 -0.22907,1.549505 -0.0249,0.505992 -0.0215,1.167252 0.22008,1.630352 0.14002,0.268351 0.29481,0.558298 0.51652,0.768014 0.0268,0.02535 0.14443,0.145362 0.11677,0.08085"
       id="path7691" /><path
       style="font-variation-settings:normal;opacity:1;fill:none;fill-opacity:1;stroke:#000000;stroke-width:0.264583;stroke-linecap:round;stroke-linejoin:round;stroke-miterlimit:4;stroke-dasharray:none;stroke-dashoffset:0;stroke-opacity:1;stop-color:#000000;stop-opacity:1"
       d="m 93.947748,88.045773 c 0.55769,0.757459 1.06916,1.546968 1.60793,2.317527 0.23602,0.33755 0.50729,0.717233 0.89829,0.884788"
       id="path7693" /><path
       style="font-variation-settings:normal;opacity:1;fill:none;fill-opacity:1;stroke:#000000;stroke-width:0.264583;stroke-linecap:round;stroke-linejoin:round;stroke-miterlimit:4;stroke-dasharray:none;stroke-dashoffset:0;stroke-opacity:1;stop-color:#000000;stop-opacity:1"
       d="m 94.271128,91.243598 c 0.0269,-0.164682 0.0297,-0.335203 0.0808,-0.494046 0.28013,-0.870185 0.76489,-1.671928 1.2082,-2.465739 0.11175,-0.20011 0.19891,-0.4113 0.30092,-0.61531"
       id="path7695" /><path
       style="font-variation-settings:normal;opacity:1;fill:none;fill-opacity:1;stroke:#000000;stroke-width:0.264583;stroke-linecap:round;stroke-linejoin:round;stroke-miterlimit:4;stroke-dasharray:none;stroke-dashoffset:0;stroke-opacity:1;stop-color:#000000;stop-opacity:1"
       d="m 93.772578,87.048701 c 0.50302,0.04078 0.97316,-0.166309 1.46421,-0.224565 0.22285,-0.02643 0.44954,-0.03099 0.67372,-0.02695 0.11156,0.0021 0.22382,-0.0047 0.33237,0.02246"
       id="path7697" /><path
       style="font-variation-settings:normal;opacity:1;fill:none;fill-opacity:1;stroke:#000000;stroke-width:0.264583;stroke-linecap:round;stroke-linejoin:round;stroke-miterlimit:4;stroke-dasharray:none;stroke-dashoffset:0;stroke-opacity:1;stop-color:#000000;stop-opacity:1"
       d="m 97.356748,90.911242 c -0.0451,-1.129215 -0.31196,2.027399 -0.35033,1.643824"
       id="path7699" /><path
       style="font-variation-settings:normal;opacity:1;fill:none;fill-opacity:1;stroke:#000000;stroke-width:0.264583;stroke-linecap:round;stroke-linejoin:round;stroke-miterlimit:4;stroke-dasharray:none;stroke-dashoffset:0;stroke-opacity:1;stop-color:#000000;stop-opacity:1"
       d="m 97.967588,87.637063 c 0.24153,0.304924 0.68256,1.408141 1.16778,1.342908 0.15261,-0.02053 0.46045,-0.379359 0.51651,-0.449135 0.551592,-0.68653 0.448582,-0.495144 0.651272,-0.943176"
       id="path7707" /><path
       style="font-variation-settings:normal;opacity:1;fill:none;fill-opacity:1;stroke:#000000;stroke-width:0.264583;stroke-linecap:round;stroke-linejoin:round;stroke-miterlimit:4;stroke-dasharray:none;stroke-dashoffset:0;stroke-opacity:1;stop-color:#000000;stop-opacity:1"
       d="m 99.184778,88.979971 c -0.0153,0.664623 0.008,1.329566 0.0225,1.994146 0.002,0.09431 2.4e-4,0.18872 0.005,0.282956 0.003,0.07204 0.0112,0.143791 0.018,0.21558 8e-4,0.0076 0.005,0.03009 0.005,0.02246 0,-0.08385 -0.003,-0.167677 -0.005,-0.251515"
       id="path7709" /><path
       style="font-variation-settings:normal;opacity:1;fill:none;fill-opacity:1;stroke:#000000;stroke-width:0.264583;stroke-linecap:round;stroke-linejoin:round;stroke-miterlimit:4;stroke-dasharray:none;stroke-dashoffset:0;stroke-opacity:1;stop-color:#000000;stop-opacity:1"
       d="m 97.747508,86.761255 c 0.22457,0.01497 0.44872,0.03939 0.67372,0.04491 0.60945,0.01497 1.21037,-0.08804 1.819042,-0.09432 0.17446,-0.0019 0.34124,0.01228 0.51202,0.04941 0.0202,0.0044 0.12427,0.03047 0.15271,0.04042 0.009,0.0033 0.0363,0.01707 0.0269,0.01347 -0.0288,-0.01109 -0.0569,-0.02394 -0.0853,-0.03593"
       id="path7711" /><path
       style="font-variation-settings:normal;opacity:1;fill:none;fill-opacity:1;stroke:#000000;stroke-width:0.264583;stroke-linecap:round;stroke-linejoin:round;stroke-miterlimit:4;stroke-dasharray:none;stroke-dashoffset:0;stroke-opacity:1;stop-color:#000000;stop-opacity:1"
       d="m 101.73142,87.062176 c 0.0874,0.402177 0.17581,0.805508 0.23805,1.212657 0.0894,0.584914 0.18162,1.208191 0.0674,1.796529 -0.0507,0.261173 -0.15527,0.524343 -0.23804,0.776999 -0.0772,0.235696 -0.18574,0.487085 -0.3144,0.696153 -0.0216,0.03514 -0.0646,0.304377 -0.0853,0.179655"
       id="path7713" /><path
       style="font-variation-settings:normal;opacity:1;fill:none;fill-opacity:1;stroke:#000000;stroke-width:0.264583;stroke-linecap:round;stroke-linejoin:round;stroke-miterlimit:4;stroke-dasharray:none;stroke-dashoffset:0;stroke-opacity:1;stop-color:#000000;stop-opacity:1"
       d="m 119.3975,105.70487 c -0.0419,0.1063 -0.0939,0.20916 -0.12575,0.31889 -0.081,0.27889 -0.10238,0.58419 -0.13924,0.87131 -0.094,0.73216 -0.20888,1.34642 0.0449,2.05703 0.0765,0.21405 0.16871,0.58224 0.4222,0.66023"
       id="path7717" /><path
       style="font-variation-settings:normal;opacity:1;fill:none;fill-opacity:1;stroke:#000000;stroke-width:0.264583;stroke-linecap:round;stroke-linejoin:round;stroke-miterlimit:4;stroke-dasharray:none;stroke-dashoffset:0;stroke-opacity:1;stop-color:#000000;stop-opacity:1"
       d="m 120.50689,106.37408 c 0.0701,0.24032 0.22246,0.42975 0.35932,0.63328 0.37574,0.55878 0.80034,1.0832 1.14981,1.6573 0.0968,0.15895 0.21259,0.31804 0.31889,0.47159 0.0389,0.0562 0.0808,0.11105 0.12127,0.16618 0.008,0.0111 0.0301,0.0449 0.0269,0.0314 -0.006,-0.0249 -0.018,-0.0479 -0.0269,-0.0719"
       id="path7733" /><path
       style="font-variation-settings:normal;opacity:1;fill:none;fill-opacity:1;stroke:#000000;stroke-width:0.264583;stroke-linecap:round;stroke-linejoin:round;stroke-miterlimit:4;stroke-dasharray:none;stroke-dashoffset:0;stroke-opacity:1;stop-color:#000000;stop-opacity:1"
       d="m 120.32723,109.03743 c 0.0689,-0.16468 0.12372,-0.33595 0.20661,-0.49404 0.16878,-0.32189 0.44423,-0.64235 0.63779,-0.95665 0.21272,-0.34544 0.40567,-0.71031 0.66024,-1.02852 0.0714,-0.0892 0.4177,-0.3469 0.4177,-0.45811"
       id="path7735" /><path
       style="font-variation-settings:normal;opacity:1;fill:none;fill-opacity:1;stroke:#000000;stroke-width:0.264583;stroke-linecap:round;stroke-linejoin:round;stroke-miterlimit:4;stroke-dasharray:none;stroke-dashoffset:0;stroke-opacity:1;stop-color:#000000;stop-opacity:1"
       d="m 120.27783,105.55666 c 0.67294,-0.1326 1.35695,-0.22942 2.04361,-0.24702 0.14441,-0.004 0.29204,-0.008 0.43567,0.009 0.0841,0.01 0.0721,0.009 0.0404,0.009"
       id="path7737" /><path
       style="font-variation-settings:normal;opacity:1;fill:none;fill-opacity:1;stroke:#000000;stroke-width:0.264583;stroke-linecap:round;stroke-linejoin:round;stroke-miterlimit:4;stroke-dasharray:none;stroke-dashoffset:0;stroke-opacity:1;stop-color:#000000;stop-opacity:1"
       d="m 123.08498,107.60919 c 0.18043,-0.0127 1.02955,0.074 1.11388,-0.0314"
       id="path7739" /><path
       style="font-variation-settings:normal;opacity:1;fill:none;fill-opacity:1;stroke:#000000;stroke-width:0.264583;stroke-linecap:round;stroke-linejoin:round;stroke-miterlimit:4;stroke-dasharray:none;stroke-dashoffset:0;stroke-opacity:1;stop-color:#000000;stop-opacity:1"
       d="m 125.03427,105.78123 c -0.005,0.17815 -0.008,0.35635 -0.0135,0.53446 -0.0132,0.40211 -0.0527,0.78305 0.0629,1.17673 0.10372,0.35321 0.58797,0.36348 0.83092,0.17067 0.0655,-0.052 0.1065,-0.14563 0.14372,-0.22007"
       id="path7741" /><path
       style="font-variation-settings:normal;opacity:1;fill:none;fill-opacity:1;stroke:#000000;stroke-width:0.264583;stroke-linecap:round;stroke-linejoin:round;stroke-miterlimit:4;stroke-dasharray:none;stroke-dashoffset:0;stroke-opacity:1;stop-color:#000000;stop-opacity:1"
       d="m 126.02688,106.63907 c 0.13799,0.60776 0.12389,1.23984 0.1572,1.85941 0.005,0.0839 0.01,0.16789 0.018,0.25151 0.004,0.0387 0.0232,0.15027 0.0314,0.11228 0.0124,-0.0575 0.015,-0.11677 0.0225,-0.17516"
       id="path7743" /><path
       style="font-variation-settings:normal;opacity:1;fill:none;fill-opacity:1;stroke:#000000;stroke-width:0.264583;stroke-linecap:round;stroke-linejoin:round;stroke-miterlimit:4;stroke-dasharray:none;stroke-dashoffset:0;stroke-opacity:1;stop-color:#000000;stop-opacity:1"
       d="m 127.51355,108.35476 c -0.17067,0.50452 -0.34135,1.00905 -0.51202,1.51357 -0.0527,0.22041 -0.0718,0.27377 -0.0359,0.16618"
       id="path7745" /><path
       style="font-variation-settings:normal;opacity:1;fill:none;fill-opacity:1;stroke:#000000;stroke-width:0.264583;stroke-linecap:round;stroke-linejoin:round;stroke-miterlimit:4;stroke-dasharray:none;stroke-dashoffset:0;stroke-opacity:1;stop-color:#000000;stop-opacity:1"
       d="m 128.78912,105.66445 c 0.14524,0.27983 0.82426,1.56051 1.25761,1.2935 0.3031,-0.18675 0.54164,-0.6445 0.70516,-0.95665"
       id="path7747" /><path
       style="font-variation-settings:normal;opacity:1;fill:none;fill-opacity:1;stroke:#000000;stroke-width:0.264583;stroke-linecap:round;stroke-linejoin:round;stroke-miterlimit:4;stroke-dasharray:none;stroke-dashoffset:0;stroke-opacity:1;stop-color:#000000;stop-opacity:1"
       d="m 129.96139,106.79178 c 0.021,0.17515 0.0494,0.34958 0.0629,0.52548 0.0524,0.68447 0.0115,1.3857 0,2.0705 -0.001,0.0719 -0.006,0.14373 -0.004,0.21558 0.001,0.0362 0.011,0.14392 0.0135,0.10779 0.0115,-0.16434 0.009,-0.32936 0.0135,-0.49404"
       id="path7749" /><path
       style="font-variation-settings:normal;opacity:1;fill:none;fill-opacity:1;stroke:#000000;stroke-width:0.264583;stroke-linecap:round;stroke-linejoin:round;stroke-miterlimit:4;stroke-dasharray:none;stroke-dashoffset:0;stroke-opacity:1;stop-color:#000000;stop-opacity:1"
       d="m 128.45676,104.82457 c 0.16319,0.0389 0.32441,0.0873 0.48957,0.11678 0.48909,0.0873 0.97439,0.101 1.4687,0.11677 0.29469,0.009 0.62818,-0.01 0.90278,0.11229"
       id="path7751" /><path
       style="font-variation-settings:normal;opacity:1;fill:none;fill-opacity:1;stroke:#000000;stroke-width:0.264583;stroke-linecap:round;stroke-linejoin:round;stroke-miterlimit:4;stroke-dasharray:none;stroke-dashoffset:0;stroke-opacity:1;stop-color:#000000;stop-opacity:1"
       d="m 131.43908,107.80232 c 0.35569,-0.0251 0.70972,-3e-5 1.06447,0.0225 0.13553,0.009 0.28606,0.0329 0.4222,0.0135"
       id="path7753" /><path
       style="font-variation-settings:normal;opacity:1;fill:none;fill-opacity:1;stroke:#000000;stroke-width:0.264583;stroke-linecap:round;stroke-linejoin:round;stroke-miterlimit:4;stroke-dasharray:none;stroke-dashoffset:0;stroke-opacity:1;stop-color:#000000;stop-opacity:1"
       d="m 133.24464,106.73788 c 0.11528,-0.10779 0.20194,-0.25857 0.34584,-0.32338 0.26093,-0.1175 0.59333,0.11241 0.6872,0.33685 0.15398,0.36822 -0.14282,1.68982 -0.33237,1.99415 -0.23424,0.37606 -0.54133,0.13488 -0.66923,-0.13474 -0.0557,-0.11735 -0.0976,-0.28399 -0.0539,-0.29193 0.14665,-0.0267 0.42576,0.15732 0.55245,0.22007 0.515,0.25508 1.05597,0.68987 1.67082,0.53896 0.23426,-0.0575 0.34193,-0.12404 0.43567,-0.33236"
       id="path7755" /><path
       style="font-variation-settings:normal;opacity:1;fill:none;fill-opacity:1;stroke:#000000;stroke-width:0.264583;stroke-linecap:round;stroke-linejoin:round;stroke-miterlimit:4;stroke-dasharray:none;stroke-dashoffset:0;stroke-opacity:1;stop-color:#000000;stop-opacity:1"
       d="m 135.18046,104.94584 c 0.45236,0.49488 0.53221,0.47994 0.75905,1.033 0.39608,0.96569 0.42619,2.0674 0.40872,3.09452 -0.004,0.20821 -0.0142,0.41623 -0.0225,0.6243 -0.004,0.10606 -0.008,0.281 -0.0449,0.28745 -0.0438,0.008 -0.0629,-0.0629 -0.0943,-0.0943"
       id="path7757" /><path
       style="font-variation-settings:normal;opacity:1;fill:none;fill-opacity:1;stroke:#000000;stroke-width:0.264583;stroke-linecap:round;stroke-linejoin:round;stroke-miterlimit:4;stroke-dasharray:none;stroke-dashoffset:0;stroke-opacity:1;stop-color:#000000;stop-opacity:1"
       d="m 132.16221,106.85016 c 0.007,0.11228 0.0139,0.22465 0.0225,0.33685 0.0279,0.36603 0.0719,0.72826 0.0719,1.09589 0,0.12991 0.0133,0.24015 0.0404,0.36828 0.006,0.0296 0.0376,0.17852 0.0135,0.13025"
       id="path7759" /><path
       style="font-variation-settings:normal;opacity:1;fill:none;fill-opacity:1;stroke:#0000ff;stroke-width:0.264583;stroke-linecap:round;stroke-linejoin:round;stroke-miterlimit:4;stroke-dasharray:none;stroke-dashoffset:0;stroke-opacity:1;stop-color:#000000;stop-opacity:1"
       d="m 53.958167,60.563945 c -1.134186,-0.500662 -1.408778,-0.557084 -2.517065,0.02791 -0.325278,0.171694 -0.737594,0.436169 -0.941283,0.753659 -0.618169,0.963533 -0.70142,2.240209 -0.815781,3.342623 -0.131955,1.272048 -0.252221,2.542173 -0.35559,3.817153 -0.21888,2.699635 -0.423617,5.384764 -0.40441,8.094867 0.0085,1.191667 0.09025,2.377239 0.167341,3.565934 0.05359,0.826306 0.274791,4.347377 0.355597,5.338424 0.177741,2.179845 0.434617,4.35534 0.571744,6.538705 0.150336,2.393661 0.181898,4.796935 0.202203,7.194663 0.01149,1.355597 2.82e-4,2.713697 0.06276,4.068367 0.08888,1.92753 0.30723,3.85281 0.264953,5.78504 -0.01356,0.61893 -0.02965,1.2536 -0.09064,1.8702 -0.03466,0.35011 -0.105654,0.6911 -0.146422,1.03977 -0.100029,0.85553 -0.126872,1.71699 -0.06973,2.575 0.02851,0.42795 0.0211,0.85207 0.125512,1.27006 0.15932,0.6378 0.752008,0.77501 1.35266,0.85834 0.773996,0.10737 1.938715,0.18102 2.621652,-0.32798 0.576177,-0.42943 0.967536,-1.03219 1.129535,-1.73063 0.300616,-1.29606 0.111424,-2.61449 -0.01394,-3.91485 -0.0991,-1.02804 -0.213941,-2.05602 -0.306789,-3.08442 -0.07841,-0.86838 -0.103783,-1.73969 -0.153397,-2.6099 -0.158915,-2.78755 -0.266067,-5.577963 -0.397433,-8.367023 -0.221894,-4.711045 -0.387468,-9.427394 -0.306791,-14.14509 0.03832,-2.2409 0.168459,-4.479976 0.237062,-6.720138 0.02749,-0.897535 0.08863,-1.795225 0.08367,-2.693638 -0.0041,-0.753182 -0.08169,-1.501685 -0.104584,-2.254003 -0.02938,-0.964888 0.007,-1.930999 0.007,-2.89601 0,-1.649768 0.367188,-3.261897 0.320733,-4.91275 -0.01876,-0.666358 -0.07716,-1.422027 -0.425323,-2.002782 -0.04627,-0.07719 -0.08338,-0.197742 -0.153394,-0.2582 -0.09433,-0.08144 -0.199879,-0.14887 -0.299818,-0.223305 z"
       id="path7785" /><path
       style="font-variation-settings:normal;opacity:1;fill:none;fill-opacity:1;stroke:#000000;stroke-width:0.264583;stroke-linecap:round;stroke-linejoin:round;stroke-miterlimit:4;stroke-dasharray:none;stroke-dashoffset:0;stroke-opacity:1;stop-color:#000000;stop-opacity:1"
       d="m 56.725151,82.647967 c -0.370853,0.274499 -0.452691,0.705061 -0.589203,1.123383 -0.301525,0.923986 -0.342339,1.81637 -0.03535,2.745608 0.07013,0.212286 0.177382,0.702403 0.443865,0.742376"
       id="path7813" /><path
       style="font-variation-settings:normal;opacity:1;fill:none;fill-opacity:1;stroke:#000000;stroke-width:0.264583;stroke-linecap:round;stroke-linejoin:round;stroke-miterlimit:4;stroke-dasharray:none;stroke-dashoffset:0;stroke-opacity:1;stop-color:#000000;stop-opacity:1"
       d="m 57.24365,83.390342 c 0.349014,0.820846 0.840181,1.566228 1.308031,2.321394 0.175159,0.282731 0.174233,0.311793 0.365305,0.628467 0.06811,0.112893 0.138075,0.224769 0.212111,0.333873 0.01093,0.01609 0.181216,0.178009 0.137483,0.204247"
       id="path7815" /><path
       style="font-variation-settings:normal;opacity:1;fill:none;fill-opacity:1;stroke:#000000;stroke-width:0.264583;stroke-linecap:round;stroke-linejoin:round;stroke-miterlimit:4;stroke-dasharray:none;stroke-dashoffset:0;stroke-opacity:1;stop-color:#000000;stop-opacity:1"
       d="m 57.137591,86.638722 c 0.01048,-0.09558 5.3e-4,-0.195683 0.03142,-0.286737 0.03153,-0.09294 0.278217,-0.527473 0.345665,-0.644176 0.338495,-0.585697 0.712184,-1.132615 1.143053,-1.653651 0.147029,-0.177797 0.288941,-0.357497 0.432083,-0.538123 0.08479,-0.106989 0.179221,-0.24752 0.298529,-0.322087"
       id="path7817" /><path
       style="font-variation-settings:normal;opacity:1;fill:none;fill-opacity:1;stroke:#000000;stroke-width:0.264583;stroke-linecap:round;stroke-linejoin:round;stroke-miterlimit:4;stroke-dasharray:none;stroke-dashoffset:0;stroke-opacity:1;stop-color:#000000;stop-opacity:1"
       d="m 57.090456,82.541914 c 0.120459,0.0039 0.240898,0.0085 0.361378,0.01177 0.28216,0.0076 0.566143,0.01794 0.84845,0.0079 0.296048,-0.01058 0.59158,-0.05106 0.887733,-0.05106 0.109559,0 0.225134,-0.0066 0.33388,0.0079 0.03278,0.0044 0.168662,0.06382 0.176763,0.03142"
       id="path7821" /><path
       style="font-variation-settings:normal;opacity:1;fill:none;fill-opacity:1;stroke:#000000;stroke-width:0.264583;stroke-linecap:round;stroke-linejoin:round;stroke-miterlimit:4;stroke-dasharray:none;stroke-dashoffset:0;stroke-opacity:1;stop-color:#000000;stop-opacity:1"
       d="m 60.052763,85.065496 c 0.772583,-0.01561 -0.08072,0.0061 0.713578,-0.02826 0.19344,-0.0084 0.472493,0.04182 0.635863,-0.09184"
       id="path7841" /><path
       style="font-variation-settings:normal;opacity:1;fill:none;fill-opacity:1;stroke:#000000;stroke-width:0.264583;stroke-linecap:round;stroke-linejoin:round;stroke-miterlimit:4;stroke-dasharray:none;stroke-dashoffset:0;stroke-opacity:1;stop-color:#000000;stop-opacity:1"
       d="m 60.603845,84.270693 c -0.0047,0.08713 -0.01151,0.174181 -0.01413,0.261401 -0.0083,0.275359 -0.0031,0.554873 0.0035,0.83013 0.0032,0.133262 -0.0031,0.370062 0.03533,0.293195"
       id="path7843" /><path
       style="font-variation-settings:normal;opacity:1;fill:none;fill-opacity:1;stroke:#000000;stroke-width:0.264583;stroke-linecap:round;stroke-linejoin:round;stroke-miterlimit:4;stroke-dasharray:none;stroke-dashoffset:0;stroke-opacity:1;stop-color:#000000;stop-opacity:1"
       d="m 62.479637,83.069652 c -0.0943,0.336182 -0.06516,0.211963 -0.130706,0.512209 -0.06998,0.320516 -0.245211,0.997318 -0.105977,1.296416 0.108943,0.234021 0.7607,0.24524 0.95732,0.155427 0.0711,-0.03248 0.10157,-0.08704 0.14131,-0.14483"
       id="path7847" /><path
       style="font-variation-settings:normal;opacity:1;fill:none;fill-opacity:1;stroke:#000000;stroke-width:0.264583;stroke-linecap:round;stroke-linejoin:round;stroke-miterlimit:4;stroke-dasharray:none;stroke-dashoffset:0;stroke-opacity:1;stop-color:#000000;stop-opacity:1"
       d="m 63.511144,84.076404 c -0.061,0.32421 -0.0573,0.263472 -0.0883,0.582859 -0.0354,0.363945 -0.0424,0.729742 -0.0424,1.095065 0,0.197578 -0.0129,0.411261 0.0353,0.604052 0.0144,0.05763 0.0286,0.115313 0.0424,0.17309 0.005,0.02111 0.0113,0.08511 0.0141,0.06358 0.006,-0.04788 -0.002,-0.09655 -0.004,-0.14483"
       id="path7849" /><path
       style="font-variation-settings:normal;opacity:1;fill:none;fill-opacity:1;stroke:#000000;stroke-width:0.264583;stroke-linecap:round;stroke-linejoin:round;stroke-miterlimit:4;stroke-dasharray:none;stroke-dashoffset:0;stroke-opacity:1;stop-color:#000000;stop-opacity:1"
       d="m 64.457874,86.100509 c -0.11642,0.31137 -0.23297,0.62112 -0.32853,0.939639 -0.0252,0.08402 -0.0482,0.152924 -0.0424,0.240207"
       id="path7851" /><path
       style="font-variation-settings:normal;opacity:1;fill:none;fill-opacity:1;stroke:#000000;stroke-width:0.264583;stroke-linecap:round;stroke-linejoin:round;stroke-miterlimit:4;stroke-dasharray:none;stroke-dashoffset:0;stroke-opacity:1;stop-color:#000000;stop-opacity:1"
       d="m 58.127512,88.491993 c 0.139647,0.207717 0.437597,1.122117 0.752437,1.172776 0.307682,0.04951 0.801894,-0.838694 0.971455,-1.080934"
       id="path7857" /><path
       style="font-variation-settings:normal;opacity:1;fill:none;fill-opacity:1;stroke:#000000;stroke-width:0.264583;stroke-linecap:round;stroke-linejoin:round;stroke-miterlimit:4;stroke-dasharray:none;stroke-dashoffset:0;stroke-opacity:1;stop-color:#000000;stop-opacity:1"
       d="m 58.901145,89.583524 c -0.01148,0.333414 -0.01177,0.300704 -0.01765,0.64644 -0.0062,0.365398 -0.0185,0.733179 -0.0071,1.098601 0.0033,0.106098 0.02122,0.279222 0.03179,0.377973 0.0029,0.02716 0.0077,0.05409 0.01061,0.08125 5.29e-4,0.0058 5.29e-4,0.02352 0,0.01767 -0.004,-0.04588 -0.0071,-0.09184 -0.01061,-0.137766"
       id="path7859" /><path
       style="font-variation-settings:normal;opacity:1;fill:none;fill-opacity:1;stroke:#000000;stroke-width:0.264583;stroke-linecap:round;stroke-linejoin:round;stroke-miterlimit:4;stroke-dasharray:none;stroke-dashoffset:0;stroke-opacity:1;stop-color:#000000;stop-opacity:1"
       d="m 57.841375,87.955056 c 0.625634,-0.0074 1.250606,0.06358 1.875793,0.06358 0.100981,0 0.203451,0.0042 0.303802,-0.0035 0.03172,-0.0024 0.09538,-0.03535 0.09538,-0.0035 0,0.0079 -0.0071,0.01413 -0.01061,0.02119"
       id="path7863" /><path
       style="font-variation-settings:normal;opacity:1;fill:none;fill-opacity:1;stroke:#000000;stroke-width:0.264583;stroke-linecap:round;stroke-linejoin:round;stroke-miterlimit:4;stroke-dasharray:none;stroke-dashoffset:0;stroke-opacity:1;stop-color:#000000;stop-opacity:1"
       d="m 60.564983,87.531159 c 0.08243,-0.0471 0.158356,-0.108064 0.247282,-0.141298 0.03216,-0.01201 0.07047,-0.0019 0.102444,0.01061 0.260337,0.101692 0.248409,0.462735 0.211952,0.685299 -0.02553,0.155943 -0.08073,0.305777 -0.130704,0.455687 -0.05355,0.160644 -0.283141,0.540845 -0.498091,0.483952 -0.100751,-0.02667 -0.07453,-0.25051 0.05652,-0.233143 0.105085,0.01392 0.198882,0.09232 0.282604,0.151892 0.244618,0.174051 0.533257,0.318572 0.826622,0.176628"
       id="path7865" /><path
       style="font-variation-settings:normal;opacity:1;fill:none;fill-opacity:1;stroke:#000000;stroke-width:0.264583;stroke-linecap:round;stroke-linejoin:round;stroke-miterlimit:4;stroke-dasharray:none;stroke-dashoffset:0;stroke-opacity:1;stop-color:#000000;stop-opacity:1"
       d="m 62.094587,90.120459 c 0.336576,0.02058 0.673477,0.01138 1.010307,0.01767 0.16697,0.0031 0.36389,0.03883 0.49103,-0.08831"
       id="path7867" /><path
       style="font-variation-settings:normal;opacity:1;fill:none;fill-opacity:1;stroke:#000000;stroke-width:0.264583;stroke-linecap:round;stroke-linejoin:round;stroke-miterlimit:4;stroke-dasharray:none;stroke-dashoffset:0;stroke-opacity:1;stop-color:#000000;stop-opacity:1"
       d="m 62.984794,89.237343 c -0.0306,0.134234 -0.0663,0.267404 -0.0919,0.402701 -0.0378,0.200642 -0.0505,0.405233 -0.0777,0.607584 -0.0385,0.286001 -0.0918,0.576159 -0.0918,0.865455"
       id="path7869" /><path
       style="font-variation-settings:normal;opacity:1;fill:none;fill-opacity:1;stroke:#000000;stroke-width:0.264583;stroke-linecap:round;stroke-linejoin:round;stroke-miterlimit:4;stroke-dasharray:none;stroke-dashoffset:0;stroke-opacity:1;stop-color:#000000;stop-opacity:1"
       d="m 65.111394,88.251783 c -0.25866,1.388528 0.13072,-0.661172 -0.15543,0.713558 -0.0702,0.337095 -0.13615,0.703328 -0.0812,1.049144 0.0433,0.272947 0.57798,0.0897 0.72064,0.05652 0.0541,-0.01259 0.21002,-0.04061 0.26495,-0.07065 0.0724,-0.0396 0.10311,-0.08148 0.1519,-0.137768"
       id="path7871" /><path
       style="font-variation-settings:normal;opacity:1;fill:none;fill-opacity:1;stroke:#000000;stroke-width:0.264583;stroke-linecap:round;stroke-linejoin:round;stroke-miterlimit:4;stroke-dasharray:none;stroke-dashoffset:0;stroke-opacity:1;stop-color:#000000;stop-opacity:1"
       d="m 66.128774,89.159627 c -0.11695,0.579088 -0.17342,1.172072 -0.17663,1.762702 -7.9e-4,0.143922 -0.0174,0.360227 0.007,0.519274"
       id="path7873" /><path
       style="font-variation-settings:normal;opacity:1;fill:none;fill-opacity:1;stroke:#000000;stroke-width:0.264583;stroke-linecap:round;stroke-linejoin:round;stroke-miterlimit:4;stroke-dasharray:none;stroke-dashoffset:0;stroke-opacity:1;stop-color:#000000;stop-opacity:1"
       d="m 66.644524,87.704252 c 0.16382,0.417608 0.33062,0.839734 0.38152,1.289349 0.0489,0.431797 -2.4e-4,0.863452 -0.0459,1.292884 -0.0293,0.275404 -0.0706,0.556413 -0.1731,0.816001 -0.0731,0.185222 -0.16663,0.360752 -0.23668,0.547534 -0.0238,0.0634 -0.0465,0.132802 -0.0812,0.190752 -0.0206,0.03439 -0.0411,0.06873 -0.0636,0.102441 -0.005,0.0079 -0.0141,0.03422 -0.0141,0.02474 0,-0.01548 0.005,-0.03062 0.007,-0.04592"
       id="path7877" /><path
       style="font-variation-settings:normal;opacity:1;fill:none;fill-opacity:1;stroke:#000000;stroke-width:0.264583;stroke-linecap:round;stroke-linejoin:round;stroke-miterlimit:4;stroke-dasharray:none;stroke-dashoffset:0;stroke-opacity:1;stop-color:#000000;stop-opacity:1"
       d="m 168.47202,118.51231 c -1.56293,-0.24395 -3.14508,-0.10654 -4.71883,-0.12804 -1.39192,-0.019 -2.78913,-0.0377 -4.17893,-0.12163 -1.42153,-0.0859 -2.83229,-0.26561 -4.24906,-0.39692 -1.77518,-0.16451 -3.54822,-0.32632 -5.32182,-0.50574 -2.11366,-0.21382 -4.23166,-0.38532 -6.33853,-0.65299 -1.18737,-0.15086 -2.36591,-0.36822 -3.54789,-0.55057 -2.89439,-0.44652 -5.79605,-0.9054 -8.65238,-1.53005 -1.25629,-0.27474 -2.48909,-0.62909 -3.73019,-0.95388 -2.4683,-0.64595 -4.93581,-1.28224 -7.39026,-1.97178 -1.23044,-0.34567 -2.47664,-0.66691 -3.69513,-1.04991 -0.68913,-0.21661 -1.3723,-0.44914 -2.06143,-0.6658 -1.7075,-0.53683 -3.39536,-1.07511 -5.0624,-1.7093 -1.89527,-0.72102 -3.8047,-1.43666 -5.49012,-2.52874 -3.86588,-2.50495 -7.950292,-4.97508 -10.671702,-8.604137 -1.41694,-1.889513 -2.77145,-3.563839 -3.32351,-5.832112 -0.195587,-0.803529 -0.26645,-1.372132 -0.26645,-2.189445 0,-0.194665 0.0092,-0.620521 0.0092,-0.810657"
       id="path8967"
       sodipodi:nodetypes="cssssssssssssssssc" /><path
       style="font-variation-settings:normal;fill:none;fill-opacity:1;stroke:#000000;stroke-width:0.264583;stroke-linecap:round;stroke-linejoin:round;stroke-miterlimit:4;stroke-dasharray:1.13347, 2.26693;stroke-dashoffset:0;stroke-opacity:1;stop-color:#000000"
       d="m 11.043755,118.32425 c 1.562934,-0.24395 3.145084,-0.10654 4.718841,-0.12804 1.391921,-0.019 2.789126,-0.0377 4.178929,-0.12163 1.42153,-0.0859 2.832282,-0.26562 4.24906,-0.39692 1.775181,-0.16451 3.548214,-0.32633 5.321826,-0.50575 2.113656,-0.21381 4.23165,-0.38531 6.338524,-0.65299 1.187372,-0.15085 2.365905,-0.36822 3.547889,-0.55056 2.89439,-0.44652 5.796049,-0.9054 8.652375,-1.53005 1.256291,-0.27474 2.4891,-0.62909 3.730185,-0.95388 2.468312,-0.64596 4.935812,-1.28224 7.390267,-1.97178 1.23044,-0.34567 2.476648,-0.66691 3.69514,-1.04991 0.68912,-0.21661 1.372289,-0.44914 2.061426,-0.6658 1.707506,-0.53683 3.395366,-1.07511 5.06239,-1.7093 1.895286,-0.72103 3.804699,-1.43667 5.490116,-2.52874 3.865896,-2.50495 7.950309,-4.97508 10.671706,-8.604138 1.416938,-1.889515 2.771451,-3.563841 3.323526,-5.832114 0.195569,-0.803527 0.266445,-1.372132 0.266445,-2.189445 0,-0.194664 -0.0092,-0.620521 -0.0092,-0.810655"
       id="path8969"
       sodipodi:nodetypes="cssssssssssssssssc" /><path
       style="font-variation-settings:normal;opacity:1;vector-effect:none;fill:none;fill-opacity:1;stroke:#000000;stroke-width:0.264583px;stroke-linecap:round;stroke-linejoin:round;stroke-miterlimit:4;stroke-dasharray:none;stroke-dashoffset:0;stroke-opacity:1;-inkscape-stroke:none;stop-color:#000000;stop-opacity:1"
       d="m -2.8826494,34.56527 c -0.033255,-0.01069 -0.3573618,-0.13689 -0.4779348,-0.128672 -0.064869,0.0044 -0.2198862,0.06919 -0.2757324,0.09191 -0.2262311,0.09202 -0.4706501,0.173775 -0.6495028,0.34925 -0.3650001,0.358103 -0.5154917,0.853794 -0.6372471,1.33573 -0.2370088,0.938133 -0.1859365,2.051002 0.7965596,2.512155 0.598492,0.280916 1.4148244,0.368668 2.0587996,0.2696 0.292305,-0.04497 0.6279565,-0.270861 0.8271962,-0.465668 0.72976934,-0.713534 0.33329334,-2.399453 -0.3124959,-3.045225 -0.2031222,-0.203115 -0.4751713,-0.380224 -0.7291583,-0.514686 -0.1009214,-0.05343 -0.2228382,-0.09439 -0.312496,-0.165433 -0.097765,-0.07747 -0.1919919,-0.159308 -0.2879881,-0.238961 z"
       id="path9680" /><circle
       id="path11390"
       style="fill:#000000;stroke:none;stroke-width:0.264583"
       cx="52.533401"
       cy="62.850876"
       r="0.92604053" /><circle
       id="path11392"
       style="fill:#000000;stroke:none;stroke-width:0.264583"
       cx="101.84338"
       cy="72.309204"
       r="0.92604053" /><circle
       id="path11394"
       style="fill:#000000;stroke:none;stroke-width:0.264583"
       cx="89.809059"
       cy="88.152794"
       r="0.92604053" /><circle
       id="path11400"
       style="fill:#000000;stroke:none;stroke-width:0.264583"
       cx="52.520531"
       cy="113.21619"
       r="0.92604053" /><circle
       id="path11404"
       style="fill:#000000;stroke:none;stroke-width:0.264583"
       cx="126.03329"
       cy="113.21085"
       r="0.92604053" /><circle
       id="path11406"
       style="fill:#000000;stroke:none;stroke-width:0.264583"
       cx="52.411049"
       cy="88.119598"
       r="1.8520811" /><path
       style="font-variation-settings:normal;fill:none;fill-opacity:1;stroke:#b3b3b3;stroke-width:0.264583;stroke-linecap:round;stroke-linejoin:round;stroke-miterlimit:4;stroke-dasharray:0.264583, 0.793749;stroke-dashoffset:0;stroke-opacity:1;stop-color:#000000"
       d="m 24.527591,49.333779 c -0.283119,0.02066 -0.318664,0.02709 -0.593365,0.03335 -0.472416,0.01074 -0.948358,-1.35e-4 -1.42017,0.01283 -0.2894,0.0079 -0.57675,0.03263 -0.865729,0.04361 -1.091082,0.04148 -2.188665,0.07635 -3.282937,0.05387 -0.828662,-0.01701 -1.652317,-0.08809 -2.480443,-0.110302 -0.481359,-0.01291 -0.964227,-7.7e-5 -1.444493,-0.02822 -0.703539,-0.04122 -1.408377,0.07942 -2.105945,0.112869 -0.372586,0.01786 -0.751789,0.0089 -1.123494,-0.01027 -0.168323,-0.0087 -0.336572,-0.02659 -0.500954,-0.04104 -0.01649,-0.0013 -0.150387,-0.0047 -0.150767,-0.01027 -0.0015,-0.02315 0.0064,-0.04617 0.0098,-0.06926"
       id="path6164" /><path
       style="font-variation-settings:normal;fill:none;fill-opacity:1;stroke:#b3b3b3;stroke-width:0.264583;stroke-linecap:round;stroke-linejoin:round;stroke-miterlimit:4;stroke-dasharray:none;stroke-dashoffset:0;stroke-opacity:1;stop-color:#000000"
       d="M 24.612631,49.348342 H 151.74861"
       id="path6658" /><path
       style="font-variation-settings:normal;fill:none;fill-opacity:1;stroke:#b3b3b3;stroke-width:0.264583;stroke-linecap:round;stroke-linejoin:round;stroke-miterlimit:4;stroke-dasharray:0.264583, 0.793749;stroke-dashoffset:0;stroke-opacity:1;stop-color:#000000"
       d="m 151.91891,49.359711 h 16.77581"
       id="path6660" /><circle
       id="path13741"
       style="fill:#000000;stroke:none;stroke-width:0.264583"
       cx="89.849602"
       cy="18.453835"
       r="1.8520811" /><path
       style="font-variation-settings:normal;opacity:1;vector-effect:none;fill:none;fill-opacity:1;stroke:#000000;stroke-width:0.264583px;stroke-linecap:round;stroke-linejoin:round;stroke-miterlimit:4;stroke-dasharray:none;stroke-dashoffset:0;stroke-opacity:1;-inkscape-stroke:none;stop-color:#000000;stop-opacity:1"
       d="m 77.689778,21.554623 c -0.685779,0.990285 -1.187426,2.120403 -1.195531,3.338813 -7.93e-4,0.138321 -0.01675,0.278391 0.0054,0.414937 0.05686,0.351217 0.127794,0.701541 0.230527,1.042175 0.08837,0.293014 0.240178,0.605035 0.412805,0.868478 0.0085,0.01294 0.165222,0.247915 0.219808,0.250891 0.03706,0.0021 0.04646,-0.0579 0.06969,-0.08685"
       id="path13745" /><path
       style="font-variation-settings:normal;opacity:1;vector-effect:none;fill:none;fill-opacity:1;stroke:#000000;stroke-width:0.264583px;stroke-linecap:round;stroke-linejoin:round;stroke-miterlimit:4;stroke-dasharray:none;stroke-dashoffset:0;stroke-opacity:1;-inkscape-stroke:none;stop-color:#000000;stop-opacity:1"
       d="m 78.595804,22.587146 c 0.382217,1.204294 1.063395,2.267003 1.779891,3.295391 0.270085,0.387649 0.588923,0.90181 1.018615,1.133845"
       id="path13747" /><path
       style="font-variation-settings:normal;opacity:1;vector-effect:none;fill:none;fill-opacity:1;stroke:#000000;stroke-width:0.264583px;stroke-linecap:round;stroke-linejoin:round;stroke-miterlimit:4;stroke-dasharray:none;stroke-dashoffset:0;stroke-opacity:1;-inkscape-stroke:none;stop-color:#000000;stop-opacity:1"
       d="m 78.520747,26.678638 c 0.784389,-1.002171 1.467016,-2.086278 2.27848,-3.068619 0.156959,-0.190013 0.315563,-0.3618 0.4825,-0.540385 0.03704,-0.03962 0.145333,-0.155706 0.123303,-0.106149"
       id="path13749" /><path
       style="font-variation-settings:normal;opacity:1;vector-effect:none;fill:none;fill-opacity:1;stroke:#000000;stroke-width:0.264583px;stroke-linecap:round;stroke-linejoin:round;stroke-miterlimit:4;stroke-dasharray:none;stroke-dashoffset:0;stroke-opacity:1;-inkscape-stroke:none;stop-color:#000000;stop-opacity:1"
       d="m 81.989395,21.844115 c 0.0822,-0.09167 0.141478,-0.210923 0.24661,-0.275018 0.324911,-0.198083 0.652886,0.180031 0.643337,0.506612 -0.0065,0.220906 -0.09295,0.481066 -0.225166,0.656182 -0.198583,0.263018 -0.343427,0.409274 -0.621893,0.521087 -0.04573,0.01836 -0.235272,0.05424 -0.182279,-0.08202 0.04461,-0.114706 0.679868,0.187399 0.777364,0.217119 0.543481,0.16567 0.355204,0.140669 0.884587,0.0096"
       id="path13751" /><path
       style="font-variation-settings:normal;opacity:1;vector-effect:none;fill:none;fill-opacity:1;stroke:#000000;stroke-width:0.264583px;stroke-linecap:round;stroke-linejoin:round;stroke-miterlimit:4;stroke-dasharray:none;stroke-dashoffset:0;stroke-opacity:1;-inkscape-stroke:none;stop-color:#000000;stop-opacity:1"
       d="m 84.289314,24.893436 c 0.733645,-0.156633 1.464757,0.0452 2.198063,0.0386 0.15874,-0.0014 0.118354,-0.01489 0.112583,-0.144747"
       id="path13753" /><path
       style="font-variation-settings:normal;opacity:1;vector-effect:none;fill:none;fill-opacity:1;stroke:#000000;stroke-width:0.264583px;stroke-linecap:round;stroke-linejoin:round;stroke-miterlimit:4;stroke-dasharray:none;stroke-dashoffset:0;stroke-opacity:1;-inkscape-stroke:none;stop-color:#000000;stop-opacity:1"
       d="m 85.533094,23.711341 c -0.01072,0.106147 -0.02241,0.212201 -0.03216,0.318443 -0.05812,0.63377 -0.05404,0.571708 -0.08578,1.114544 -0.02238,0.382857 -0.02267,0.336641 -0.0268,0.685135 -5.29e-4,0.04342 0,0.173691 0,0.130268"
       id="path13755" /><path
       style="font-variation-settings:normal;opacity:1;vector-effect:none;fill:none;fill-opacity:1;stroke:#000000;stroke-width:0.264583px;stroke-linecap:round;stroke-linejoin:round;stroke-miterlimit:4;stroke-dasharray:none;stroke-dashoffset:0;stroke-opacity:1;-inkscape-stroke:none;stop-color:#000000;stop-opacity:1"
       d="m 89.028547,21.897189 c -0.168855,0.655234 -0.522809,1.242817 -0.654058,1.910649 -0.0092,0.04692 -0.08552,0.577464 -0.06969,0.612761 0.05623,0.125458 0.149238,0.257909 0.278778,0.303966 0.238355,0.08475 1.174144,-0.01852 1.442143,-0.159223"
       id="path13777" /><path
       style="font-variation-settings:normal;opacity:1;vector-effect:none;fill:none;fill-opacity:1;stroke:#000000;stroke-width:0.264583px;stroke-linecap:round;stroke-linejoin:round;stroke-miterlimit:4;stroke-dasharray:none;stroke-dashoffset:0;stroke-opacity:1;-inkscape-stroke:none;stop-color:#000000;stop-opacity:1"
       d="m 90.497492,23.455622 c -0.214823,0.834285 -0.332573,1.68865 -0.43425,2.542708 -0.02294,0.192743 -0.119443,0.790081 -0.04825,0.94568 0.0065,0.01413 0.02742,-0.01897 0.03216,-0.03378 0.02008,-0.06266 0.05894,-0.272936 0.07506,-0.357042"
       id="path13779" /><path
       style="font-variation-settings:normal;opacity:1;vector-effect:none;fill:none;fill-opacity:1;stroke:#000000;stroke-width:0.264583px;stroke-linecap:round;stroke-linejoin:round;stroke-miterlimit:4;stroke-dasharray:none;stroke-dashoffset:0;stroke-opacity:1;-inkscape-stroke:none;stop-color:#000000;stop-opacity:1"
       d="m 92.073663,26.070706 c -0.909733,1.691078 -0.486315,1.19476 -0.938197,1.717656"
       id="path13781" /><path
       style="font-variation-settings:normal;opacity:1;vector-effect:none;fill:none;fill-opacity:1;stroke:#000000;stroke-width:0.264583px;stroke-linecap:round;stroke-linejoin:round;stroke-miterlimit:4;stroke-dasharray:none;stroke-dashoffset:0;stroke-opacity:1;-inkscape-stroke:none;stop-color:#000000;stop-opacity:1"
       d="m 95.419004,22.871814 c -0.01072,-0.09328 -0.04947,-0.187556 -0.03217,-0.279844 0.01624,-0.08667 0.254101,-0.217155 0.300223,-0.231593 0.410876,-0.128619 0.864856,-0.135533 1.195527,0.202644 0.282179,0.288582 0.01714,1.273642 -0.01072,1.35579 -0.185169,0.54595 -0.41261,1.08863 -0.739833,1.56326 -0.203978,0.295861 -0.520886,0.500809 -0.820254,0.699606 -0.606128,0.402505 -0.623805,-1.081413 0.06433,-0.728556 0.373425,0.191483 0.621855,0.573679 1.023972,0.723733 0.52425,0.195629 0.990301,-0.128515 1.415335,-0.390817"
       id="path13785" /><path
       style="font-variation-settings:normal;opacity:1;vector-effect:none;fill:none;fill-opacity:1;stroke:#000000;stroke-width:0.264583px;stroke-linecap:round;stroke-linejoin:round;stroke-miterlimit:4;stroke-dasharray:none;stroke-dashoffset:0;stroke-opacity:1;-inkscape-stroke:none;stop-color:#000000;stop-opacity:1"
       d="m 98.072756,22.119132 c 0.712947,1.249494 -0.372083,-0.668332 0.423529,0.80093 0.07211,0.13316 0.420032,0.735749 0.648695,0.665833 0.222684,-0.06809 0.423437,-0.205742 0.600446,-0.357041 0.142401,-0.121717 0.498164,-0.596037 0.664774,-0.815404 0.0919,-0.120965 0.15456,-0.124707 0.0322,-0.164045"
       id="path13793" /><path
       style="font-variation-settings:normal;opacity:1;vector-effect:none;fill:none;fill-opacity:1;stroke:#000000;stroke-width:0.264583px;stroke-linecap:round;stroke-linejoin:round;stroke-miterlimit:4;stroke-dasharray:none;stroke-dashoffset:0;stroke-opacity:1;-inkscape-stroke:none;stop-color:#000000;stop-opacity:1"
       d="m 99.150341,23.441149 c 0.08442,0.711771 0.100303,1.430984 0.08042,2.14707 -0.0031,0.113511 -0.01609,0.223937 -0.01609,0.33774 0,0.04507 0.0044,0.179092 -0.0054,0.135098"
       id="path13795" /><path
       style="font-variation-settings:normal;opacity:1;vector-effect:none;fill:none;fill-opacity:1;stroke:#000000;stroke-width:0.264583px;stroke-linecap:round;stroke-linejoin:round;stroke-miterlimit:4;stroke-dasharray:none;stroke-dashoffset:0;stroke-opacity:1;-inkscape-stroke:none;stop-color:#000000;stop-opacity:1"
       d="m 101.58429,24.261376 c 0.59574,0.06672 1.19348,0.05902 1.79061,0.02413 0.0964,-0.0056 0.31095,0.02672 0.31095,-0.125446"
       id="path13797" /><path
       style="font-variation-settings:normal;opacity:1;vector-effect:none;fill:none;fill-opacity:1;stroke:#000000;stroke-width:0.264583px;stroke-linecap:round;stroke-linejoin:round;stroke-miterlimit:4;stroke-dasharray:none;stroke-dashoffset:0;stroke-opacity:1;-inkscape-stroke:none;stop-color:#000000;stop-opacity:1"
       d="m 104.64013,22.331427 c 0.37997,0.589239 0.33795,0.549688 0.78808,1.133846 0.50987,0.661671 1.04002,1.310002 1.56009,1.963724 0.11948,0.150193 0.57916,0.73248 0.72911,0.786452 0.008,0.0028 -2.3e-4,-0.01767 -0.005,-0.02412 -0.0491,-0.06181 -0.10365,-0.119014 -0.15547,-0.17852"
       id="path13799" /><path
       style="font-variation-settings:normal;opacity:1;vector-effect:none;fill:none;fill-opacity:1;stroke:#000000;stroke-width:0.264583px;stroke-linecap:round;stroke-linejoin:round;stroke-miterlimit:4;stroke-dasharray:none;stroke-dashoffset:0;stroke-opacity:1;-inkscape-stroke:none;stop-color:#000000;stop-opacity:1"
       d="m 104.48466,25.974206 c 0.75211,-1.038983 1.60674,-1.993845 2.47683,-2.933523 0.13092,-0.141391 0.51991,-0.625579 0.67551,-0.718905"
       id="path13801" /><path
       style="font-variation-settings:normal;opacity:1;vector-effect:none;fill:none;fill-opacity:1;stroke:#000000;stroke-width:0.264583px;stroke-linecap:round;stroke-linejoin:round;stroke-miterlimit:4;stroke-dasharray:none;stroke-dashoffset:0;stroke-opacity:1;-inkscape-stroke:none;stop-color:#000000;stop-opacity:1"
       d="m 109.20245,24.073207 c 0.10543,-0.0096 0.21067,-0.02172 0.3163,-0.02895 0.3146,-0.02152 0.72138,-0.04249 1.04542,-0.04825 0.3151,-0.0056 0.7311,0.061 0.61653,-0.06272"
       id="path13807" /><path
       style="font-variation-settings:normal;opacity:1;vector-effect:none;fill:none;fill-opacity:1;stroke:#000000;stroke-width:0.264583px;stroke-linecap:round;stroke-linejoin:round;stroke-miterlimit:4;stroke-dasharray:none;stroke-dashoffset:0;stroke-opacity:1;-inkscape-stroke:none;stop-color:#000000;stop-opacity:1"
       d="m 112.68181,22.345902 c -0.002,-0.08524 -0.0417,-0.178613 -0.005,-0.255718 0.0349,-0.07408 0.40928,-0.171428 0.43425,-0.173696 0.69808,-0.0634 0.96009,-0.177072 1.4475,0.332917 0.0803,0.08402 0.12533,0.21211 0.11795,0.328092 -0.0202,0.318294 -0.0823,0.638941 -0.19837,0.936024 -0.24744,0.633532 -0.9428,1.524103 -1.57081,1.843104 -0.94942,0.482266 -0.90311,-0.754783 -0.32166,-0.714084 0.23258,0.01628 0.62787,0.431036 0.81489,0.550035 0.16936,0.107761 0.34398,0.208387 0.52539,0.294318 0.51613,0.244477 1.20043,-0.110834 1.6137,-0.405289"
       id="path13811" /><path
       style="font-variation-settings:normal;opacity:1;vector-effect:none;fill:none;fill-opacity:1;stroke:#000000;stroke-width:0.264583px;stroke-linecap:round;stroke-linejoin:round;stroke-miterlimit:4;stroke-dasharray:none;stroke-dashoffset:0;stroke-opacity:1;-inkscape-stroke:none;stop-color:#000000;stop-opacity:1"
       d="m 116.0486,20.980462 c 0.26448,0.519478 0.6264,0.999949 0.79344,1.558435 0.35768,1.1959 0.0263,2.493128 -0.31094,3.64278 -0.0873,0.297521 -0.20271,0.595688 -0.29486,0.540387"
       id="path13813" /><path
       style="font-variation-settings:normal;opacity:1;vector-effect:none;fill:none;fill-opacity:1;stroke:#000000;stroke-width:0.264583px;stroke-linecap:round;stroke-linejoin:round;stroke-miterlimit:4;stroke-dasharray:none;stroke-dashoffset:0;stroke-opacity:1;-inkscape-stroke:none;stop-color:#000000;stop-opacity:1"
       d="m 41.089408,44.900823 c 2.035307,-2.112962 4.125161,-4.158586 6.305838,-6.121135 2.294411,-2.064907 4.333719,-4.370094 6.485101,-6.576656 1.642499,-1.684628 3.260643,-3.392685 4.903372,-5.077221 2.324614,-2.383781 4.676439,-4.731238 6.917442,-7.19352 1.977183,-2.17241 3.932062,-4.362433 5.915683,-6.52921 0.646097,-0.705754 1.249056,-1.434336 1.855902,-2.173243 0.183657,-0.223625 0.373192,-0.442362 0.558876,-0.664308 0.08446,-0.100947 0.201576,-0.228867 0.06327,-0.104392"
       id="path13827" /><path
       style="font-variation-settings:normal;opacity:1;vector-effect:none;fill:none;fill-opacity:1;stroke:#000000;stroke-width:0.264583px;stroke-linecap:round;stroke-linejoin:round;stroke-miterlimit:4;stroke-dasharray:none;stroke-dashoffset:0;stroke-opacity:1;-inkscape-stroke:none;stop-color:#000000;stop-opacity:1"
       d="m 54.070162,47.244888 c 1.32243,-1.880748 0.485849,-0.749014 2.267148,-2.96092 1.630408,-2.024536 3.234704,-4.057922 4.956093,-6.007259 1.000887,-1.133424 2.090711,-2.186008 3.100197,-3.312051 0.691163,-0.770964 1.324356,-1.584023 2.003523,-2.363041 0.688869,-0.790149 1.594932,-1.419294 2.446414,-2.021399 0.416674,-0.29464 1.001827,-0.545795 1.233755,-1.015447"
       id="path13829" /><path
       style="font-variation-settings:normal;opacity:1;vector-effect:none;fill:none;fill-opacity:1;stroke:#000000;stroke-width:0.264583px;stroke-linecap:round;stroke-linejoin:round;stroke-miterlimit:4;stroke-dasharray:none;stroke-dashoffset:0;stroke-opacity:1;-inkscape-stroke:none;stop-color:#000000;stop-opacity:1"
       d="m 79.757497,18.005794 c 1.854361,-2.217949 3.937761,-4.399898 6.442924,-5.902862"
       id="path13831" /><path
       style="font-variation-settings:normal;opacity:1;vector-effect:none;fill:none;fill-opacity:1;stroke:#000000;stroke-width:0.264583px;stroke-linecap:round;stroke-linejoin:round;stroke-miterlimit:4;stroke-dasharray:none;stroke-dashoffset:0;stroke-opacity:1;-inkscape-stroke:none;stop-color:#000000;stop-opacity:1"
       d="m 70.161649,46.542618 c 2.550115,-3.705444 5.360609,-7.240807 8.48863,-10.477103 0.650851,-0.67338 1.406464,-1.229527 2.0668,-1.888537 0.731163,-0.729692 1.379104,-1.543826 1.992982,-2.372535"
       id="path13833" /><path
       style="font-variation-settings:normal;opacity:1;vector-effect:none;fill:none;fill-opacity:1;stroke:#000000;stroke-width:0.264583px;stroke-linecap:round;stroke-linejoin:round;stroke-miterlimit:4;stroke-dasharray:none;stroke-dashoffset:0;stroke-opacity:1;-inkscape-stroke:none;stop-color:#000000;stop-opacity:1"
       d="m 98.09505,16.278589 c 1.385364,-1.875511 3.34705,-3.003416 5.06154,-4.479342"
       id="path13835" /><path
       style="font-variation-settings:normal;opacity:1;vector-effect:none;fill:none;fill-opacity:1;stroke:#000000;stroke-width:0.264583px;stroke-linecap:round;stroke-linejoin:round;stroke-miterlimit:4;stroke-dasharray:none;stroke-dashoffset:0;stroke-opacity:1;-inkscape-stroke:none;stop-color:#000000;stop-opacity:1"
       d="m 82.783875,46.74191 c 0.667842,-0.907888 1.260083,-1.876576 2.003528,-2.723668 0.794411,-0.905166 1.731513,-1.674376 2.594044,-2.514886 0.708665,-0.69057 1.432168,-1.366549 2.119521,-2.078334 1.797884,-1.861791 3.255627,-4.070559 5.240806,-5.75102 0.4113,-0.348168 0.865023,-0.607602 1.307568,-0.911056"
       id="path13837" /><path
       style="font-variation-settings:normal;opacity:1;vector-effect:none;fill:none;fill-opacity:1;stroke:#000000;stroke-width:0.264583px;stroke-linecap:round;stroke-linejoin:round;stroke-miterlimit:4;stroke-dasharray:none;stroke-dashoffset:0;stroke-opacity:1;-inkscape-stroke:none;stop-color:#000000;stop-opacity:1"
       d="m 110.50637,18.034265 c 1.56976,-1.627421 3.33742,-3.022486 5.12481,-4.393931 0.33967,-0.260622 0.69189,-0.466382 1.00177,-0.759212"
       id="path13839" /><path
       style="font-variation-settings:normal;opacity:1;vector-effect:none;fill:none;fill-opacity:1;stroke:#000000;stroke-width:0.264583px;stroke-linecap:round;stroke-linejoin:round;stroke-miterlimit:4;stroke-dasharray:none;stroke-dashoffset:0;stroke-opacity:1;-inkscape-stroke:none;stop-color:#000000;stop-opacity:1"
       d="m 99.149531,45.176037 c 0.750811,-1.043667 1.712639,-1.924881 2.636219,-2.809076 1.29109,-1.236027 2.73642,-2.318014 3.97543,-3.606252 0.79766,-0.829342 1.51854,-1.693571 2.2777,-2.552845 0.62608,-0.70865 1.28009,-1.391587 1.91916,-2.087827 0.3128,-0.340781 0.63302,-0.663239 0.98067,-0.967994 0.41202,-0.361181 1.23495,-0.900589 1.41302,-1.461482"
       id="path13845" /><path
       style="font-variation-settings:normal;opacity:1;vector-effect:none;fill:none;fill-opacity:1;stroke:#000000;stroke-width:0.264583px;stroke-linecap:round;stroke-linejoin:round;stroke-miterlimit:4;stroke-dasharray:none;stroke-dashoffset:0;stroke-opacity:1;-inkscape-stroke:none;stop-color:#000000;stop-opacity:1"
       d="m 122.90716,19.98923 c 1.79072,-1.954718 3.98707,-3.499077 6.14767,-5.020279 0.68908,-0.485161 0.73453,-0.514965 1.28646,-0.930033 0.32167,-0.241903 0.62901,-0.546711 1.01232,-0.673797"
       id="path13847" /><path
       style="font-variation-settings:normal;opacity:1;vector-effect:none;fill:none;fill-opacity:1;stroke:#000000;stroke-width:0.264583px;stroke-linecap:round;stroke-linejoin:round;stroke-miterlimit:4;stroke-dasharray:none;stroke-dashoffset:0;stroke-opacity:1;-inkscape-stroke:none;stop-color:#000000;stop-opacity:1"
       d="m 112.91236,45.365844 c 1.14517,-1.498219 2.58717,-2.78089 3.9227,-4.090252 4.13189,-4.050935 8.15978,-8.205396 12.30588,-12.242268 2.57933,-2.511377 5.26574,-4.909861 7.9403,-7.316889 0.41892,-0.377013 0.79694,-0.795101 1.20211,-1.186267 0.67177,-0.648551 1.39372,-1.260437 2.10898,-1.860066 1.51811,-1.272695 2.87377,-2.745296 4.48157,-3.909933 0.17861,-0.129375 0.87331,-0.473562 0.81196,-0.749722"
       id="path13855" /><path
       style="font-variation-settings:normal;opacity:1;vector-effect:none;fill:none;fill-opacity:1;stroke:#000000;stroke-width:0.264583px;stroke-linecap:round;stroke-linejoin:round;stroke-miterlimit:4;stroke-dasharray:none;stroke-dashoffset:0;stroke-opacity:1;-inkscape-stroke:none;stop-color:#000000;stop-opacity:1"
       d="m 126.64917,44.992147 c 0.6291,-0.710626 1.17074,-1.492864 1.78481,-2.215552 1.59089,-1.872303 3.51399,-3.463748 5.20056,-5.248119 1.28722,-1.361861 2.39021,-2.87568 3.66193,-4.251106 0.97801,-1.057772 2.13053,-1.953746 3.16955,-2.949456 0.7756,-0.743272 1.48964,-1.545055 2.30795,-2.243256 0.67781,-0.578329 1.38008,-1.125011 2.04637,-1.717063 0.92577,-0.82263 1.8161,-1.67814 2.78491,-2.450966 0.41309,-0.329524 0.78293,-0.707064 1.18474,-1.038542 0.15432,-0.127302 0.33366,-0.242401 0.49237,-0.360032 0.14755,-0.109359 0.37304,-0.232869 0.36928,-0.235402 -0.0213,-0.01437 -0.21889,0.01251 -0.23081,0.01385"
       id="path13869" /><path
       style="font-variation-settings:normal;opacity:1;vector-effect:none;fill:none;fill-opacity:1;stroke:#000000;stroke-width:0.264583px;stroke-linecap:round;stroke-linejoin:round;stroke-miterlimit:4;stroke-dasharray:none;stroke-dashoffset:0;stroke-opacity:1;-inkscape-stroke:none;stop-color:#000000;stop-opacity:1"
       d="m 139.41977,44.604429 c 0.40004,-0.424651 0.78178,-0.867328 1.20013,-1.273956 1.45584,-1.415044 3.06892,-2.687518 4.56972,-4.05724 0.74872,-0.68332 1.40856,-1.445458 2.12331,-2.160169 0.54162,-0.541586 1.96621,-1.515861 2.21561,-2.077093"
       id="path13871" /><path
       style="font-variation-settings:normal;opacity:1;vector-effect:none;fill:none;fill-opacity:1;stroke:#000000;stroke-width:0.264583px;stroke-linecap:round;stroke-linejoin:round;stroke-miterlimit:4;stroke-dasharray:none;stroke-dashoffset:0;stroke-opacity:1;-inkscape-stroke:none;stop-color:#000000;stop-opacity:1"
       d="m 28.16606,43.588577 c 1.496658,-1.799799 3.080432,-3.538119 4.716478,-5.212974 1.559219,-1.59621 2.536047,-2.444359 4.357854,-4.127349 1.763003,-1.62867 3.509269,-3.26839 5.259848,-4.909786 0.397468,-0.372676 1.101352,-0.989785 1.521449,-1.398603 1.514713,-1.474039 2.901135,-3.076658 4.368716,-4.596807 1.241999,-1.286489 2.553356,-2.502726 3.749278,-3.833936 0.399984,-0.445232 0.78949,-0.891651 1.16282,-1.359481 0.384497,-0.481826 0.769585,-0.962978 1.16282,-1.437725 0.593441,-0.716456 1.216593,-1.411666 1.793126,-2.141917 0.33206,-0.420595 0.648054,-0.865335 1.02154,-1.251895 0.529484,-0.548019 0.834951,-0.808791 1.228027,-1.437725 0.07886,-0.126172 0.164819,-0.221456 0.260821,-0.332538 0.01905,-0.02204 0.07326,-0.04631 0.05433,-0.06846 -0.03605,-0.04218 -0.09419,-0.05869 -0.141279,-0.08803"
       id="path13883" /><path
       style="font-variation-settings:normal;opacity:1;vector-effect:none;fill:none;fill-opacity:1;stroke:#000000;stroke-width:0.264583px;stroke-linecap:round;stroke-linejoin:round;stroke-miterlimit:4;stroke-dasharray:none;stroke-dashoffset:0;stroke-opacity:1;-inkscape-stroke:none;stop-color:#000000;stop-opacity:1"
       d="m 26.62288,32.331287 c 1.485641,-1.42012 2.63556,-3.13241 4.075298,-4.59681 1.008536,-1.025814 2.080733,-1.987716 3.118964,-2.983036 1.147016,-1.099612 2.265584,-2.221311 3.36891,-3.364471 0.775846,-0.803859 1.61911,-1.547696 2.358242,-2.386428 0.437708,-0.496691 0.836419,-1.026753 1.271495,-1.525752 1.213953,-1.392306 2.490464,-2.723348 3.749272,-4.068663 0.467067,-0.499166 0.854279,-1.101354 1.358432,-1.555091"
       id="path13885" /><path
       style="font-variation-settings:normal;opacity:1;vector-effect:none;fill:none;fill-opacity:1;stroke:#000000;stroke-width:0.264583px;stroke-linecap:round;stroke-linejoin:round;stroke-miterlimit:4;stroke-dasharray:none;stroke-dashoffset:0;stroke-opacity:1;-inkscape-stroke:none;stop-color:#000000;stop-opacity:1"
       d="m 27.318401,19.147246 c 0.318778,-0.387957 0.611457,-0.798919 0.956334,-1.163872 0.491709,-0.520333 1.061479,-0.960964 1.586648,-1.447504 0.912513,-0.84539 1.811197,-1.704924 2.782072,-2.484235 0.519258,-0.416803 0.993347,-0.878231 1.499711,-1.31058 0.02569,-0.02193 0.436841,-0.392452 0.347758,-0.205388"
       id="path13887" /><path
       style="font-variation-settings:normal;fill:none;fill-opacity:1;stroke:#b3b3b3;stroke-width:0.264583;stroke-linecap:round;stroke-linejoin:round;stroke-miterlimit:4;stroke-dasharray:0.264583, 0.793749;stroke-dashoffset:0;stroke-opacity:1;stop-color:#000000"
       d="m 24.527591,1.0943758 c -0.283119,0.02066 -0.318664,0.02709 -0.593365,0.03335 -0.472416,0.01074 -0.948358,-1.35e-4 -1.42017,0.01283 -0.2894,0.0079 -0.57675,0.03263 -0.865729,0.04361 -1.091082,0.04148 -2.188665,0.07635 -3.282937,0.05387 -0.828662,-0.01701 -1.652317,-0.08809 -2.480443,-0.110302 -0.481359,-0.01291 -0.964227,-7.7e-5 -1.444493,-0.02822 -0.703539,-0.04122 -1.408377,0.07942 -2.105945,0.112869 -0.372586,0.01786 -0.751789,0.0089 -1.123494,-0.01027 -0.168323,-0.0087 -0.336572,-0.02659 -0.500954,-0.04104 -0.01649,-0.0013 -0.150387,-0.0047 -0.150767,-0.01027 -0.0015,-0.02315 0.0064,-0.04617 0.0098,-0.06926"
       id="path14925" /><path
       style="font-variation-settings:normal;fill:none;fill-opacity:1;stroke:#b3b3b3;stroke-width:0.264583;stroke-linecap:round;stroke-linejoin:round;stroke-miterlimit:4;stroke-dasharray:none;stroke-dashoffset:0;stroke-opacity:1;stop-color:#000000"
       d="M 24.612631,1.1089388 H 151.74861"
       id="path14927" /><path
       style="font-variation-settings:normal;fill:none;fill-opacity:1;stroke:#b3b3b3;stroke-width:0.264583;stroke-linecap:round;stroke-linejoin:round;stroke-miterlimit:4;stroke-dasharray:0.264583, 0.793749;stroke-dashoffset:0;stroke-opacity:1;stop-color:#000000"
       d="m 151.91891,1.1203078 h 16.77581"
       id="path14929" /><circle
       id="circle14931"
       style="fill:#000000;stroke:none;stroke-width:0.264583"
       cx="89.849602"
       cy="-29.785568"
       r="1.8520811" /><path
       style="font-variation-settings:normal;opacity:1;vector-effect:none;fill:none;fill-opacity:1;stroke:#000000;stroke-width:0.264583px;stroke-linecap:round;stroke-linejoin:round;stroke-miterlimit:4;stroke-dasharray:none;stroke-dashoffset:0;stroke-opacity:1;-inkscape-stroke:none;stop-color:#000000;stop-opacity:1"
       d="m 77.689778,-26.68478 c -0.685779,0.990285 -1.187426,2.120403 -1.195531,3.338813 -7.93e-4,0.138321 -0.01675,0.278391 0.0054,0.414937 0.05686,0.351217 0.127794,0.701541 0.230527,1.042175 0.08837,0.293014 0.240178,0.605035 0.412805,0.868478 0.0085,0.01294 0.165222,0.247915 0.219808,0.250891 0.03706,0.0021 0.04646,-0.0579 0.06969,-0.08685"
       id="path14933" /><path
       style="font-variation-settings:normal;opacity:1;vector-effect:none;fill:none;fill-opacity:1;stroke:#000000;stroke-width:0.264583px;stroke-linecap:round;stroke-linejoin:round;stroke-miterlimit:4;stroke-dasharray:none;stroke-dashoffset:0;stroke-opacity:1;-inkscape-stroke:none;stop-color:#000000;stop-opacity:1"
       d="m 78.595804,-25.652257 c 0.382217,1.204294 1.063395,2.267003 1.779891,3.295391 0.270085,0.387649 0.588923,0.90181 1.018615,1.133845"
       id="path14935" /><path
       style="font-variation-settings:normal;opacity:1;vector-effect:none;fill:none;fill-opacity:1;stroke:#000000;stroke-width:0.264583px;stroke-linecap:round;stroke-linejoin:round;stroke-miterlimit:4;stroke-dasharray:none;stroke-dashoffset:0;stroke-opacity:1;-inkscape-stroke:none;stop-color:#000000;stop-opacity:1"
       d="m 78.520747,-21.560765 c 0.784389,-1.002171 1.467016,-2.086278 2.27848,-3.068619 0.156959,-0.190013 0.315563,-0.3618 0.4825,-0.540385 0.03704,-0.03962 0.145333,-0.155706 0.123303,-0.106149"
       id="path14937" /><path
       style="font-variation-settings:normal;opacity:1;vector-effect:none;fill:none;fill-opacity:1;stroke:#000000;stroke-width:0.264583px;stroke-linecap:round;stroke-linejoin:round;stroke-miterlimit:4;stroke-dasharray:none;stroke-dashoffset:0;stroke-opacity:1;-inkscape-stroke:none;stop-color:#000000;stop-opacity:1"
       d="m 81.989395,-26.395288 c 0.0822,-0.09167 0.141478,-0.210923 0.24661,-0.275018 0.324911,-0.198083 0.652886,0.180031 0.643337,0.506612 -0.0065,0.220906 -0.09295,0.481066 -0.225166,0.656182 -0.198583,0.263018 -0.343427,0.409274 -0.621893,0.521087 -0.04573,0.01836 -0.235272,0.05424 -0.182279,-0.08202 0.04461,-0.114706 0.679868,0.187399 0.777364,0.217119 0.543481,0.16567 0.355204,0.140669 0.884587,0.0096"
       id="path14939" /><path
       style="font-variation-settings:normal;opacity:1;vector-effect:none;fill:none;fill-opacity:1;stroke:#000000;stroke-width:0.264583px;stroke-linecap:round;stroke-linejoin:round;stroke-miterlimit:4;stroke-dasharray:none;stroke-dashoffset:0;stroke-opacity:1;-inkscape-stroke:none;stop-color:#000000;stop-opacity:1"
       d="m 84.289314,-23.345967 c 0.733645,-0.156633 1.464757,0.0452 2.198063,0.0386 0.15874,-0.0014 0.118354,-0.01489 0.112583,-0.144747"
       id="path14941" /><path
       style="font-variation-settings:normal;opacity:1;vector-effect:none;fill:none;fill-opacity:1;stroke:#000000;stroke-width:0.264583px;stroke-linecap:round;stroke-linejoin:round;stroke-miterlimit:4;stroke-dasharray:none;stroke-dashoffset:0;stroke-opacity:1;-inkscape-stroke:none;stop-color:#000000;stop-opacity:1"
       d="m 85.533094,-24.528062 c -0.01072,0.106147 -0.02241,0.212201 -0.03216,0.318443 -0.05812,0.63377 -0.05404,0.571708 -0.08578,1.114544 -0.02238,0.382857 -0.02267,0.336641 -0.0268,0.685135 -5.29e-4,0.04342 0,0.173691 0,0.130268"
       id="path14943" /><path
       style="font-variation-settings:normal;opacity:1;vector-effect:none;fill:none;fill-opacity:1;stroke:#000000;stroke-width:0.264583px;stroke-linecap:round;stroke-linejoin:round;stroke-miterlimit:4;stroke-dasharray:none;stroke-dashoffset:0;stroke-opacity:1;-inkscape-stroke:none;stop-color:#000000;stop-opacity:1"
       d="m 89.028547,-26.342214 c -0.168855,0.655234 -0.522809,1.242817 -0.654058,1.910649 -0.0092,0.04692 -0.08552,0.577464 -0.06969,0.612761 0.05623,0.125458 0.149238,0.257909 0.278778,0.303966 0.238355,0.08475 1.174144,-0.01852 1.442143,-0.159223"
       id="path14945" /><path
       style="font-variation-settings:normal;opacity:1;vector-effect:none;fill:none;fill-opacity:1;stroke:#000000;stroke-width:0.264583px;stroke-linecap:round;stroke-linejoin:round;stroke-miterlimit:4;stroke-dasharray:none;stroke-dashoffset:0;stroke-opacity:1;-inkscape-stroke:none;stop-color:#000000;stop-opacity:1"
       d="m 90.497492,-24.783781 c -0.214823,0.834285 -0.332573,1.68865 -0.43425,2.542708 -0.02294,0.192743 -0.119443,0.790081 -0.04825,0.94568 0.0065,0.01413 0.02742,-0.01897 0.03216,-0.03378 0.02008,-0.06266 0.05894,-0.272936 0.07506,-0.357042"
       id="path14947" /><path
       style="font-variation-settings:normal;opacity:1;vector-effect:none;fill:none;fill-opacity:1;stroke:#000000;stroke-width:0.264583px;stroke-linecap:round;stroke-linejoin:round;stroke-miterlimit:4;stroke-dasharray:none;stroke-dashoffset:0;stroke-opacity:1;-inkscape-stroke:none;stop-color:#000000;stop-opacity:1"
       d="m 92.073663,-22.168697 c -0.909733,1.691078 -0.486315,1.19476 -0.938197,1.717656"
       id="path14949" /><path
       style="font-variation-settings:normal;opacity:1;vector-effect:none;fill:none;fill-opacity:1;stroke:#000000;stroke-width:0.264583px;stroke-linecap:round;stroke-linejoin:round;stroke-miterlimit:4;stroke-dasharray:none;stroke-dashoffset:0;stroke-opacity:1;-inkscape-stroke:none;stop-color:#000000;stop-opacity:1"
       d="m 95.419004,-25.367589 c -0.01072,-0.09328 -0.04947,-0.187556 -0.03217,-0.279844 0.01624,-0.08667 0.254101,-0.217155 0.300223,-0.231593 0.410876,-0.128619 0.864856,-0.135533 1.195527,0.202644 0.282179,0.288582 0.01714,1.273642 -0.01072,1.35579 -0.185169,0.54595 -0.41261,1.08863 -0.739833,1.56326 -0.203978,0.295861 -0.520886,0.500809 -0.820254,0.699606 -0.606128,0.402505 -0.623805,-1.081413 0.06433,-0.728556 0.373425,0.191483 0.621855,0.573679 1.023972,0.723733 0.52425,0.195629 0.990301,-0.128515 1.415335,-0.390817"
       id="path14951" /><path
       style="font-variation-settings:normal;opacity:1;vector-effect:none;fill:none;fill-opacity:1;stroke:#000000;stroke-width:0.264583px;stroke-linecap:round;stroke-linejoin:round;stroke-miterlimit:4;stroke-dasharray:none;stroke-dashoffset:0;stroke-opacity:1;-inkscape-stroke:none;stop-color:#000000;stop-opacity:1"
       d="m 98.072756,-26.120271 c 0.712947,1.249494 -0.372083,-0.668332 0.423529,0.80093 0.07211,0.13316 0.420032,0.735749 0.648695,0.665833 0.222684,-0.06809 0.423437,-0.205742 0.600446,-0.357041 0.142401,-0.121717 0.498164,-0.596037 0.664774,-0.815404 0.0919,-0.120965 0.15456,-0.124707 0.0322,-0.164045"
       id="path14953" /><path
       style="font-variation-settings:normal;opacity:1;vector-effect:none;fill:none;fill-opacity:1;stroke:#000000;stroke-width:0.264583px;stroke-linecap:round;stroke-linejoin:round;stroke-miterlimit:4;stroke-dasharray:none;stroke-dashoffset:0;stroke-opacity:1;-inkscape-stroke:none;stop-color:#000000;stop-opacity:1"
       d="m 99.150341,-24.798254 c 0.08442,0.711771 0.100303,1.430984 0.08042,2.14707 -0.0031,0.113511 -0.01609,0.223937 -0.01609,0.33774 0,0.04507 0.0044,0.179092 -0.0054,0.135098"
       id="path14955" /><path
       style="font-variation-settings:normal;opacity:1;vector-effect:none;fill:none;fill-opacity:1;stroke:#000000;stroke-width:0.264583px;stroke-linecap:round;stroke-linejoin:round;stroke-miterlimit:4;stroke-dasharray:none;stroke-dashoffset:0;stroke-opacity:1;-inkscape-stroke:none;stop-color:#000000;stop-opacity:1"
       d="m 101.58429,-23.978027 c 0.59574,0.06672 1.19348,0.05902 1.79061,0.02413 0.0964,-0.0056 0.31095,0.02672 0.31095,-0.125446"
       id="path14957" /><path
       style="font-variation-settings:normal;opacity:1;vector-effect:none;fill:none;fill-opacity:1;stroke:#000000;stroke-width:0.264583px;stroke-linecap:round;stroke-linejoin:round;stroke-miterlimit:4;stroke-dasharray:none;stroke-dashoffset:0;stroke-opacity:1;-inkscape-stroke:none;stop-color:#000000;stop-opacity:1"
       d="m 104.64013,-25.907976 c 0.37997,0.589239 0.33795,0.549688 0.78808,1.133846 0.50987,0.661671 1.04002,1.310002 1.56009,1.963724 0.11948,0.150193 0.57916,0.73248 0.72911,0.786452 0.008,0.0028 -2.3e-4,-0.01767 -0.005,-0.02412 -0.0491,-0.06181 -0.10365,-0.119014 -0.15547,-0.17852"
       id="path14959" /><path
       style="font-variation-settings:normal;opacity:1;vector-effect:none;fill:none;fill-opacity:1;stroke:#000000;stroke-width:0.264583px;stroke-linecap:round;stroke-linejoin:round;stroke-miterlimit:4;stroke-dasharray:none;stroke-dashoffset:0;stroke-opacity:1;-inkscape-stroke:none;stop-color:#000000;stop-opacity:1"
       d="m 104.48466,-22.265197 c 0.75211,-1.038983 1.60674,-1.993845 2.47683,-2.933523 0.13092,-0.141391 0.51991,-0.625579 0.67551,-0.718905"
       id="path14961" /><path
       style="font-variation-settings:normal;opacity:1;vector-effect:none;fill:none;fill-opacity:1;stroke:#000000;stroke-width:0.264583px;stroke-linecap:round;stroke-linejoin:round;stroke-miterlimit:4;stroke-dasharray:none;stroke-dashoffset:0;stroke-opacity:1;-inkscape-stroke:none;stop-color:#000000;stop-opacity:1"
       d="m 109.20245,-24.166196 c 0.10543,-0.0096 0.21067,-0.02172 0.3163,-0.02895 0.3146,-0.02152 0.72138,-0.04249 1.04542,-0.04825 0.3151,-0.0056 0.7311,0.061 0.61653,-0.06272"
       id="path14963" /><path
       style="font-variation-settings:normal;opacity:1;vector-effect:none;fill:none;fill-opacity:1;stroke:#000000;stroke-width:0.264583px;stroke-linecap:round;stroke-linejoin:round;stroke-miterlimit:4;stroke-dasharray:none;stroke-dashoffset:0;stroke-opacity:1;-inkscape-stroke:none;stop-color:#000000;stop-opacity:1"
       d="m 112.68181,-25.893501 c -0.002,-0.08524 -0.0417,-0.178613 -0.005,-0.255718 0.0349,-0.07408 0.40928,-0.171428 0.43425,-0.173696 0.69808,-0.0634 0.96009,-0.177072 1.4475,0.332917 0.0803,0.08402 0.12533,0.21211 0.11795,0.328092 -0.0202,0.318294 -0.0823,0.638941 -0.19837,0.936024 -0.24744,0.633532 -0.9428,1.524103 -1.57081,1.843104 -0.94942,0.482266 -0.90311,-0.754783 -0.32166,-0.714084 0.23258,0.01628 0.62787,0.431036 0.81489,0.550035 0.16936,0.107761 0.34398,0.208387 0.52539,0.294318 0.51613,0.244477 1.20043,-0.110834 1.6137,-0.405289"
       id="path14965" /><path
       style="font-variation-settings:normal;opacity:1;vector-effect:none;fill:none;fill-opacity:1;stroke:#000000;stroke-width:0.264583px;stroke-linecap:round;stroke-linejoin:round;stroke-miterlimit:4;stroke-dasharray:none;stroke-dashoffset:0;stroke-opacity:1;-inkscape-stroke:none;stop-color:#000000;stop-opacity:1"
       d="m 116.0486,-27.258941 c 0.26448,0.519478 0.6264,0.999949 0.79344,1.558435 0.35768,1.1959 0.0263,2.493128 -0.31094,3.64278 -0.0873,0.297521 -0.20271,0.595688 -0.29486,0.540387"
       id="path14967" /><path
       style="font-variation-settings:normal;opacity:1;vector-effect:none;fill:none;fill-opacity:1;stroke:#000000;stroke-width:0.264583px;stroke-linecap:round;stroke-linejoin:round;stroke-miterlimit:4;stroke-dasharray:none;stroke-dashoffset:0;stroke-opacity:1;-inkscape-stroke:none;stop-color:#000000;stop-opacity:1"
       d="m 41.089408,-3.3385802 c 2.035307,-2.112962 4.125161,-4.158586 6.305838,-6.121135 2.294411,-2.0649068 4.333719,-4.3700938 6.485101,-6.5766558 1.642499,-1.684628 3.260643,-3.392685 4.903372,-5.077221 2.324614,-2.383781 4.676439,-4.731238 6.917442,-7.19352 1.977183,-2.17241 3.932062,-4.362433 5.915683,-6.52921 0.646097,-0.705754 1.249056,-1.434336 1.855902,-2.173243 0.183657,-0.223625 0.373192,-0.442362 0.558876,-0.664308 0.08446,-0.100947 0.201576,-0.228867 0.06327,-0.104392"
       id="path14969" /><path
       style="font-variation-settings:normal;opacity:1;vector-effect:none;fill:none;fill-opacity:1;stroke:#000000;stroke-width:0.264583px;stroke-linecap:round;stroke-linejoin:round;stroke-miterlimit:4;stroke-dasharray:none;stroke-dashoffset:0;stroke-opacity:1;-inkscape-stroke:none;stop-color:#000000;stop-opacity:1"
       d="m 54.070162,-0.9945152 c 1.32243,-1.880748 0.485849,-0.749014 2.267148,-2.96092 1.630408,-2.024536 3.234704,-4.057922 4.956093,-6.007259 1.000887,-1.1334238 2.090711,-2.1860078 3.100197,-3.3120508 0.691163,-0.770964 1.324356,-1.584023 2.003523,-2.363041 0.688869,-0.790149 1.594932,-1.419294 2.446414,-2.021399 0.416674,-0.29464 1.001827,-0.545795 1.233755,-1.015447"
       id="path14971" /><path
       style="font-variation-settings:normal;opacity:1;vector-effect:none;fill:none;fill-opacity:1;stroke:#000000;stroke-width:0.264583px;stroke-linecap:round;stroke-linejoin:round;stroke-miterlimit:4;stroke-dasharray:none;stroke-dashoffset:0;stroke-opacity:1;-inkscape-stroke:none;stop-color:#000000;stop-opacity:1"
       d="m 79.757497,-30.233609 c 1.854361,-2.217949 3.937761,-4.399898 6.442924,-5.902862"
       id="path14973" /><path
       style="font-variation-settings:normal;opacity:1;vector-effect:none;fill:none;fill-opacity:1;stroke:#000000;stroke-width:0.264583px;stroke-linecap:round;stroke-linejoin:round;stroke-miterlimit:4;stroke-dasharray:none;stroke-dashoffset:0;stroke-opacity:1;-inkscape-stroke:none;stop-color:#000000;stop-opacity:1"
       d="m 70.161649,-1.6967852 c 2.550115,-3.705444 5.360609,-7.240807 8.48863,-10.4771028 0.650851,-0.67338 1.406464,-1.229527 2.0668,-1.888537 0.731163,-0.729692 1.379104,-1.543826 1.992982,-2.372535"
       id="path14975" /><path
       style="font-variation-settings:normal;opacity:1;vector-effect:none;fill:none;fill-opacity:1;stroke:#000000;stroke-width:0.264583px;stroke-linecap:round;stroke-linejoin:round;stroke-miterlimit:4;stroke-dasharray:none;stroke-dashoffset:0;stroke-opacity:1;-inkscape-stroke:none;stop-color:#000000;stop-opacity:1"
       d="m 98.09505,-31.960814 c 1.385364,-1.875511 3.34705,-3.003416 5.06154,-4.479342"
       id="path14977" /><path
       style="font-variation-settings:normal;opacity:1;vector-effect:none;fill:none;fill-opacity:1;stroke:#000000;stroke-width:0.264583px;stroke-linecap:round;stroke-linejoin:round;stroke-miterlimit:4;stroke-dasharray:none;stroke-dashoffset:0;stroke-opacity:1;-inkscape-stroke:none;stop-color:#000000;stop-opacity:1"
       d="m 82.783875,-1.4974932 c 0.667842,-0.907888 1.260083,-1.876576 2.003528,-2.723668 0.794411,-0.905166 1.731513,-1.674376 2.594044,-2.514886 0.708665,-0.69057 1.432168,-1.366549 2.119521,-2.078334 1.797884,-1.8617908 3.255627,-4.0705588 5.240806,-5.7510198 0.4113,-0.348168 0.865023,-0.607602 1.307568,-0.911056"
       id="path14979" /><path
       style="font-variation-settings:normal;opacity:1;vector-effect:none;fill:none;fill-opacity:1;stroke:#000000;stroke-width:0.264583px;stroke-linecap:round;stroke-linejoin:round;stroke-miterlimit:4;stroke-dasharray:none;stroke-dashoffset:0;stroke-opacity:1;-inkscape-stroke:none;stop-color:#000000;stop-opacity:1"
       d="m 110.50637,-30.205138 c 1.56976,-1.627421 3.33742,-3.022486 5.12481,-4.393931 0.33967,-0.260622 0.69189,-0.466382 1.00177,-0.759212"
       id="path14981" /><path
       style="font-variation-settings:normal;opacity:1;vector-effect:none;fill:none;fill-opacity:1;stroke:#000000;stroke-width:0.264583px;stroke-linecap:round;stroke-linejoin:round;stroke-miterlimit:4;stroke-dasharray:none;stroke-dashoffset:0;stroke-opacity:1;-inkscape-stroke:none;stop-color:#000000;stop-opacity:1"
       d="m 99.149531,-3.0633662 c 0.750811,-1.043667 1.712639,-1.924881 2.636219,-2.809076 1.29109,-1.236027 2.73642,-2.318014 3.97543,-3.606252 0.79766,-0.8293418 1.51854,-1.6935708 2.2777,-2.5528448 0.62608,-0.70865 1.28009,-1.391587 1.91916,-2.087827 0.3128,-0.340781 0.63302,-0.663239 0.98067,-0.967994 0.41202,-0.361181 1.23495,-0.900589 1.41302,-1.461482"
       id="path14983" /><path
       style="font-variation-settings:normal;opacity:1;vector-effect:none;fill:none;fill-opacity:1;stroke:#000000;stroke-width:0.264583px;stroke-linecap:round;stroke-linejoin:round;stroke-miterlimit:4;stroke-dasharray:none;stroke-dashoffset:0;stroke-opacity:1;-inkscape-stroke:none;stop-color:#000000;stop-opacity:1"
       d="m 122.90716,-28.250173 c 1.79072,-1.954718 3.98707,-3.499077 6.14767,-5.020279 0.68908,-0.485161 0.73453,-0.514965 1.28646,-0.930033 0.32167,-0.241903 0.62901,-0.546711 1.01232,-0.673797"
       id="path14985" /><path
       style="font-variation-settings:normal;opacity:1;vector-effect:none;fill:none;fill-opacity:1;stroke:#000000;stroke-width:0.264583px;stroke-linecap:round;stroke-linejoin:round;stroke-miterlimit:4;stroke-dasharray:none;stroke-dashoffset:0;stroke-opacity:1;-inkscape-stroke:none;stop-color:#000000;stop-opacity:1"
       d="m 112.91236,-2.8735592 c 1.14517,-1.498219 2.58717,-2.78089 3.9227,-4.090252 4.13189,-4.0509348 8.15978,-8.2053958 12.30588,-12.2422678 2.57933,-2.511377 5.26574,-4.909861 7.9403,-7.316889 0.41892,-0.377013 0.79694,-0.795101 1.20211,-1.186267 0.67177,-0.648551 1.39372,-1.260437 2.10898,-1.860066 1.51811,-1.272695 2.87377,-2.745296 4.48157,-3.909933 0.17861,-0.129375 0.87331,-0.473562 0.81196,-0.749722"
       id="path14987" /><path
       style="font-variation-settings:normal;opacity:1;vector-effect:none;fill:none;fill-opacity:1;stroke:#000000;stroke-width:0.264583px;stroke-linecap:round;stroke-linejoin:round;stroke-miterlimit:4;stroke-dasharray:none;stroke-dashoffset:0;stroke-opacity:1;-inkscape-stroke:none;stop-color:#000000;stop-opacity:1"
       d="m 126.64917,-3.2472562 c 0.6291,-0.710626 1.17074,-1.492864 1.78481,-2.215552 1.59089,-1.872303 3.51399,-3.463748 5.20056,-5.2481188 1.28722,-1.361861 2.39021,-2.87568 3.66193,-4.251106 0.97801,-1.057772 2.13053,-1.953746 3.16955,-2.949456 0.7756,-0.743272 1.48964,-1.545055 2.30795,-2.243256 0.67781,-0.578329 1.38008,-1.125011 2.04637,-1.717063 0.92577,-0.82263 1.8161,-1.67814 2.78491,-2.450966 0.41309,-0.329524 0.78293,-0.707064 1.18474,-1.038542 0.15432,-0.127302 0.33366,-0.242401 0.49237,-0.360032 0.14755,-0.109359 0.37304,-0.232869 0.36928,-0.235402 -0.0213,-0.01437 -0.21889,0.01251 -0.23081,0.01385"
       id="path14989" /><path
       style="font-variation-settings:normal;opacity:1;vector-effect:none;fill:none;fill-opacity:1;stroke:#000000;stroke-width:0.264583px;stroke-linecap:round;stroke-linejoin:round;stroke-miterlimit:4;stroke-dasharray:none;stroke-dashoffset:0;stroke-opacity:1;-inkscape-stroke:none;stop-color:#000000;stop-opacity:1"
       d="m 139.41977,-3.6349742 c 0.40004,-0.424651 0.78178,-0.867328 1.20013,-1.273956 1.45584,-1.415044 3.06892,-2.687518 4.56972,-4.05724 0.74872,-0.68332 1.40856,-1.4454578 2.12331,-2.1601688 0.54162,-0.541586 1.96621,-1.515861 2.21561,-2.077093"
       id="path14991" /><path
       style="font-variation-settings:normal;opacity:1;vector-effect:none;fill:none;fill-opacity:1;stroke:#000000;stroke-width:0.264583px;stroke-linecap:round;stroke-linejoin:round;stroke-miterlimit:4;stroke-dasharray:none;stroke-dashoffset:0;stroke-opacity:1;-inkscape-stroke:none;stop-color:#000000;stop-opacity:1"
       d="m 28.16606,-4.6508262 c 1.496658,-1.799799 3.080432,-3.538119 4.716478,-5.212974 1.559219,-1.5962098 2.536047,-2.4443588 4.357854,-4.1273488 1.763003,-1.62867 3.509269,-3.26839 5.259848,-4.909786 0.397468,-0.372676 1.101352,-0.989785 1.521449,-1.398603 1.514713,-1.474039 2.901135,-3.076658 4.368716,-4.596807 1.241999,-1.286489 2.553356,-2.502726 3.749278,-3.833936 0.399984,-0.445232 0.78949,-0.891651 1.16282,-1.359481 0.384497,-0.481826 0.769585,-0.962978 1.16282,-1.437725 0.593441,-0.716456 1.216593,-1.411666 1.793126,-2.141917 0.33206,-0.420595 0.648054,-0.865335 1.02154,-1.251895 0.529484,-0.548019 0.834951,-0.808791 1.228027,-1.437725 0.07886,-0.126172 0.164819,-0.221456 0.260821,-0.332538 0.01905,-0.02204 0.07326,-0.04631 0.05433,-0.06846 -0.03605,-0.04218 -0.09419,-0.05869 -0.141279,-0.08803"
       id="path14993" /><path
       style="font-variation-settings:normal;opacity:1;vector-effect:none;fill:none;fill-opacity:1;stroke:#000000;stroke-width:0.264583px;stroke-linecap:round;stroke-linejoin:round;stroke-miterlimit:4;stroke-dasharray:none;stroke-dashoffset:0;stroke-opacity:1;-inkscape-stroke:none;stop-color:#000000;stop-opacity:1"
       d="m 26.62288,-15.908116 c 1.485641,-1.42012 2.63556,-3.13241 4.075298,-4.59681 1.008536,-1.025814 2.080733,-1.987716 3.118964,-2.983036 1.147016,-1.099612 2.265584,-2.221311 3.36891,-3.364471 0.775846,-0.803859 1.61911,-1.547696 2.358242,-2.386428 0.437708,-0.496691 0.836419,-1.026753 1.271495,-1.525752 1.213953,-1.392306 2.490464,-2.723348 3.749272,-4.068663 0.467067,-0.499166 0.854279,-1.101354 1.358432,-1.555091"
       id="path14995" /><path
       style="font-variation-settings:normal;opacity:1;vector-effect:none;fill:none;fill-opacity:1;stroke:#000000;stroke-width:0.264583px;stroke-linecap:round;stroke-linejoin:round;stroke-miterlimit:4;stroke-dasharray:none;stroke-dashoffset:0;stroke-opacity:1;-inkscape-stroke:none;stop-color:#000000;stop-opacity:1"
       d="m 27.318401,-29.092157 c 0.318778,-0.387957 0.611457,-0.798919 0.956334,-1.163872 0.491709,-0.520333 1.061479,-0.960964 1.586648,-1.447504 0.912513,-0.84539 1.811197,-1.704924 2.782072,-2.484235 0.519258,-0.416803 0.993347,-0.878231 1.499711,-1.31058 0.02569,-0.02193 0.436841,-0.392452 0.347758,-0.205388"
       id="path14997" /><path
       style="font-variation-settings:normal;opacity:1;vector-effect:none;fill:none;fill-opacity:1;stroke:#000000;stroke-width:0.264583px;stroke-linecap:round;stroke-linejoin:round;stroke-miterlimit:4;stroke-dasharray:none;stroke-dashoffset:0;stroke-opacity:1;-inkscape-stroke:none;stop-color:#000000;stop-opacity:1"
       d="m 102.85309,-25.231038 c -0.0255,0.146801 -0.096,0.517711 -0.11916,0.725951 -0.0467,0.420126 -0.11916,0.855962 -0.11916,1.278662 0,0.01681 0.0292,0.690685 -0.0183,0.519712"
       id="path15001" /><path
       style="font-variation-settings:normal;opacity:1;vector-effect:none;fill:none;fill-opacity:1;stroke:#000000;stroke-width:0.264583px;stroke-linecap:round;stroke-linejoin:round;stroke-miterlimit:4;stroke-dasharray:none;stroke-dashoffset:0;stroke-opacity:1;-inkscape-stroke:none;stop-color:#000000;stop-opacity:1"
       d="m 110.07528,-25.454158 c -0.0174,0.207003 -0.0136,0.120753 -0.017,0.333599 -0.005,0.302123 -0.0174,0.603914 -0.0238,0.905919 -0.004,0.187423 0.008,0.37585 0,0.563139 -0.007,0.153189 -0.007,0.305781 -0.007,0.45908 0,0.02049 0,0.241622 0,0.180571"
       id="path15005" /></g></svg>
