<?xml version="1.0" encoding="UTF-8" standalone="no"?>
<!-- Created with Inkscape (http://www.inkscape.org/) -->

<svg
   width="546.85712"
   height="46.945938"
   viewBox="0 0 144.68927 12.421112"
   version="1.1"
   id="svg1083"
   sodipodi:docname="SpecZ.svg"
   xmlns:inkscape="http://www.inkscape.org/namespaces/inkscape"
   xmlns:sodipodi="http://sodipodi.sourceforge.net/DTD/sodipodi-0.dtd"
   xmlns="http://www.w3.org/2000/svg"
   xmlns:svg="http://www.w3.org/2000/svg">
  <sodipodi:namedview
     id="namedview1085"
     pagecolor="#ffffff"
     bordercolor="#111111"
     borderopacity="1"
     inkscape:showpageshadow="0"
     inkscape:pageopacity="0"
     inkscape:pagecheckerboard="1"
     inkscape:deskcolor="#d1d1d1"
     inkscape:document-units="mm"
     showgrid="false"
     inkscape:lockguides="false" />
  <defs
     id="defs1080" />
  <g
     inkscape:label="Layer 1"
     inkscape:groupmode="layer"
     id="layer1"
     transform="translate(-6.1067325,-44.874014)">
    <circle
       id="path1268"
       style="fill:#000000;stroke:none;stroke-width:0.264583"
       cx="58.430408"
       cy="49.03286"
       r="0.92604053" />
    <circle
       id="path1274"
       style="fill:#000000;stroke:none;stroke-width:0.264583"
       cx="71.883041"
       cy="48.907578"
       r="0.92604053" />
    <circle
       id="path1276"
       style="fill:#000000;stroke:none;stroke-width:0.264583"
       cx="87.810097"
       cy="48.390785"
       r="0.92604053" />
    <path
       style="font-variation-settings:normal;opacity:1;vector-effect:none;fill:none;fill-opacity:1;stroke:#000000;stroke-width:0.264583px;stroke-linecap:round;stroke-linejoin:round;stroke-miterlimit:4;stroke-dasharray:none;stroke-dashoffset:0;stroke-opacity:1;-inkscape-stroke:none;stop-color:#000000;stop-opacity:1"
       d="m 56.569113,51.781651 c -0.06099,0.06099 -0.12762,0.116819 -0.182973,0.182968 -0.09968,0.119123 -0.212114,0.382378 -0.248565,0.49712 -0.237742,0.748318 -0.281718,1.540063 -0.14845,2.312985 0.0672,0.389755 0.173627,0.747252 0.390109,1.083995 0.02265,0.03524 0.07825,0.02992 0.11738,0.04488"
       id="path1304" />
    <path
       style="font-variation-settings:normal;opacity:1;vector-effect:none;fill:none;fill-opacity:1;stroke:#000000;stroke-width:0.264583px;stroke-linecap:round;stroke-linejoin:round;stroke-miterlimit:4;stroke-dasharray:none;stroke-dashoffset:0;stroke-opacity:1;-inkscape-stroke:none;stop-color:#000000;stop-opacity:1"
       d="m 57.525401,52.668871 c 0.103572,-0.05178 0.20187,-0.115835 0.310711,-0.15535 0.143063,-0.05194 0.634013,-0.118931 0.676654,0.141541 0.04309,0.263216 -0.0026,0.538279 -0.0656,0.797462 -0.09479,0.390311 -0.753046,1.782831 -1.363662,1.253154 -0.150784,-0.130797 -2.65e-4,-0.334134 0.193331,-0.286533 0.526298,0.129342 1.45611,0.891045 1.967817,0.576519 0.07005,-0.04305 0.146307,-0.09394 0.17952,-0.169156 0.04937,-0.111808 0.03682,-0.241657 0.05523,-0.362484"
       id="path1306" />
    <path
       style="font-variation-settings:normal;opacity:1;vector-effect:none;fill:none;fill-opacity:1;stroke:#000000;stroke-width:0.264583px;stroke-linecap:round;stroke-linejoin:round;stroke-miterlimit:4;stroke-dasharray:none;stroke-dashoffset:0;stroke-opacity:1;-inkscape-stroke:none;stop-color:#000000;stop-opacity:1"
       d="m 59.969641,51.867958 c 0.135789,0.149596 0.310271,0.271616 0.407371,0.448787 0.546515,0.997169 0.344077,1.843741 0.01035,2.858436 -0.05916,0.179888 -0.128786,0.356272 -0.200234,0.531641 -0.02991,0.0734 -0.03072,0.182816 -0.103569,0.214037 -0.0478,0.02048 -0.04373,-0.09436 -0.06559,-0.141541"
       id="path1308" />
    <path
       style="font-variation-settings:normal;opacity:1;vector-effect:none;fill:none;fill-opacity:1;stroke:#000000;stroke-width:0.264583px;stroke-linecap:round;stroke-linejoin:round;stroke-miterlimit:4;stroke-dasharray:none;stroke-dashoffset:0;stroke-opacity:1;-inkscape-stroke:none;stop-color:#000000;stop-opacity:1"
       d="m 70.441068,51.519283 c -0.08286,0.0702 -0.173312,0.132294 -0.248565,0.210587 -0.434927,0.452488 -0.332544,1.635006 -0.203687,2.16799 0.0955,0.395013 0.24533,0.880512 0.542012,1.177206"
       id="path1320" />
    <path
       style="font-variation-settings:normal;opacity:1;vector-effect:none;fill:none;fill-opacity:1;stroke:#000000;stroke-width:0.264583px;stroke-linecap:round;stroke-linejoin:round;stroke-miterlimit:4;stroke-dasharray:none;stroke-dashoffset:0;stroke-opacity:1;-inkscape-stroke:none;stop-color:#000000;stop-opacity:1"
       d="m 71.231646,52.057829 c 0.124285,-0.01841 0.248309,-0.03867 0.372851,-0.05524 0.109093,-0.0145 0.218191,-0.04576 0.327969,-0.03797 0.07336,0.0052 0.157893,0.02132 0.207137,0.07595 0.0303,0.0336 0.0021,0.09372 -0.01725,0.134636 -0.07966,0.168688 -0.180097,0.326861 -0.276188,0.486762 -0.05224,0.08693 -0.295021,0.415575 -0.310706,0.53164 -0.0064,0.04746 0.04142,0.09337 0.08285,0.117375 0.167241,0.0969 1.138301,0.263239 0.890696,0.631756 -0.117014,0.174159 -0.290732,0.316524 -0.479872,0.407363 -0.198376,0.09527 -0.788201,0.119372 -0.935574,-0.141542 -0.0851,-0.150659 -0.06923,-0.244517 -0.06559,-0.393551"
       id="path1322" />
    <path
       style="font-variation-settings:normal;opacity:1;vector-effect:none;fill:none;fill-opacity:1;stroke:#000000;stroke-width:0.264583px;stroke-linecap:round;stroke-linejoin:round;stroke-miterlimit:4;stroke-dasharray:none;stroke-dashoffset:0;stroke-opacity:1;-inkscape-stroke:none;stop-color:#000000;stop-opacity:1"
       d="m 73.268512,51.339768 c 0.669292,0.934522 0.960239,1.668603 0.628319,2.837722 -0.05402,0.190299 -0.186346,0.369697 -0.321064,0.510927 0.02596,0.11893 -0.07923,0.05851 -0.113927,0.09321 -0.01132,0.01132 0.02904,0.01482 0.04488,0.01725"
       id="path1328" />
    <path
       style="font-variation-settings:normal;opacity:1;vector-effect:none;fill:none;fill-opacity:1;stroke:#000000;stroke-width:0.264583px;stroke-linecap:round;stroke-linejoin:round;stroke-miterlimit:4;stroke-dasharray:none;stroke-dashoffset:0;stroke-opacity:1;-inkscape-stroke:none;stop-color:#000000;stop-opacity:1"
       d="m 85.731358,50.766702 c -0.0483,0.06329 -0.10268,0.122409 -0.145,0.18987 -0.18388,0.293135 -0.292785,0.710613 -0.35904,1.039117 -0.103486,0.513114 -0.183906,1.088794 -0.0725,1.612185 0.05592,0.262721 0.105069,0.402365 0.25202,0.593781 5.3e-4,5.29e-4 0.46691,0.530717 0.37976,0.269274"
       id="path1330" />
    <path
       style="font-variation-settings:normal;opacity:1;vector-effect:none;fill:none;fill-opacity:1;stroke:#000000;stroke-width:0.264583px;stroke-linecap:round;stroke-linejoin:round;stroke-miterlimit:4;stroke-dasharray:none;stroke-dashoffset:0;stroke-opacity:1;-inkscape-stroke:none;stop-color:#000000;stop-opacity:1"
       d="m 86.276818,53.600927 c 0.17781,0.1778 0.41197,0.258316 0.65594,0.321056 0.51308,0.131929 0.95609,-0.01236 0.92868,-0.607592 -0.0224,-0.486349 -0.43311,-0.637656 -0.85618,-0.631756 -0.0438,7e-4 -0.47697,0.04574 -0.51785,0.0035 -0.0597,-0.06174 0.0964,-0.418678 0.10012,-0.428078 0.044,-0.111048 0.0992,-0.217336 0.1519,-0.324506 0.19606,-0.398576 0.10538,-0.252534 0.41083,-0.583427 0.37493,-0.180829 0.71302,-0.146738 1.10819,-0.141539"
       id="path1336" />
    <path
       style="font-variation-settings:normal;opacity:1;vector-effect:none;fill:none;fill-opacity:1;stroke:#000000;stroke-width:0.264583px;stroke-linecap:round;stroke-linejoin:round;stroke-miterlimit:4;stroke-dasharray:none;stroke-dashoffset:0;stroke-opacity:1;-inkscape-stroke:none;stop-color:#000000;stop-opacity:1"
       d="m 89.038668,50.78051 c 0.0694,0.147873 0.23536,0.479708 0.25893,0.631757 0.12849,0.828923 -0.0329,1.592736 -0.26583,2.382027 -0.0561,0.190233 -0.12875,0.373962 -0.20714,0.555808 -0.024,0.05569 -0.0498,0.06983 -0.0794,0.120827 -0.0192,0.03308 -0.0733,0.128236 -0.0414,0.107019 0.028,-0.01865 0.0414,-0.05294 0.0621,-0.0794"
       id="path1344" />
    <circle
       id="path1592"
       style="fill:#000000;stroke:none;stroke-width:0.264583"
       cx="105.43369"
       cy="47.956593"
       r="0.92604053" />
    <path
       style="font-variation-settings:normal;opacity:1;vector-effect:none;fill:none;fill-opacity:1;stroke:#000000;stroke-width:0.264583px;stroke-linecap:round;stroke-linejoin:round;stroke-miterlimit:4;stroke-dasharray:none;stroke-dashoffset:0;stroke-opacity:1;-inkscape-stroke:none;stop-color:#000000;stop-opacity:1"
       d="m 104.62931,50.739085 c -0.0633,0.07019 -0.13164,0.136136 -0.18988,0.210584 -0.12155,0.1554 -0.20906,0.38282 -0.26927,0.566163 -0.27409,0.834499 -0.21711,1.407076 0.0276,2.247392 0.053,0.181915 0.18278,0.569429 0.31761,0.704252 0.0442,0.04422 0.13546,0.09811 0.19333,0.131186"
       id="path1598" />
    <path
       style="font-variation-settings:normal;opacity:1;vector-effect:none;fill:none;fill-opacity:1;stroke:#000000;stroke-width:0.264583px;stroke-linecap:round;stroke-linejoin:round;stroke-miterlimit:4;stroke-dasharray:none;stroke-dashoffset:0;stroke-opacity:1;-inkscape-stroke:none;stop-color:#000000;stop-opacity:1"
       d="m 105.24728,51.087758 c 0.18962,0.03986 1.04607,-0.06268 1.10819,0.134636 0.08,0.25428 -0.15614,0.911217 -0.2106,1.115065 -0.0633,0.236918 -0.20009,0.758042 -0.25546,1.011499 -0.0514,0.23549 -0.0726,0.593762 -0.0242,0.528188 0.0285,-0.0385 0.0291,-0.188881 0.0311,-0.245105"
       id="path1600" />
    <path
       style="font-variation-settings:normal;opacity:1;vector-effect:none;fill:none;fill-opacity:1;stroke:#000000;stroke-width:0.264583px;stroke-linecap:round;stroke-linejoin:round;stroke-miterlimit:4;stroke-dasharray:none;stroke-dashoffset:0;stroke-opacity:1;-inkscape-stroke:none;stop-color:#000000;stop-opacity:1"
       d="m 105.35084,52.503167 c 0.47398,-0.08487 0.93656,-0.212862 1.41891,-0.241657"
       id="path1602" />
    <path
       style="font-variation-settings:normal;opacity:1;vector-effect:none;fill:none;fill-opacity:1;stroke:#000000;stroke-width:0.264583px;stroke-linecap:round;stroke-linejoin:round;stroke-miterlimit:4;stroke-dasharray:none;stroke-dashoffset:0;stroke-opacity:1;-inkscape-stroke:none;stop-color:#000000;stop-opacity:1"
       d="m 107.12879,50.607899 c 0.52444,0.839195 0.44404,1.889704 0.18987,2.810105 -0.0673,0.24384 -0.14914,0.483449 -0.2244,0.724964 -0.0333,0.106955 -0.083,0.324508 -0.13119,0.324508"
       id="path1604" />
    <path
       style="font-variation-settings:normal;opacity:1;vector-effect:none;fill:none;fill-opacity:1;stroke:#000000;stroke-width:0.264583px;stroke-linecap:round;stroke-linejoin:round;stroke-miterlimit:4;stroke-dasharray:none;stroke-dashoffset:0;stroke-opacity:1;-inkscape-stroke:none;stop-color:#000000;stop-opacity:1"
       d="m 127.77862,50.110781 c -0.0541,0.05869 -0.11357,0.112826 -0.16226,0.176062 -0.11142,0.144693 -0.18858,0.338958 -0.24511,0.510929 -0.27531,0.837366 -0.15844,1.671105 0.17951,2.471785 0.0966,0.228843 0.22945,0.64693 0.42118,0.811271 0.0293,0.02508 0.0756,0.07093 0.11393,0.05178"
       id="path1606" />
    <path
       style="font-variation-settings:normal;opacity:1;fill:none;fill-opacity:1;stroke:#000000;stroke-width:0.264583;stroke-linecap:round;stroke-linejoin:round;stroke-miterlimit:4;stroke-dasharray:none;stroke-dashoffset:0;stroke-opacity:1;stop-color:#000000;stop-opacity:1"
       d="m 128.29646,51.836888 c 0.27192,-0.309742 0.57858,-0.583599 0.90106,-0.83889 0.0714,-0.05657 0.13832,-0.120547 0.21749,-0.165703 0.0856,-0.04882 0.18442,-0.157597 0.27273,-0.113925 0.0392,0.01939 0.0508,0.476338 0.0518,0.514379 0.0151,0.583618 0.0154,1.160884 -0.0242,1.743369 -0.013,0.19068 -0.0386,0.38172 -0.0414,0.573069 -5.3e-4,0.02879 -0.0169,0.106664 0.003,0.0863 0.0294,-0.0294 0.0207,-0.08055 0.0311,-0.120827"
       id="path1618" />
    <path
       style="font-variation-settings:normal;opacity:1;fill:none;fill-opacity:1;stroke:#000000;stroke-width:0.264583;stroke-linecap:round;stroke-linejoin:round;stroke-miterlimit:4;stroke-dasharray:none;stroke-dashoffset:0;stroke-opacity:1;stop-color:#000000;stop-opacity:1"
       d="m 130.47142,51.978427 c 0.34515,-0.295005 0.61392,-0.659659 0.92522,-0.987332 0.0101,-0.01066 0.16959,-0.176064 0.21059,-0.176064 0.0573,0 0.0262,0.298574 0.0207,0.386648 -0.0102,0.163772 -0.0292,0.326875 -0.0449,0.490215 -0.13747,1.436272 0.0283,-0.302733 -0.11738,1.087448 -0.0206,0.196543 -0.061,0.535162 0,0.718061 0.0211,0.06333 0.005,-0.133485 0.003,-0.200229"
       id="path1620" />
    <path
       style="font-variation-settings:normal;opacity:1;vector-effect:none;fill:none;fill-opacity:1;stroke:#000000;stroke-width:0.264583px;stroke-linecap:round;stroke-linejoin:round;stroke-miterlimit:4;stroke-dasharray:none;stroke-dashoffset:0;stroke-opacity:1;-inkscape-stroke:none;stop-color:#000000;stop-opacity:1"
       d="m 132.33567,50.269581 c 0.0932,0.124281 0.19506,0.242531 0.27964,0.372841 0.0712,0.109699 0.1553,0.218196 0.18642,0.34522 0.17236,0.703628 0.11443,1.4209 -0.0345,2.119662 -0.0461,0.216217 -0.1711,0.646276 -0.24857,0.873411 -0.0132,0.03878 -0.047,0.125637 -0.0759,0.09666 -0.031,-0.03099 -0.0345,-0.08055 -0.0518,-0.12083"
       id="path1622" />
    <path
       style="font-variation-settings:normal;opacity:1;vector-effect:none;fill:none;fill-opacity:1;stroke:#000000;stroke-width:0.264583px;stroke-linecap:round;stroke-linejoin:round;stroke-miterlimit:4;stroke-dasharray:none;stroke-dashoffset:0;stroke-opacity:1;-inkscape-stroke:none;stop-color:#000000;stop-opacity:1"
       d="m 42.834446,47.340537 c -0.16231,0.04978 -0.33059,0.08313 -0.48693,0.149323 -0.62137,0.263101 -1.02848,1.025636 -1.23357,1.61658 -0.0603,0.173691 -0.13633,0.545505 -0.11687,0.7596 0.0904,0.994042 1.35036,1.449033 2.20095,1.246518 0.33834,-0.08055 0.70279,-0.394665 0.92194,-0.649226 0.45678,-0.530601 0.66593,-1.114624 0.7726,-1.804861 0.0249,-0.160959 0.0755,-0.427114 0.0454,-0.610274 -0.0643,-0.392327 -0.57231,-0.761982 -0.94141,-0.843997 -0.12668,-0.02815 -0.26078,-0.01339 -0.38955,-0.03246 -0.13223,-0.01958 -0.35882,-0.09168 -0.48693,-0.01947 -0.0993,0.056 -0.19045,0.125515 -0.28567,0.188274 z"
       id="path1626" />
    <path
       style="font-variation-settings:normal;opacity:1;vector-effect:none;fill:none;fill-opacity:1;stroke:#000000;stroke-width:0.264583px;stroke-linecap:round;stroke-linejoin:round;stroke-miterlimit:4;stroke-dasharray:none;stroke-dashoffset:0;stroke-opacity:1;-inkscape-stroke:none;stop-color:#000000;stop-opacity:1"
       d="m 41.334686,52.631756 c -0.12768,0.162306 -0.27323,0.312031 -0.38305,0.486921 -0.0878,0.139766 -0.179,0.458943 -0.22075,0.629753 -0.18887,0.772636 -0.21006,1.520174 0.0195,2.285286 0.0676,0.225171 0.20598,0.415218 0.33112,0.610274 0.0492,0.07673 0.0586,0.09763 0.0325,0.04545"
       id="path1628" />
    <path
       style="font-variation-settings:normal;opacity:1;vector-effect:none;fill:none;fill-opacity:1;stroke:#000000;stroke-width:0.264583px;stroke-linecap:round;stroke-linejoin:round;stroke-miterlimit:4;stroke-dasharray:none;stroke-dashoffset:0;stroke-opacity:1;-inkscape-stroke:none;stop-color:#000000;stop-opacity:1"
       d="m 42.970786,53.319937 c -0.3297,0.304009 -0.47391,0.559782 -0.57782,0.99332 -0.0856,0.356921 -0.16931,1.278845 0.21425,1.519198 0.51225,0.320995 1.02155,-0.356568 1.20111,-0.733629 0.24546,-0.515461 0.22264,-1.623483 -0.28568,-1.999628 -0.15926,-0.11785 -0.37854,0.124754 -0.55186,0.220739 z"
       id="path1630" />
    <path
       style="font-variation-settings:normal;opacity:1;vector-effect:none;fill:none;fill-opacity:1;stroke:#000000;stroke-width:0.264583px;stroke-linecap:round;stroke-linejoin:round;stroke-miterlimit:4;stroke-dasharray:none;stroke-dashoffset:0;stroke-opacity:1;-inkscape-stroke:none;stop-color:#000000;stop-opacity:1"
       d="m 44.626366,52.605787 c 0.14067,0.272675 0.30784,0.533242 0.42202,0.818029 0.40214,1.003008 -0.002,2.054457 -0.27269,3.025404 -0.0407,0.146124 -0.0726,0.294561 -0.11037,0.441479 -0.0229,0.08898 -10e-4,0.207097 -0.0714,0.266184 -0.0405,0.03398 -0.0606,-0.08656 -0.0909,-0.129847"
       id="path1632" />
    <path
       style="font-variation-settings:normal;opacity:1;vector-effect:none;fill:none;fill-opacity:1;stroke:#000000;stroke-width:0.264583px;stroke-linecap:round;stroke-linejoin:round;stroke-miterlimit:4;stroke-dasharray:none;stroke-dashoffset:0;stroke-opacity:1;-inkscape-stroke:none;stop-color:#000000;stop-opacity:1"
       d="m 8.9961284,47.037401 c 0.069231,-0.01976 0.1948733,-7.94e-4 0.2613105,-0.05066 0.00362,-0.0027 -0.0088,-0.0026 -0.013332,-0.0027 -0.1597821,-0.0044 -0.016044,7.94e-4 -0.2479786,0.05333 -0.6693048,0.151387 -0.4868238,0.0227 -1.2132323,0.418621 -0.4329708,0.235977 -0.8722177,0.633085 -1.1812349,1.015887 -0.1242862,0.153963 -0.3776771,0.467148 -0.3093088,0.701254 0.090235,0.308983 0.5770055,0.397319 0.8185999,0.461282 0.7741963,0.204978 1.3374939,0.242425 2.0131641,0.706589 0.1752216,0.120372 0.321751,0.333377 0.3359719,0.549272 0.019055,0.289293 -0.1206461,0.598284 -0.2959749,0.813242 -0.2067822,0.253521 -0.4576886,0.47303 -0.7252724,0.661262 -0.1490347,0.104836 -0.3306653,0.157973 -0.5066238,0.205309 -0.4847112,0.130403 -0.718071,0.09706 -1.2025681,-0.09332 -0.2326399,-0.09142 -0.3720475,-0.327496 -0.490625,-0.527942"
       id="path1666" />
    <path
       style="font-variation-settings:normal;opacity:1;vector-effect:none;fill:none;fill-opacity:1;stroke:#000000;stroke-width:0.264583px;stroke-linecap:round;stroke-linejoin:round;stroke-miterlimit:4;stroke-dasharray:none;stroke-dashoffset:0;stroke-opacity:1;-inkscape-stroke:none;stop-color:#000000;stop-opacity:1"
       d="m 10.02271,50.381031 c -0.01836,1.145373 -0.2256526,2.280388 -0.399967,3.410286 -0.04362,0.282747 -0.047835,0.268165 -0.063995,0.487947 -0.00116,0.01598 -0.00401,0.06256 0.00266,0.04799 0.123694,-0.26987 -0.017423,-0.59385 -0.008,-0.890567 0.068324,-2.150996 -0.018262,-1.216168 0.418633,-2.778357 0.025307,-0.09049 0.00628,-0.194482 0.050663,-0.277302 0.05889,-0.109884 0.159347,-0.192299 0.247979,-0.279969 0.270917,-0.267983 0.328415,-0.278837 0.663944,-0.165314 0.09931,0.0336 0.206858,0.0805 0.295975,0.135982 0.413795,0.257638 0.558342,0.723445 0.370637,1.181203 -0.08571,0.209011 -0.215621,0.420111 -0.421298,0.533273 -0.287376,0.158115 -0.622652,0.197501 -0.935923,0.106656 -0.0044,-0.0013 -0.2501417,-0.08387 -0.146654,-0.09866"
       id="path1668" />
    <path
       style="font-variation-settings:normal;opacity:1;vector-effect:none;fill:none;fill-opacity:1;stroke:#000000;stroke-width:0.264583px;stroke-linecap:round;stroke-linejoin:round;stroke-miterlimit:4;stroke-dasharray:none;stroke-dashoffset:0;stroke-opacity:1;-inkscape-stroke:none;stop-color:#000000;stop-opacity:1"
       d="m 12.486504,50.237044 c 0.03111,0.06399 0.04694,0.138028 0.09333,0.191979 0.03876,0.04508 0.09688,0.07102 0.151986,0.09332 0.350988,0.142063 0.601127,0.114403 0.925257,-0.117319 0.06255,-0.04472 0.277966,-0.276214 0.167987,-0.407955 -0.09363,-0.11216 -0.29776,-0.134938 -0.431965,-0.149318 -0.287107,-0.03076 -0.547907,0.01323 -0.762604,0.223975 -0.05215,0.05119 -0.108436,0.10147 -0.143987,0.165314 -0.05284,0.09489 -0.08558,0.200105 -0.117323,0.303967 -0.04039,0.132143 -0.08583,0.265041 -0.09866,0.402622 -0.01675,0.179681 -0.01632,0.362844 0.01067,0.541274 0.02601,0.171989 0.226762,0.609243 0.415965,0.685257 0.395136,0.158756 0.747457,0.158674 1.082575,-0.122653 0.07281,-0.06112 0.126212,-0.142205 0.189318,-0.213309"
       id="path1670" />
    <path
       style="font-variation-settings:normal;opacity:1;vector-effect:none;fill:none;fill-opacity:1;stroke:#000000;stroke-width:0.264583px;stroke-linecap:round;stroke-linejoin:round;stroke-miterlimit:4;stroke-dasharray:none;stroke-dashoffset:0;stroke-opacity:1;-inkscape-stroke:none;stop-color:#000000;stop-opacity:1"
       d="m 16.312853,49.845088 c -0.05777,-0.03289 -0.108374,-0.08447 -0.17332,-0.09866 -0.09465,-0.02066 -0.194176,-0.01167 -0.290642,-0.0027 -0.517923,0.0483 -0.896892,0.456202 -1.069244,0.917231 -0.02735,0.07315 -0.0486,0.151217 -0.048,0.229306 0.0012,0.153898 0.016,0.309311 0.05333,0.458616 0.09114,0.36454 0.513327,0.682111 0.858595,0.778581 0.112466,0.03143 0.242161,0.0731 0.349305,0.02666 0.565356,-0.245025 0.601876,-0.315299 0.845263,-0.621263"
       id="path1672" />
    <path
       style="font-variation-settings:normal;opacity:1;vector-effect:none;fill:none;fill-opacity:1;stroke:#000000;stroke-width:0.264583px;stroke-linecap:round;stroke-linejoin:round;stroke-miterlimit:4;stroke-dasharray:none;stroke-dashoffset:0;stroke-opacity:1;-inkscape-stroke:none;stop-color:#000000;stop-opacity:1"
       d="m 19.70908,47.560141 c 0.53598,-0.206139 0.377093,-0.18602 1.14926,-0.19096 0.636556,-0.0041 1.367727,0.035 1.94436,0.347199 0.111594,0.06042 0.254283,0.293428 0.208325,0.420108 -0.385594,1.062869 -1.596803,1.948249 -2.371427,2.659539 -0.240059,0.22043 -0.486795,0.434181 -0.715248,0.66662 -0.041,0.04172 -0.131468,0.15697 -0.04167,0.215263 0.214384,0.139157 0.903873,0.129016 1.100646,0.135406 0.100477,0.0033 1.270268,0.02728 1.510357,0.02082 0.188936,-0.0051 0.378157,-0.01336 0.565949,-0.03472 0.204619,-0.02328 0.552507,-0.09215 0.756909,-0.17707 0.205242,-0.08527 0.214386,-0.05539 0.159719,-0.131937"
       id="path1728" />
    <path
       style="font-variation-settings:normal;opacity:1;vector-effect:none;fill:none;fill-opacity:1;stroke:#000000;stroke-width:0.264583px;stroke-linecap:round;stroke-linejoin:round;stroke-miterlimit:4;stroke-dasharray:none;stroke-dashoffset:0;stroke-opacity:1;-inkscape-stroke:none;stop-color:#000000;stop-opacity:1"
       d="m 19.344513,51.417509 c 0.892658,-1.07162 1.733103,-2.185741 2.617943,-3.263659 0.09623,-0.117229 0.197858,-0.230066 0.302072,-0.340254 0.133995,-0.141679 0.113933,-0.153186 0.131942,-0.04514"
       id="path1730" />
    <circle
       id="path2402"
       style="fill:#000000;stroke:none;stroke-width:0.264583"
       cx="129.82811"
       cy="47.701721"
       r="0.92604053" />
    <path
       style="font-variation-settings:normal;opacity:1;vector-effect:none;fill:none;fill-opacity:1;stroke:#000000;stroke-width:0.264583px;stroke-linecap:round;stroke-linejoin:round;stroke-miterlimit:4;stroke-dasharray:none;stroke-dashoffset:0;stroke-opacity:1;-inkscape-stroke:none;stop-color:#000000;stop-opacity:1"
       d="m 146.71735,49.727281 c -0.0332,0.08387 -0.0318,0.14597 -0.0318,0.227242 0,0.02852 0.0565,0.117089 0.0954,0.09544 0.046,-0.02553 0.0688,-0.191653 0.0318,-0.229515 -0.0311,-0.03179 -0.0636,-0.06211 -0.0954,-0.09317 z"
       id="path2430" />
    <path
       style="font-variation-settings:normal;opacity:1;vector-effect:none;fill:none;fill-opacity:1;stroke:#000000;stroke-width:0.264583px;stroke-linecap:round;stroke-linejoin:round;stroke-miterlimit:4;stroke-dasharray:none;stroke-dashoffset:0;stroke-opacity:1;-inkscape-stroke:none;stop-color:#000000;stop-opacity:1"
       d="m 148.64216,49.663654 c -0.0268,0.16574 -0.025,0.102346 -0.025,0.188611 0,0.03877 0.0157,0.200546 0.10226,0.145436 0.027,-0.01714 0.0644,-0.239538 0.0296,-0.265875 -0.0337,-0.02545 -0.0712,-0.04545 -0.10681,-0.06817 z"
       id="path2432" />
    <path
       style="font-variation-settings:normal;opacity:1;vector-effect:none;fill:none;fill-opacity:1;stroke:#000000;stroke-width:0.264583px;stroke-linecap:round;stroke-linejoin:round;stroke-miterlimit:4;stroke-dasharray:none;stroke-dashoffset:0;stroke-opacity:1;-inkscape-stroke:none;stop-color:#000000;stop-opacity:1"
       d="m 150.55826,49.690746 c -0.0106,0.04393 -0.0222,0.08764 -0.0318,0.131802 -0.0139,0.06385 -0.003,0.122163 0.0477,0.163616 0.009,0.0076 0.0304,0.01921 0.0432,0.01135 0.0365,-0.02246 0.0591,-0.198167 0.0386,-0.218154 -0.0315,-0.03073 -0.0651,-0.05908 -0.0977,-0.08862 z"
       id="path2434" />
    <path
       style="font-variation-settings:normal;opacity:1;vector-effect:none;fill:none;fill-opacity:1;stroke:#000000;stroke-width:0.264583px;stroke-linecap:round;stroke-linejoin:round;stroke-miterlimit:4;stroke-dasharray:none;stroke-dashoffset:0;stroke-opacity:1;-inkscape-stroke:none;stop-color:#000000;stop-opacity:1"
       d="m 29.783415,45.006305 c -1.118241,0.104467 -1.983571,0.727842 -2.140918,1.87645 -0.02069,0.151056 -0.05562,0.398332 0.0085,0.545878 0.03863,0.08885 0.657891,1.023788 0.631186,1.074694 -0.164832,0.314203 -0.426745,0.539619 -0.733541,0.699404 -0.01413,0.0074 -0.521196,0.239278 -0.503244,0.26441 0.04948,0.06928 0.352742,0.176377 0.417949,0.213232 0.459015,0.259434 0.847439,0.522302 0.912662,1.083226 0.134018,1.152556 -0.03616,2.342219 -0.06824,3.497019 -0.0145,0.522167 -0.15407,1.557592 0.324122,1.944684 0.494032,0.399914 1.31948,0.325777 1.885034,0.196172"
       id="path5962" />
  </g>
</svg>
