<?xml version="1.0" encoding="UTF-8" standalone="no"?>
<!-- Created with Inkscape (http://www.inkscape.org/) -->

<svg
   width="507.88818"
   height="107.74827"
   viewBox="0 0 134.37875 28.508398"
   version="1.1"
   id="svg1083"
   sodipodi:docname="SpecLine.svg"
   inkscape:export-filename="SpecLine.svg"
   inkscape:export-xdpi="96"
   inkscape:export-ydpi="96"
   xml:space="preserve"
   xmlns:inkscape="http://www.inkscape.org/namespaces/inkscape"
   xmlns:sodipodi="http://sodipodi.sourceforge.net/DTD/sodipodi-0.dtd"
   xmlns="http://www.w3.org/2000/svg"
   xmlns:svg="http://www.w3.org/2000/svg"><sodipodi:namedview
     id="namedview1085"
     pagecolor="#ffffff"
     bordercolor="#111111"
     borderopacity="1"
     inkscape:showpageshadow="0"
     inkscape:pageopacity="0"
     inkscape:pagecheckerboard="1"
     inkscape:deskcolor="#d1d1d1"
     inkscape:document-units="mm"
     showgrid="false"
     inkscape:lockguides="false"
     inkscape:zoom="1.6111378"
     inkscape:cx="251.06481"
     inkscape:cy="222.20322"
     inkscape:window-width="1908"
     inkscape:window-height="1049"
     inkscape:window-x="4"
     inkscape:window-y="4"
     inkscape:window-maximized="1"
     inkscape:current-layer="layer1"
     showguides="true" /><defs
     id="defs1080" /><g
     inkscape:label="Layer 1"
     inkscape:groupmode="layer"
     id="layer1"
     transform="translate(-7.7877187,-36.475324)"><path
       style="font-variation-settings:normal;opacity:1;fill:none;fill-opacity:1;stroke:#000000;stroke-width:0.264583;stroke-linecap:round;stroke-linejoin:round;stroke-miterlimit:4;stroke-dasharray:none;stroke-dashoffset:0;stroke-opacity:1;stop-color:#000000;stop-opacity:1"
       d="m 10.892663,45.947274 c -0.149249,-0.01384 -0.308989,-0.09823 -0.447745,-0.04154 -0.5708271,0.233209 -1.0958291,0.88578 -1.4124708,1.366274 -0.138801,0.210627 -0.907063,1.614599 -0.812402,1.998636 0.03014,0.122264 0.117441,0.232093 0.216948,0.309259 0.319083,0.247446 0.8265,0.290131 1.1862917,0.369265 0.360543,0.0793 0.7274701,0.135485 1.0801251,0.244637 0.403271,0.124819 0.794457,0.69823 0.609301,1.126254 -0.52579,1.21547 -1.196686,1.511824 -2.3725838,1.333963 -0.10169,-0.01537 -0.504016,-0.159057 -0.595453,-0.249256 -0.162172,-0.159975 -0.28311,-0.356955 -0.424664,-0.535432"
       id="path6120" /><path
       style="font-variation-settings:normal;opacity:1;fill:none;fill-opacity:1;stroke:#000000;stroke-width:0.264583;stroke-linecap:round;stroke-linejoin:round;stroke-miterlimit:4;stroke-dasharray:none;stroke-dashoffset:0;stroke-opacity:1;stop-color:#000000;stop-opacity:1"
       d="m 12.485155,49.81069 c -0.0092,0.141552 -0.01846,0.283104 -0.02769,0.424657 -0.0062,0.298487 -0.0017,0.597376 -0.01846,0.895458 -0.07418,1.322864 -0.290868,2.644124 -0.493903,3.951123 -0.03739,0.240702 -0.08202,0.48023 -0.124631,0.720061 -0.01642,0.09241 -0.02109,0.18791 -0.05077,0.276948 -0.0022,0.0065 -0.01796,0.01609 -0.01847,0.0092 -0.09702,-1.306023 -0.151073,-2.616632 0.05078,-3.914193 0.02385,-0.153342 0.162441,-0.728396 0.221563,-0.881616 0.136754,-0.354409 0.550229,-1.574802 1.112438,-1.740154 0.268024,-0.07883 0.447353,-0.09518 0.65546,0.09232 0.3894,0.350835 0.431269,1.046093 0.258492,1.504746 -0.132399,0.351464 -0.342226,0.671515 -0.558527,0.978548 -0.140757,0.199803 -0.412051,0.433467 -0.673924,0.484659 -0.457418,0.08942 -0.716416,-0.124288 -0.835482,-0.618517 -0.03562,-0.147849 0.05847,-0.29849 0.0877,-0.447733"
       id="path6122" /><path
       style="font-variation-settings:normal;opacity:1;fill:none;fill-opacity:1;stroke:#000000;stroke-width:0.264583;stroke-linecap:round;stroke-linejoin:round;stroke-miterlimit:4;stroke-dasharray:none;stroke-dashoffset:0;stroke-opacity:1;stop-color:#000000;stop-opacity:1"
       d="m 14.548471,50.244575 c 0.47948,0.303872 0.693535,0.303858 1.204757,-0.02307 0.108155,-0.06917 0.218538,-0.155771 0.272338,-0.272333 0.279048,-0.604592 -0.04632,-0.762532 -0.572373,-0.535432 -0.682581,0.294677 -1.021024,0.906139 -1.22322,1.59245 -0.03306,0.112204 -0.01633,0.23404 -0.0092,0.350798 0.03149,0.517832 0.258361,1.228471 0.863176,1.278572 0.130914,0.01085 0.27176,-0.02265 0.383122,-0.09231 0.42039,-0.263017 0.689015,-0.74509 0.960111,-1.130871"
       id="path6124" /><path
       style="font-variation-settings:normal;opacity:1;fill:none;fill-opacity:1;stroke:#000000;stroke-width:0.264583;stroke-linecap:round;stroke-linejoin:round;stroke-miterlimit:4;stroke-dasharray:none;stroke-dashoffset:0;stroke-opacity:1;stop-color:#000000;stop-opacity:1"
       d="m 19.252097,49.501435 c -0.09232,-0.07539 -0.165831,-0.183073 -0.276957,-0.226177 -0.72957,-0.282974 -1.781323,0.355129 -2.174098,0.937006 -0.21697,0.321429 -0.313884,0.673148 -0.313884,1.066247 0,0.142926 0.03305,0.292616 0.106168,0.415423 0.565444,0.949743 1.54485,1.098523 2.451054,0.5262 0.421662,-0.266306 0.503552,-0.384728 0.743162,-0.673907"
       id="path6126" /><path
       style="font-variation-settings:normal;opacity:1;fill:none;fill-opacity:1;stroke:#000000;stroke-width:0.264583;stroke-linecap:round;stroke-linejoin:round;stroke-miterlimit:4;stroke-dasharray:none;stroke-dashoffset:0;stroke-opacity:1;stop-color:#000000;stop-opacity:1"
       d="m 23.8634,46.879663 c -0.06727,0.0064 -0.06324,-0.323342 -0.115396,-0.401572 -0.0027,-0.004 -0.0045,0.009 -0.0046,0.01384 -0.0014,0.0446 -0.01319,0.09123 0,0.133858 0.02768,0.08942 0.117916,0.160292 0.120013,0.25387 0.01043,0.465365 -0.06794,0.928735 -0.08309,1.393971 -0.01302,0.399968 0.03231,0.799925 0.03231,1.200105 0,1.018116 0.01183,1.661239 -0.06924,2.607924 -0.0061,0.0711 -0.08107,0.773927 -0.143093,0.94162 -0.0064,0.01738 -0.04657,0.01167 -0.05539,-0.0046 -0.01687,-0.03114 -0.0031,-0.07077 -0.0046,-0.106161"
       id="path6128" /><path
       style="font-variation-settings:normal;opacity:1;fill:none;fill-opacity:1;stroke:#000000;stroke-width:0.264583;stroke-linecap:round;stroke-linejoin:round;stroke-miterlimit:4;stroke-dasharray:none;stroke-dashoffset:0;stroke-opacity:1;stop-color:#000000;stop-opacity:1"
       d="m 24.597332,46.491934 c -0.01442,0.216316 -0.02814,0.302311 -0.01385,0.512355 0.0475,0.698207 0.06635,0.305023 0.08309,1.227799 0.0229,1.262655 -0.07008,2.528435 -0.184639,3.784952 -0.03834,0.420563 -0.09426,0.840118 -0.138475,1.26011 -0.0045,0.04295 -0.01202,0.172347 -0.0092,0.129246 0.01671,-0.258974 0.01783,-0.264006 0.03693,-0.512357"
       id="path6134" /><path
       style="font-variation-settings:normal;opacity:1;fill:none;fill-opacity:1;stroke:#000000;stroke-width:0.264583;stroke-linecap:round;stroke-linejoin:round;stroke-miterlimit:4;stroke-dasharray:none;stroke-dashoffset:0;stroke-opacity:1;stop-color:#000000;stop-opacity:1"
       d="m 23.586447,46.736571 c 0.04924,-0.127704 0.0276,-0.317484 0.147709,-0.383109 0.364135,-0.198956 1.677613,-0.09764 2.067931,0.04616 0.182738,0.06732 0.359846,0.16791 0.49852,0.304641 0.215823,0.212802 0.22016,0.789009 0.198485,1.001626 -0.111935,1.098005 -0.227059,1.550082 -0.973962,2.418677 -0.259545,0.301835 -0.866561,0.375127 -1.209368,0.31849 -0.136946,-0.02262 -0.250893,-0.125629 -0.355427,-0.216945 -0.03555,-0.03105 -0.05408,-0.08733 -0.04616,-0.133855 0.03921,-0.230352 0.51407,-0.06478 0.618536,-0.01847 0.807327,0.357954 1.388064,1.712632 2.021775,2.35405 0.109794,0.111133 0.237289,0.203399 0.36004,0.30003 0.03194,0.02513 0.08177,0.02748 0.106164,0.06 0.05708,0.07611 0.100147,0.135363 0.175406,0.203094 0.06286,0.05657 0.157739,0.133064 0.156942,0.133861 -0.0141,0.0141 -0.04691,0.01593 -0.06462,0.01847"
       id="path6138" /><path
       style="font-variation-settings:normal;opacity:1;fill:none;fill-opacity:1;stroke:#000000;stroke-width:0.264583;stroke-linecap:round;stroke-linejoin:round;stroke-miterlimit:4;stroke-dasharray:none;stroke-dashoffset:0;stroke-opacity:1;stop-color:#000000;stop-opacity:1"
       d="m 30.168761,53.226384 c -0.07022,0.140431 -0.355796,0.152681 -0.461592,0.166171 -0.147108,0.01877 -0.744159,0.09813 -0.969346,0.02307 -0.01789,-0.006 0.0046,-0.236575 0.0046,-0.258485 0,-0.208851 -0.09486,-0.412064 -0.129243,-0.613899 -0.07138,-0.419111 -0.0845,-0.823579 -0.09694,-1.246264 -0.02475,-0.841095 -0.02316,-1.657358 0.01384,-2.497143 0.0082,-0.184642 0.12443,-1.24854 -0.0046,-1.684769 -0.02734,-0.09244 -0.09232,-0.169238 -0.138477,-0.253868 0.155403,0.01077 0.310718,0.02289 0.466209,0.03232 0.233136,0.01413 0.468052,0.0046 0.701619,0.0046 0.103089,0 0.206178,0 0.309266,0 0.05192,0 0.124631,-0.02471 0.124631,-0.02308 0,5e-6 -0.02769,0.03692 -0.0277,0.03693"
       id="path6140" /><path
       style="font-variation-settings:normal;opacity:1;fill:none;fill-opacity:1;stroke:#000000;stroke-width:0.264583;stroke-linecap:round;stroke-linejoin:round;stroke-miterlimit:4;stroke-dasharray:none;stroke-dashoffset:0;stroke-opacity:1;stop-color:#000000;stop-opacity:1"
       d="m 32.195137,47.567418 c 0.08938,0.22692 0.14405,0.447098 0.156943,0.68775 0.03353,0.625941 0.0451,1.037042 0.05077,1.657069 0.0056,0.611643 -0.03049,1.261142 0.03231,1.878627 0.015,0.14746 0.05461,0.294772 0.06001,0.443116 0.0073,0.200739 -0.0043,0.40395 -0.0092,0.604671 -0.0029,0.116946 -0.01466,0.225758 -0.03693,0.341569 -0.0056,0.02887 0.01336,0.106518 -0.0092,0.0877 -0.01796,-0.01497 -0.04003,-0.05913 -0.05077,-0.07847"
       id="path6142" /><path
       style="font-variation-settings:normal;opacity:1;fill:none;fill-opacity:1;stroke:#000000;stroke-width:0.264583;stroke-linecap:round;stroke-linejoin:round;stroke-miterlimit:4;stroke-dasharray:none;stroke-dashoffset:0;stroke-opacity:1;stop-color:#000000;stop-opacity:1"
       d="m 29.748699,47.387398 c 0.370925,0.0083 0.741834,0.0087 1.112438,-0.0092 0.996543,-0.04822 1.993614,-0.03693 2.991117,-0.03693 0.313,0 0.620848,-0.03693 0.932416,-0.03693 0.07693,0 0.153863,0 0.230796,0 0.07343,0 0.157197,7.94e-4 0.15694,0 -0.0024,-0.0072 -0.03088,-0.02005 -0.03693,-0.02307"
       id="path6144" /><path
       style="font-variation-settings:normal;opacity:1;fill:none;fill-opacity:1;stroke:#000000;stroke-width:0.264583;stroke-linecap:round;stroke-linejoin:round;stroke-miterlimit:4;stroke-dasharray:none;stroke-dashoffset:0;stroke-opacity:1;stop-color:#000000;stop-opacity:1"
       d="m 35.107784,46.681183 c 0.383562,0.0385 0.775865,-0.04049 1.153981,0.05078 0.06881,0.01662 0.02831,0.231135 0.01384,0.360029 -0.04456,0.396947 -0.08914,0.793187 -0.129246,1.190876 -0.04331,0.429551 -0.130003,0.853372 -0.170791,1.28319 -0.05488,0.57835 -0.034,1.168744 -0.06,1.749385 -0.01386,0.309706 -0.07703,0.618644 -0.08309,0.927778 -0.0054,0.277283 0.02125,0.554757 0.0092,0.830841 -5.29e-4,0.01413 7.94e-4,0.109093 -0.01384,0.12001 -0.03774,0.0283 -0.845373,0.01029 -0.909336,0.01384 -0.124687,0.0069 -0.244607,0.01326 -0.369273,0.0092 -0.01691,-5.29e-4 -0.06591,0.0076 -0.05078,0 0.13656,-0.06826 -0.226565,0.197876 0.147709,-0.101547"
       id="path6146" /><path
       style="font-variation-settings:normal;opacity:1;fill:none;fill-opacity:1;stroke:#000000;stroke-width:0.264583;stroke-linecap:round;stroke-linejoin:round;stroke-miterlimit:4;stroke-dasharray:0.264583, 0.793749;stroke-dashoffset:0;stroke-opacity:1;stop-color:#000000;stop-opacity:1"
       d="m 66.111493,58.519616 c -0.149329,0.02066 -0.168077,0.02709 -0.312965,0.03335 -0.249172,0.01074 -0.500203,-1.35e-4 -0.749057,0.01283 -0.152641,0.0079 -0.304202,0.03263 -0.456621,0.04361 -0.575482,0.04148 -1.154393,0.07635 -1.731557,0.05387 -0.437071,-0.01701 -0.871501,-0.08809 -1.308288,-0.110302 -0.253889,-0.01291 -0.508574,-7.7e-5 -0.761886,-0.02822 -0.371076,-0.04122 -0.742837,0.07942 -1.110763,0.112869 -0.196517,0.01786 -0.396524,0.0089 -0.592577,-0.01027 -0.08878,-0.0087 -0.177522,-0.02659 -0.264224,-0.04104 -0.0087,-0.0013 -0.07932,-0.0047 -0.07952,-0.01027 -7.94e-4,-0.02315 0.0034,-0.04617 0.0051,-0.06926"
       id="path6164" /><path
       style="font-variation-settings:normal;opacity:1;fill:none;fill-opacity:1;stroke:#000000;stroke-width:0.264583;stroke-linecap:round;stroke-linejoin:round;stroke-miterlimit:4;stroke-dasharray:none;stroke-dashoffset:0;stroke-opacity:1;stop-color:#000000;stop-opacity:1"
       d="M 66.156347,58.534179 H 133.21313"
       id="path6658" /><path
       style="font-variation-settings:normal;opacity:1;fill:none;fill-opacity:1;stroke:#000000;stroke-width:0.264583;stroke-linecap:round;stroke-linejoin:round;stroke-miterlimit:4;stroke-dasharray:0.264583, 0.793749;stroke-dashoffset:0;stroke-opacity:1;stop-color:#000000;stop-opacity:1"
       d="m 133.30295,58.545548 h 8.84826"
       id="path6660" /><circle
       id="path6666"
       style="fill:#000000;stroke:none;stroke-width:0.264583"
       cx="97.684273"
       cy="58.577518"
       r="0.92604053" /><circle
       id="path6670"
       style="fill:#000000;stroke:none;stroke-width:0.264583"
       cx="107.87189"
       cy="58.493389"
       r="0.92604053" /><circle
       id="path6672"
       style="fill:#000000;stroke:none;stroke-width:0.264583"
       cx="127.49005"
       cy="58.55228"
       r="0.92604053" /><path
       style="font-variation-settings:normal;opacity:1;fill:none;fill-opacity:1;stroke:#000000;stroke-width:0.264583;stroke-linecap:round;stroke-linejoin:round;stroke-miterlimit:4;stroke-dasharray:none;stroke-dashoffset:0;stroke-opacity:1;stop-color:#000000;stop-opacity:1"
       d="m 96.176039,60.52528 c -0.0609,0.06296 -0.13722,0.114402 -0.18257,0.188864 -0.12498,0.205194 -0.22864,1.106616 -0.23667,1.176275 -0.071,0.615219 -0.10095,1.150171 0.12172,1.732931 0.10088,0.264044 0.27499,0.577844 0.58152,0.646121"
       id="path6682" /><path
       style="font-variation-settings:normal;opacity:1;fill:none;fill-opacity:1;stroke:#000000;stroke-width:0.264583;stroke-linecap:round;stroke-linejoin:round;stroke-miterlimit:4;stroke-dasharray:none;stroke-dashoffset:0;stroke-opacity:1;stop-color:#000000;stop-opacity:1"
       d="m 97.812419,61.194593 c -0.002,0.498216 -0.017,0.996179 -0.0237,1.494365 -0.003,0.245806 -0.0177,0.501961 0,0.748838 0.0139,0.194145 0.0338,0.381799 0.0338,0.576538 0,0.04418 0,0.08836 0,0.13254 0,0.01326 -6e-4,0.053 0,0.03975 0.003,-0.07287 0.004,-0.145805 0.007,-0.218687"
       id="path6690" /><path
       style="font-variation-settings:normal;opacity:1;fill:none;fill-opacity:1;stroke:#000000;stroke-width:0.264583;stroke-linecap:round;stroke-linejoin:round;stroke-miterlimit:4;stroke-dasharray:none;stroke-dashoffset:0;stroke-opacity:1;stop-color:#000000;stop-opacity:1"
       d="m 96.416089,60.989161 c 0.14651,0.02762 0.29163,0.06359 0.43952,0.08284 0.55354,0.07204 1.18759,0.06935 1.75134,0.07621 0.15366,0.0018 0.33811,-0.03397 0.490239,0.0033 0.0346,0.0085 0.17938,0.07327 0.15552,0.02652"
       id="path6692" /><path
       style="font-variation-settings:normal;opacity:1;fill:none;fill-opacity:1;stroke:#000000;stroke-width:0.264583;stroke-linecap:round;stroke-linejoin:round;stroke-miterlimit:4;stroke-dasharray:none;stroke-dashoffset:0;stroke-opacity:1;stop-color:#000000;stop-opacity:1"
       d="m 99.749718,60.535219 c 0.258902,0.35706 0.333202,0.803575 0.385432,1.229289 0.0488,0.397513 0.10661,0.877861 0.0609,1.278987 -0.0252,0.220687 -0.0796,0.433637 -0.14201,0.646125 -0.0584,0.198816 -0.0853,0.400352 -0.202852,0.573224 -0.0408,0.06 -0.0594,0.129283 -0.0947,0.192178 -0.006,0.01083 -0.0161,0.04546 -0.0169,0.03313 -0.001,-0.01984 0,-0.03977 0,-0.05965"
       id="path6694" /><path
       style="font-variation-settings:normal;opacity:1;fill:none;fill-opacity:1;stroke:#000000;stroke-width:0.264583;stroke-linecap:round;stroke-linejoin:round;stroke-miterlimit:4;stroke-dasharray:none;stroke-dashoffset:0;stroke-opacity:1;stop-color:#000000;stop-opacity:1"
       d="m 123.05177,60.862128 c -0.37766,0.532675 -0.46177,1.124669 -0.5068,1.760814 -0.0312,0.440203 -0.0761,0.774402 0.0407,1.180038 0.0765,0.265527 0.1585,0.593271 0.35513,0.799027 0.0455,0.04755 0.10516,0.07535 0.14796,0.125772 0.0231,0.0271 0.0429,0.05716 0.0592,0.08878 0.005,0.01 0.01,0.04266 0.004,0.03329 -0.0192,-0.02964 -0.0297,-0.06412 -0.0444,-0.09618"
       id="path6726" /><path
       style="font-variation-settings:normal;opacity:1;fill:none;fill-opacity:1;stroke:#000000;stroke-width:0.264583;stroke-linecap:round;stroke-linejoin:round;stroke-miterlimit:4;stroke-dasharray:none;stroke-dashoffset:0;stroke-opacity:1;stop-color:#000000;stop-opacity:1"
       d="m 124.80523,61.34302 c 0.13717,0.918706 -0.0112,1.842391 0.037,2.763295 0.01,0.192928 0.0564,0.36831 0.0888,0.347722 0.0125,-0.0077 0.0133,-0.02634 0.0148,-0.04069 0.007,-0.07371 0.007,-0.147966 0.0112,-0.221953"
       id="path6728" /><path
       style="font-variation-settings:normal;opacity:1;fill:none;fill-opacity:1;stroke:#000000;stroke-width:0.264583;stroke-linecap:round;stroke-linejoin:round;stroke-miterlimit:4;stroke-dasharray:none;stroke-dashoffset:0;stroke-opacity:1;stop-color:#000000;stop-opacity:1"
       d="m 123.47719,61.187656 c 0.0863,0 0.17265,0.0016 0.25895,0 0.39463,-0.0081 0.78945,-0.01234 1.18378,-0.02961 0.56192,-0.02462 1.12894,-0.159185 1.67577,0.0148"
       id="path6730" /><path
       style="font-variation-settings:normal;opacity:1;fill:none;fill-opacity:1;stroke:#000000;stroke-width:0.264583;stroke-linecap:round;stroke-linejoin:round;stroke-miterlimit:4;stroke-dasharray:none;stroke-dashoffset:0;stroke-opacity:1;stop-color:#000000;stop-opacity:1"
       d="m 126.5846,62.726516 c 0.44961,-6.59e-4 0.95612,0.179913 1.40942,0.06659"
       id="path6732" /><path
       style="font-variation-settings:normal;opacity:1;fill:none;fill-opacity:1;stroke:#000000;stroke-width:0.264583;stroke-linecap:round;stroke-linejoin:round;stroke-miterlimit:4;stroke-dasharray:none;stroke-dashoffset:0;stroke-opacity:1;stop-color:#000000;stop-opacity:1"
       d="m 129.63266,62.019973 c 0.0277,0.596366 0.0536,1.193131 0.0481,1.790405 -0.001,0.117239 -0.0178,0.234221 -0.0148,0.351425 3.3e-4,0.01622 -6.6e-4,0.06225 0.007,0.04809 0.0381,-0.06828 0.0704,-0.202265 0.0924,-0.284839"
       id="path6764" /><path
       style="font-variation-settings:normal;opacity:1;fill:none;fill-opacity:1;stroke:#000000;stroke-width:0.264583;stroke-linecap:round;stroke-linejoin:round;stroke-miterlimit:4;stroke-dasharray:none;stroke-dashoffset:0;stroke-opacity:1;stop-color:#000000;stop-opacity:1"
       d="m 130.39842,62.156842 c 0.0444,0.09988 0.10841,0.193162 0.13318,0.299635 0.0125,0.05352 -0.0157,0.108791 -0.0259,0.162763 -0.0206,0.108828 -0.0478,0.216371 -0.0665,0.325531 -0.0477,0.277537 -0.14786,0.932427 0.004,1.191136 0.24087,0.411109 0.75351,-0.06248 0.93223,-0.299631 0.067,-0.08905 0.10853,-0.194825 0.16277,-0.292238"
       id="path6766" /><path
       style="font-variation-settings:normal;opacity:1;fill:none;fill-opacity:1;stroke:#000000;stroke-width:0.264583;stroke-linecap:round;stroke-linejoin:round;stroke-miterlimit:4;stroke-dasharray:none;stroke-dashoffset:0;stroke-opacity:1;stop-color:#000000;stop-opacity:1"
       d="m 129.56978,62.66733 c -0.042,-0.08078 -0.26153,0.06149 -0.33664,-0.02219 -0.23963,-0.267006 -0.48802,-0.532477 -0.67327,-0.839714 -0.14255,-0.236416 0.57119,-0.302184 0.61038,-0.303334 0.70224,-0.02063 0.94225,0.07145 1.6129,0.251545 0.15928,0.04278 1.00254,0.259414 1.15417,0.188658"
       id="path6768" /><path
       style="font-variation-settings:normal;opacity:1;fill:none;fill-opacity:1;stroke:#000000;stroke-width:0.264583;stroke-linecap:round;stroke-linejoin:round;stroke-miterlimit:4;stroke-dasharray:none;stroke-dashoffset:0;stroke-opacity:1;stop-color:#000000;stop-opacity:1"
       d="m 132.33685,60.632776 c 0.0962,0.34256 0.2504,0.663218 0.33294,1.009879 0.13692,0.575125 0.19414,1.630967 0.0112,2.223213 -0.0593,0.191988 -0.12803,0.381819 -0.21825,0.562275 -0.0272,0.05433 -0.0379,0.123395 -0.074,0.173864 -0.0148,0.02067 -0.0473,0.08979 -0.037,0.06659 0.0112,-0.02532 0.0197,-0.05178 0.0295,-0.07769"
       id="path6774" /><path
       style="font-variation-settings:normal;opacity:1;fill:none;fill-opacity:1;stroke:#000000;stroke-width:0.264583;stroke-linecap:round;stroke-linejoin:round;stroke-miterlimit:4;stroke-dasharray:none;stroke-dashoffset:0;stroke-opacity:1;stop-color:#000000;stop-opacity:1"
       d="m 85.617709,61.217976 c 0.0035,0.185279 0.01583,0.370068 0.01783,0.555406 0.0059,0.544372 0.0149,1.086434 -0.0051,1.630542 -0.0064,0.171529 -0.01632,0.347659 -0.01022,0.519738 0.002,0.05763 0.0342,0.228026 0.02802,0.170698 -0.0062,-0.05782 -0.01358,-0.115495 -0.02037,-0.173246"
       id="path6816" /><path
       style="font-variation-settings:normal;opacity:1;fill:none;fill-opacity:1;stroke:#000000;stroke-width:0.264583;stroke-linecap:round;stroke-linejoin:round;stroke-miterlimit:4;stroke-dasharray:none;stroke-dashoffset:0;stroke-opacity:1;stop-color:#000000;stop-opacity:1"
       d="m 84.313237,60.940274 c 0.451511,0.06914 0.908996,0.03818 1.363069,0.06624 0.265124,0.01638 0.525811,0.06133 0.792367,0.05605 0.184903,-0.0036 0.367645,-0.01221 0.552871,-0.01022 0.09075,9.89e-4 0.187224,-0.0208 0.259875,0.03822"
       id="path6818" /><path
       style="font-variation-settings:normal;opacity:1;fill:none;fill-opacity:1;stroke:#000000;stroke-width:0.264583;stroke-linecap:round;stroke-linejoin:round;stroke-miterlimit:4;stroke-dasharray:none;stroke-dashoffset:0;stroke-opacity:1;stop-color:#000000;stop-opacity:1"
       d="m 87.103073,62.530054 c 0.389107,0.03864 0.765106,-0.0903 1.149056,-0.122286 0.06796,-0.0057 0.328831,0.0064 0.38217,-0.02037"
       id="path6820" /><path
       style="font-variation-settings:normal;opacity:1;fill:none;fill-opacity:1;stroke:#000000;stroke-width:0.264583;stroke-linecap:round;stroke-linejoin:round;stroke-miterlimit:4;stroke-dasharray:none;stroke-dashoffset:0;stroke-opacity:1;stop-color:#000000;stop-opacity:1"
       d="m 87.819004,61.620517 c 0.0034,0.4534 0.06114,0.904592 0.06114,1.357937 0,0.07218 0,0.144372 0,0.216559 0,0.02974 -0.01134,0.116653 0,0.08916 0.01536,-0.03733 0.02031,-0.07815 0.03057,-0.117189"
       id="path6824" /><path
       style="font-variation-settings:normal;opacity:1;fill:none;fill-opacity:1;stroke:#000000;stroke-width:0.264583;stroke-linecap:round;stroke-linejoin:round;stroke-miterlimit:4;stroke-dasharray:none;stroke-dashoffset:0;stroke-opacity:1;stop-color:#000000;stop-opacity:1"
       d="m 89.444497,62.193755 c 0.404645,-0.317163 0.711289,-0.727574 1.070076,-1.090425 0.01246,-0.01262 0.442892,-0.391068 0.456054,-0.351586 0.01843,0.05534 -0.01022,0.149223 -0.01272,0.208911 -0.007,0.166177 -0.0151,0.330526 -0.02548,0.496809 -0.0212,0.338926 0.0154,0.681977 -0.01783,1.01909 -0.02232,0.226486 -0.07142,0.447213 -0.08662,0.675145 -0.0047,0.07117 9.9e-4,0.142682 0,0.214008 -0.0036,0.240112 -0.03545,0.478065 -0.03821,0.718462 -6.6e-4,0.05389 -0.0036,0.111495 0,0.165602 0.0014,0.02205 0.0083,0.04405 0.01022,0.06624 2.8e-4,0.0034 0.0016,0.01316 0,0.01022 -0.01146,-0.02067 -0.01698,-0.04416 -0.02548,-0.06624"
       id="path6826" /><path
       style="font-variation-settings:normal;opacity:1;fill:none;fill-opacity:1;stroke:#000000;stroke-width:0.264583;stroke-linecap:round;stroke-linejoin:round;stroke-miterlimit:4;stroke-dasharray:none;stroke-dashoffset:0;stroke-opacity:1;stop-color:#000000;stop-opacity:1"
       d="m 91.737513,60.662573 c 0.2138,0.270379 0.357648,0.567964 0.422934,0.904444 0.08699,0.448273 0.09135,0.881999 0.0586,1.335008 -0.0077,0.106486 -0.01084,0.213941 -0.03566,0.318463 -0.02756,0.115693 -0.06106,0.231487 -0.09172,0.346492 -0.04678,0.175389 -0.111508,0.358581 -0.196179,0.519735 -0.03053,0.05813 -0.07325,0.107233 -0.107009,0.163056 -0.01823,0.03017 -0.04569,0.07515 -0.0586,0.109551 -0.0049,0.01312 -0.0016,0.05197 -0.01022,0.04076 -0.0061,-0.0082 -0.0085,-0.01869 -0.01272,-0.02802"
       id="path6828" /><path
       style="font-variation-settings:normal;opacity:1;fill:none;fill-opacity:1;stroke:#000000;stroke-width:0.264583;stroke-linecap:round;stroke-linejoin:round;stroke-miterlimit:4;stroke-dasharray:none;stroke-dashoffset:0;stroke-opacity:1;stop-color:#000000;stop-opacity:1"
       d="m 83.88266,60.547927 c -0.241362,0.218517 -0.354769,0.497831 -0.461152,0.797436 -0.120641,0.339754 -0.13258,0.688644 -0.124842,1.044568 0.0037,0.175059 -3.3e-4,0.348895 0.03056,0.522284 0.02994,0.167945 0.103445,0.330756 0.163059,0.489164 0.107196,0.284846 0.19969,0.726278 0.445864,0.92737 0.04355,0.03557 0.087,0.07138 0.132486,0.104455 0.01979,0.01438 0.04886,0.02696 0.07133,0.03821 0.0051,0.0026 0.01308,0.0129 0.0153,0.0076 0.0065,-0.01563 0.0051,-0.0443 0.0051,-0.06114"
       id="path6830" /><path
       style="font-variation-settings:normal;opacity:1;fill:none;fill-opacity:1;stroke:#000000;stroke-width:0.264583;stroke-linecap:round;stroke-linejoin:round;stroke-miterlimit:4;stroke-dasharray:none;stroke-dashoffset:0;stroke-opacity:1;stop-color:#000000;stop-opacity:1"
       d="m 106.10021,61.099057 c 0.002,0.235238 0.006,0.470473 0.005,0.70572 -6.6e-4,0.225421 -0.043,0.451099 -0.0637,0.675145 -0.0354,0.382665 -0.0333,0.763051 -0.0866,1.143929 -0.0225,0.160716 -0.044,0.321806 -0.051,0.484068 -0.002,0.04588 0.0226,0.168333 -0.003,0.208914 -0.038,0.06133 -0.0802,-0.07202 -0.0892,-0.08917"
       id="path6832" /><path
       style="font-variation-settings:normal;opacity:1;fill:none;fill-opacity:1;stroke:#000000;stroke-width:0.264583;stroke-linecap:round;stroke-linejoin:round;stroke-miterlimit:4;stroke-dasharray:none;stroke-dashoffset:0;stroke-opacity:1;stop-color:#000000;stop-opacity:1"
       d="m 104.65306,60.81371 c 0.33519,0.04184 0.67319,0.03543 1.00893,0.07134 0.21444,0.02294 0.23465,0.03488 0.44841,0.04841 0.26281,0.01665 0.52401,0.01821 0.78472,0.05605 0.21271,0.03089 0.42342,0.07054 0.63695,0.09426 0.0286,0.0032 0.1707,0.03838 0.1707,-0.0051"
       id="path6836" /><path
       style="font-variation-settings:normal;opacity:1;fill:none;fill-opacity:1;stroke:#000000;stroke-width:0.264583;stroke-linecap:round;stroke-linejoin:round;stroke-miterlimit:4;stroke-dasharray:none;stroke-dashoffset:0;stroke-opacity:1;stop-color:#000000;stop-opacity:1"
       d="m 107.19322,62.614952 c 0.30281,0.0816 0.61352,0.06223 0.9223,0.08153 0.0958,0.006 0.17167,0.03819 0.26497,0.01272"
       id="path6838" /><path
       style="font-variation-settings:normal;opacity:1;fill:none;fill-opacity:1;stroke:#000000;stroke-width:0.264583;stroke-linecap:round;stroke-linejoin:round;stroke-miterlimit:4;stroke-dasharray:none;stroke-dashoffset:0;stroke-opacity:1;stop-color:#000000;stop-opacity:1"
       d="m 109.77413,62.60731 c 0.3439,-0.477662 0.78693,-0.877621 1.20511,-1.289149 0.006,-0.0064 0.12638,-0.148778 0.15796,-0.117189 0.0499,0.04989 0.0236,0.540911 0.0229,0.631836 -0.002,0.28199 0.003,0.563942 -0.008,0.845844 -0.009,0.238865 -0.0306,0.477203 -0.0433,0.71591 -0.0134,0.250134 -0.0202,0.496351 -0.0229,0.746485 -10e-4,0.107856 -0.007,0.220291 -0.003,0.328657 6.6e-4,0.01813 0.002,0.06973 0.0102,0.0535 0.0222,-0.04436 -0.0112,-0.0986 -0.0178,-0.147768"
       id="path6848" /><path
       style="font-variation-settings:normal;opacity:1;fill:none;fill-opacity:1;stroke:#000000;stroke-width:0.264583;stroke-linecap:round;stroke-linejoin:round;stroke-miterlimit:4;stroke-dasharray:none;stroke-dashoffset:0;stroke-opacity:1;stop-color:#000000;stop-opacity:1"
       d="m 111.80982,60.699064 c 0.1704,0.297502 0.30655,0.616443 0.38726,0.950302 0.14923,0.617221 0.27601,1.286027 0.19873,1.92353 -0.0327,0.269855 -0.0753,0.484216 -0.19108,0.72865 -0.0619,0.130615 -0.12596,0.260743 -0.18599,0.392351 -0.0111,0.02426 -0.0294,0.06028 -0.0382,0.08662 -0.004,0.01146 -2.2e-4,0.04664 -0.005,0.03566 -0.006,-0.0147 -0.0145,-0.05569 -0.0178,-0.07134"
       id="path6850" /><path
       style="font-variation-settings:normal;opacity:1;fill:none;fill-opacity:1;stroke:#000000;stroke-width:0.264583;stroke-linecap:round;stroke-linejoin:round;stroke-miterlimit:4;stroke-dasharray:none;stroke-dashoffset:0;stroke-opacity:1;stop-color:#000000;stop-opacity:1"
       d="m 104.08745,60.434101 c -0.23759,0.500192 -0.40366,1.024226 -0.47134,1.574493 -0.0282,0.229747 -0.0249,0.461942 -0.028,0.692981 -0.002,0.153232 -0.0116,0.313366 0.0102,0.466235 0.005,0.03368 0.0461,0.221555 0.051,0.247127 0.0273,0.143789 0.0411,0.289497 0.0994,0.425474 0.0977,0.22797 0.21462,0.315759 0.35159,0.5019 0.0541,0.07355 0.10035,0.140815 0.15797,0.208914 0.0239,0.02825 0.0774,0.124478 0.0662,0.08917 -0.006,-0.01869 -0.012,-0.03737 -0.0178,-0.05605"
       id="path6852" /><path
       style="font-variation-settings:normal;opacity:1;fill:none;fill-opacity:1;stroke:#000000;stroke-width:0.264583;stroke-linecap:round;stroke-linejoin:round;stroke-miterlimit:4;stroke-dasharray:none;stroke-dashoffset:0;stroke-opacity:1;stop-color:#000000;stop-opacity:1"
       d="m 48.799809,47.832745 c -0.881769,0.163758 -1.740442,0.749268 -2.258628,1.481997 -0.518544,0.733235 -0.543481,1.620671 0.08299,2.300065 0.221912,0.240655 0.519153,0.456372 0.847728,0.521663 0.983493,0.195432 2.090489,-0.08079 2.887014,-0.687646 0.555154,-0.422961 0.669407,-1.077857 0.640242,-1.742832 -0.0048,-0.109024 0.0047,-0.222451 -0.02964,-0.326041 -0.07762,-0.234254 -0.182366,-0.460137 -0.302336,-0.675791 -0.101164,-0.181848 -0.701842,-0.647141 -0.723234,-0.663934 -0.210597,-0.165341 -0.63129,-0.374222 -0.895151,-0.308256 -0.08686,0.02172 -0.165989,0.06718 -0.248984,0.100775 z"
       id="path7043" /><path
       style="font-variation-settings:normal;opacity:1;fill:none;fill-opacity:1;stroke:#000000;stroke-width:0.264583;stroke-linecap:round;stroke-linejoin:round;stroke-miterlimit:4;stroke-dasharray:none;stroke-dashoffset:0;stroke-opacity:1;stop-color:#000000;stop-opacity:1"
       d="m 46.297391,53.413484 c -0.309989,0.62416 -0.577051,1.289349 -0.609293,1.993292 -0.0088,0.192995 0.03046,0.375896 0.05061,0.566452 0.01561,0.147505 0.025,0.295592 0.05061,0.441872 0.01916,0.10944 0.0511,0.215966 0.07203,0.325078 0.04302,0.224311 0.08299,0.445437 0.151836,0.663781 0.07506,0.23803 0.164079,0.485445 0.315355,0.687139 0.05075,0.06767 0.112447,0.120057 0.169357,0.181033 0.0168,0.01802 0.03819,0.03192 0.05645,0.04866 0.0071,0.0065 0.02543,0.02824 0.02141,0.01947 -0.01183,-0.0258 -0.03766,-0.06822 -0.05256,-0.09344"
       id="path7065" /><path
       style="font-variation-settings:normal;opacity:1;fill:none;fill-opacity:1;stroke:#000000;stroke-width:0.264583;stroke-linecap:round;stroke-linejoin:round;stroke-miterlimit:4;stroke-dasharray:none;stroke-dashoffset:0;stroke-opacity:1;stop-color:#000000;stop-opacity:1"
       d="m 47.982154,54.24281 c -0.420558,0.390972 -0.447326,0.485386 -0.547579,0.924939 -0.05886,0.258064 -0.116152,0.504123 -0.140597,0.769548 -0.03423,0.371613 0.01508,1.569286 0.384789,1.775881 0.303549,0.169622 0.848532,0.263993 1.050753,-0.0962 0.07262,-0.129349 0.166119,-0.455469 0.199795,-0.58456 0.196691,-0.753983 0.300686,-1.515808 0.0222,-2.264248 -0.04252,-0.114266 -0.474591,-0.773933 -0.562377,-0.73995 -0.14302,0.05536 -0.271322,0.143055 -0.406982,0.214585 z"
       id="path7071" /><path
       style="font-variation-settings:normal;opacity:1;fill:none;fill-opacity:1;stroke:#000000;stroke-width:0.264583;stroke-linecap:round;stroke-linejoin:round;stroke-miterlimit:4;stroke-dasharray:none;stroke-dashoffset:0;stroke-opacity:1;stop-color:#000000;stop-opacity:1"
       d="m 49.735884,53.702645 c 0.269544,0.272042 0.429609,0.535353 0.562377,0.880544 0.299892,0.779708 0.385358,1.620462 0.25899,2.441834 -0.06098,0.396351 -0.31555,0.692804 -0.503182,1.021133 -0.01368,0.02392 -0.07047,0.15539 -0.103595,0.15539 -0.08804,0 0.03045,-0.173575 0.0518,-0.258985"
       id="path7079" /><circle
       id="path12904"
       style="fill:#000000;stroke:none;stroke-width:0.264583"
       cx="97.613708"
       cy="49.025139"
       r="1.8520811" /><circle
       id="path12955"
       style="fill:#000000;stroke:none;stroke-width:0.264583"
       cx="87.897141"
       cy="58.453625"
       r="0.92604053" /><circle
       id="path12963"
       style="fill:#000000;stroke:none;stroke-width:0.264583"
       cx="83.213074"
       cy="48.994717"
       r="1.8520811" /><path
       style="font-variation-settings:normal;opacity:1;vector-effect:none;fill:none;fill-opacity:1;stroke:#000000;stroke-width:0.264583px;stroke-linecap:round;stroke-linejoin:round;stroke-miterlimit:4;stroke-dasharray:none;stroke-dashoffset:0;stroke-opacity:1;-inkscape-stroke:none;stop-color:#000000;stop-opacity:1"
       d="m 100.75403,43.530878 c -0.0105,0.206848 -0.0203,0.354881 -0.0249,0.546832 -0.0107,0.442194 -0.0258,0.884734 -0.0398,1.326741 -0.0118,0.373107 -0.0797,0.741464 -0.0797,1.116074 0,0.05827 0,-0.116538 0,-0.174806"
       id="path12977" /><path
       style="font-variation-settings:normal;opacity:1;vector-effect:none;fill:none;fill-opacity:1;stroke:#000000;stroke-width:0.264583px;stroke-linecap:round;stroke-linejoin:round;stroke-miterlimit:4;stroke-dasharray:none;stroke-dashoffset:0;stroke-opacity:1;-inkscape-stroke:none;stop-color:#000000;stop-opacity:1"
       d="m 99.205126,43.29332 c 0.726353,0.214345 1.475114,0.09801 2.216274,0.121019 0.21796,0.0068 0.44048,0.0023 0.65741,0.01793 0.0923,0.0066 0.2388,0.03141 0.29883,0.02241"
       id="path12979" /><path
       style="font-variation-settings:normal;opacity:1;vector-effect:none;fill:none;fill-opacity:1;stroke:#000000;stroke-width:0.264583px;stroke-linecap:round;stroke-linejoin:round;stroke-miterlimit:4;stroke-dasharray:none;stroke-dashoffset:0;stroke-opacity:1;-inkscape-stroke:none;stop-color:#000000;stop-opacity:1"
       d="m 102.84082,42.414802 c 0.25808,-0.139582 0.80061,-0.01178 0.71717,0.372025 -0.0653,0.300464 -0.24966,0.60573 -0.43329,0.847141 -0.0801,0.105246 -0.37082,0.560512 -0.62255,0.4796 -0.0855,-0.02747 -0.2028,-0.304694 -0.0747,-0.295827 0.20943,0.0145 0.48313,0.08953 0.67733,0.170324 0.0332,0.01381 0.63871,0.298361 0.69227,0.300309 0.0711,0.0026 0.12285,-0.07172 0.18428,-0.107574"
       id="path12981" /><path
       style="font-variation-settings:normal;opacity:1;vector-effect:none;fill:none;fill-opacity:1;stroke:#000000;stroke-width:0.264583px;stroke-linecap:round;stroke-linejoin:round;stroke-miterlimit:4;stroke-dasharray:none;stroke-dashoffset:0;stroke-opacity:1;-inkscape-stroke:none;stop-color:#000000;stop-opacity:1"
       d="m 105.63482,44.185284 c -0.01,0.09711 -0.0203,0.194189 -0.0299,0.291345 -0.0377,0.383397 -0.0326,0.751291 0.01,1.134004 0.004,0.03887 -0.003,0.326695 0.0349,0.17929"
       id="path12987" /><path
       style="font-variation-settings:normal;opacity:1;vector-effect:none;fill:none;fill-opacity:1;stroke:#000000;stroke-width:0.264583px;stroke-linecap:round;stroke-linejoin:round;stroke-miterlimit:4;stroke-dasharray:none;stroke-dashoffset:0;stroke-opacity:1;-inkscape-stroke:none;stop-color:#000000;stop-opacity:1"
       d="m 104.75827,44.938298 c 0.47458,0.0094 0.95774,0.09626 1.42937,0.0045 0.0615,-0.01196 0.38664,-0.05579 0.40839,-0.08516 0.0138,-0.01856 0.002,-0.03325 -0.005,-0.0493"
       id="path12989" /><path
       style="font-variation-settings:normal;opacity:1;vector-effect:none;fill:none;fill-opacity:1;stroke:#000000;stroke-width:0.264583px;stroke-linecap:round;stroke-linejoin:round;stroke-miterlimit:4;stroke-dasharray:none;stroke-dashoffset:0;stroke-opacity:1;-inkscape-stroke:none;stop-color:#000000;stop-opacity:1"
       d="m 107.88098,45.350664 c 0.0946,-0.137455 0.17598,-0.285062 0.28388,-0.412366 0.45289,-0.534336 1.01193,-0.980817 1.51902,-1.461207 0.10001,-0.111981 0.2197,-0.202596 0.32871,-0.304792 0.0163,-0.01528 0.0412,-0.06544 0.0498,-0.04482 0.0313,0.0751 -0.20162,0.675814 -0.22412,0.757496 -0.1347,0.489055 -0.24728,0.983268 -0.3536,1.479137 -0.0326,0.151924 -0.0402,0.308924 -0.0697,0.461671 -0.0515,0.266464 -0.0984,0.531729 -0.14941,0.797838 -0.002,0.0083 -0.029,0.101186 -0.0199,0.112053 0.008,0.0095 0.0276,0.0016 0.0349,0"
       id="path12991" /><path
       style="font-variation-settings:normal;opacity:1;vector-effect:none;fill:none;fill-opacity:1;stroke:#000000;stroke-width:0.264583px;stroke-linecap:round;stroke-linejoin:round;stroke-miterlimit:4;stroke-dasharray:none;stroke-dashoffset:0;stroke-opacity:1;-inkscape-stroke:none;stop-color:#000000;stop-opacity:1"
       d="m 98.602498,42.508929 c -0.326435,0.643513 -0.520531,1.25657 -0.617567,1.9677 -0.03966,0.290621 -0.119562,0.631201 -0.05977,0.923339 0.01603,0.07829 0.05064,0.1513 0.06972,0.228594 0.04595,0.186109 0.0569,0.376144 0.12949,0.555798 0.02061,0.05101 0.204975,0.444187 0.174315,0.251005"
       id="path12995" /><path
       style="font-variation-settings:normal;opacity:1;vector-effect:none;fill:none;fill-opacity:1;stroke:#000000;stroke-width:0.264583px;stroke-linecap:round;stroke-linejoin:round;stroke-miterlimit:4;stroke-dasharray:none;stroke-dashoffset:0;stroke-opacity:1;-inkscape-stroke:none;stop-color:#000000;stop-opacity:1"
       d="m 110.6949,42.961635 c 0.0931,0.33884 0.23145,0.655619 0.30879,0.999536 0.10509,0.467323 0.15052,0.897424 0.11952,1.371564 -0.0146,0.223354 -0.013,0.466236 -0.0847,0.681299 -0.0572,0.171542 -0.11323,0.35573 -0.18926,0.519938 -0.0239,0.05157 -0.0524,0.102398 -0.0697,0.156879 -0.008,0.02468 -0.0351,0.09708 -0.0299,0.07172 0.009,-0.04497 0.0199,-0.08965 0.0299,-0.134468"
       id="path12997" /><path
       style="font-variation-settings:normal;opacity:1;vector-effect:none;fill:none;fill-opacity:1;stroke:#000000;stroke-width:0.264583px;stroke-linecap:round;stroke-linejoin:round;stroke-miterlimit:4;stroke-dasharray:none;stroke-dashoffset:0;stroke-opacity:1;-inkscape-stroke:none;stop-color:#000000;stop-opacity:1"
       d="m 75.144831,43.741542 c -0.03215,0.451361 -0.01741,0.212247 -0.03486,0.54235 -0.03087,0.58335 -0.100718,1.164666 -0.12451,1.748073 -0.0072,0.17771 -0.005,0.355591 -0.005,0.533385 0,0.03287 0,0.06574 0,0.09861 0,0.006 -0.0054,0.02038 0,0.01793 0.0075,-0.0034 0.0066,-0.01494 0.0099,-0.02241"
       id="path12999" /><path
       style="font-variation-settings:normal;opacity:1;vector-effect:none;fill:none;fill-opacity:1;stroke:#000000;stroke-width:0.264583px;stroke-linecap:round;stroke-linejoin:round;stroke-miterlimit:4;stroke-dasharray:none;stroke-dashoffset:0;stroke-opacity:1;-inkscape-stroke:none;stop-color:#000000;stop-opacity:1"
       d="m 73.87981,43.584665 c 0.734084,0.06134 1.464043,0.156877 2.201336,0.156877 0.07968,0 0.366184,0.04907 0.413375,-0.03586"
       id="path13001" /><path
       style="font-variation-settings:normal;opacity:1;vector-effect:none;fill:none;fill-opacity:1;stroke:#000000;stroke-width:0.264583px;stroke-linecap:round;stroke-linejoin:round;stroke-miterlimit:4;stroke-dasharray:none;stroke-dashoffset:0;stroke-opacity:1;-inkscape-stroke:none;stop-color:#000000;stop-opacity:1"
       d="m 76.7535,45.068283 c 0.343014,0.145812 0.680162,0.118192 1.040903,0.103092 0.117221,-0.0049 0.289637,0.01112 0.388472,0"
       id="path13005" /><path
       style="font-variation-settings:normal;opacity:1;vector-effect:none;fill:none;fill-opacity:1;stroke:#000000;stroke-width:0.264583px;stroke-linecap:round;stroke-linejoin:round;stroke-miterlimit:4;stroke-dasharray:none;stroke-dashoffset:0;stroke-opacity:1;-inkscape-stroke:none;stop-color:#000000;stop-opacity:1"
       d="m 78.830323,46.224698 c 0.03154,0.101598 0.06063,0.203992 0.09463,0.304794 0.06368,0.188799 0.110667,0.27924 0.114549,0.277896 0.182065,-0.06302 0.201999,-0.60453 0.214156,-0.744049 0.0113,-0.129663 0.01606,-0.259858 0.01992,-0.389955 0.01331,-0.448654 0.01495,-0.577309 0,-0.972644 -0.0077,-0.204141 -0.126857,-1.256705 0.263962,-1.308812 0.289446,-0.03859 0.596228,0.03267 0.886513,0.04482 0.353496,0.0148 0.709671,-3.7e-4 1.060823,-0.04034 0.120417,-0.0137 0.243358,-0.0237 0.363569,-0.04034 0.0099,-0.0014 0.05179,-0.01919 0.05976,-0.01345 0.03688,0.02655 0.131456,0.845597 0.124511,0.914375 -0.0019,0.01832 -0.01852,-0.03204 -0.0249,-0.0493"
       id="path13009" /><path
       style="font-variation-settings:normal;opacity:1;vector-effect:none;fill:none;fill-opacity:1;stroke:#000000;stroke-width:0.264583px;stroke-linecap:round;stroke-linejoin:round;stroke-miterlimit:4;stroke-dasharray:none;stroke-dashoffset:0;stroke-opacity:1;-inkscape-stroke:none;stop-color:#000000;stop-opacity:1"
       d="m 79.871229,44.324232 c 0.257066,-0.265473 1.045471,-0.393585 1.001061,0.17929 -0.03033,0.391204 -0.294296,0.76796 -0.4831,1.084701 -0.08704,0.146018 -0.24148,0.456715 -0.468156,0.412364 -0.228603,-0.04473 -0.133737,-0.510936 0.224118,-0.313754 0.53178,0.293016 0.894836,0.934573 1.434351,0.20618"
       id="path13011" /><path
       style="font-variation-settings:normal;opacity:1;vector-effect:none;fill:none;fill-opacity:1;stroke:#000000;stroke-width:0.264583px;stroke-linecap:round;stroke-linejoin:round;stroke-miterlimit:4;stroke-dasharray:none;stroke-dashoffset:0;stroke-opacity:1;-inkscape-stroke:none;stop-color:#000000;stop-opacity:1"
       d="m 73.391734,42.827167 c -0.697887,0.83548 -0.625089,2.002227 -0.373531,3.007577 0.04637,0.185322 0.166486,0.676589 0.413372,0.770944 0.06681,0.02553 0.142771,0.009 0.214159,0.01345"
       id="path13013" /><path
       style="font-variation-settings:normal;opacity:1;vector-effect:none;fill:none;fill-opacity:1;stroke:#000000;stroke-width:0.264583px;stroke-linecap:round;stroke-linejoin:round;stroke-miterlimit:4;stroke-dasharray:none;stroke-dashoffset:0;stroke-opacity:1;-inkscape-stroke:none;stop-color:#000000;stop-opacity:1"
       d="m 82.560641,43.235051 c 0.108024,0.278953 0.275619,0.52447 0.353611,0.815765 0.09355,0.349395 0.212233,1.321032 0.114546,1.676355 -0.02735,0.09949 -0.06451,0.196263 -0.104587,0.291347 -0.07459,0.176984 -0.179221,0.343037 -0.263962,0.515454 -0.007,0.01426 -0.05616,0.180857 -0.06973,0.107574"
       id="path13015" /><path
       style="font-variation-settings:normal;opacity:1;vector-effect:none;fill:none;fill-opacity:1;stroke:#000000;stroke-width:0.264583px;stroke-linecap:round;stroke-linejoin:round;stroke-miterlimit:4;stroke-dasharray:none;stroke-dashoffset:0;stroke-opacity:1;-inkscape-stroke:none;stop-color:#000000;stop-opacity:1"
       d="m 83.203111,42.410319 c 0.117871,-0.03436 0.232333,-0.08396 0.35361,-0.10309 0.04355,-0.0069 0.08815,0.01158 0.12949,0.02689 0.221294,0.08201 0.195397,0.264396 0.104587,0.457188 -0.08376,0.177816 -0.238919,0.341657 -0.388469,0.466153 -0.02529,0.02105 -0.05286,0.03921 -0.07969,0.05827 -0.0047,0.0034 -0.02016,0.0064 -0.01495,0.009 0.296133,0.143504 0.645933,0.12102 0.966198,0.12102"
       id="path13017" /><path
       style="font-variation-settings:normal;opacity:1;vector-effect:none;fill:none;fill-opacity:1;stroke:#000000;stroke-width:0.264583px;stroke-linecap:round;stroke-linejoin:round;stroke-miterlimit:4;stroke-dasharray:none;stroke-dashoffset:0;stroke-opacity:1;-inkscape-stroke:none;stop-color:#000000;stop-opacity:1"
       d="m 84.826721,44.817278 c 0.505494,0.05676 1.01278,0.0011 1.51902,0.01345"
       id="path13019" /><path
       style="font-variation-settings:normal;opacity:1;vector-effect:none;fill:none;fill-opacity:1;stroke:#000000;stroke-width:0.264583px;stroke-linecap:round;stroke-linejoin:round;stroke-miterlimit:4;stroke-dasharray:none;stroke-dashoffset:0;stroke-opacity:1;-inkscape-stroke:none;stop-color:#000000;stop-opacity:1"
       d="m 85.623585,43.893939 c -0.06719,0.323807 -0.05976,0.653355 -0.05976,0.981609 0,0.197305 -0.01495,0.3942 -0.01495,0.591654 0,0.04183 -0.0372,0.10637 0,0.125502 0.01109,0.0057 0.02323,-0.009 0.03486,-0.01345"
       id="path13023" /><path
       style="font-variation-settings:normal;opacity:1;vector-effect:none;fill:none;fill-opacity:1;stroke:#000000;stroke-width:0.264583px;stroke-linecap:round;stroke-linejoin:round;stroke-miterlimit:4;stroke-dasharray:none;stroke-dashoffset:0;stroke-opacity:1;-inkscape-stroke:none;stop-color:#000000;stop-opacity:1"
       d="m 87.655588,45.529952 c 0.155109,-0.505837 0.482089,-0.928665 0.771961,-1.362597 0.322276,-0.482439 0.181949,-0.277501 0.403413,-0.618548 0.0087,-0.01333 0.23146,-0.326789 0.239059,-0.31824 0.05359,0.06029 -0.01767,0.327864 -0.0249,0.389956 -0.06436,0.552892 -0.09304,1.111885 -0.119528,1.667389 -0.01151,0.241211 -0.01312,0.488901 -0.005,0.730606 0.0033,0.09902 0.02376,0.201098 0.02988,0.300306 7.94e-4,0.01342 -0.0021,0.05364 0,0.04034 0.007,-0.04606 0.0099,-0.09263 0.01495,-0.138948"
       id="path13025" /><path
       style="font-variation-settings:normal;opacity:1;vector-effect:none;fill:none;fill-opacity:1;stroke:#000000;stroke-width:0.264583px;stroke-linecap:round;stroke-linejoin:round;stroke-miterlimit:4;stroke-dasharray:none;stroke-dashoffset:0;stroke-opacity:1;-inkscape-stroke:none;stop-color:#000000;stop-opacity:1"
       d="m 72.455418,41.764878 c -0.202396,0.333958 -0.302511,0.715073 -0.418354,1.084699 -0.3742,1.194004 -0.711239,2.572836 -0.293843,3.800932 0.06449,0.189753 0.387085,0.967873 0.602631,0.950237 0.04212,-0.0034 0.05976,-0.05976 0.08965,-0.08965"
       id="path13027" /><path
       style="font-variation-settings:normal;opacity:1;vector-effect:none;fill:none;fill-opacity:1;stroke:#000000;stroke-width:0.264583px;stroke-linecap:round;stroke-linejoin:round;stroke-miterlimit:4;stroke-dasharray:none;stroke-dashoffset:0;stroke-opacity:1;-inkscape-stroke:none;stop-color:#000000;stop-opacity:1"
       d="m 90.155747,41.733502 c 0.300646,0.655123 0.492775,1.344159 0.592666,2.057345 0.04144,0.295844 0.102172,0.5925 0.109567,0.891964 0.0058,0.233406 -0.04052,0.449491 -0.08467,0.676817 -0.03825,0.197001 -0.05965,0.401447 -0.109566,0.596137 -0.062,0.241794 -0.200586,0.457153 -0.273924,0.694744 -0.02162,0.07001 -0.09961,0.36612 -0.09961,0.206184"
       id="path13029" /><path
       style="font-variation-settings:normal;opacity:1;vector-effect:none;fill:none;fill-opacity:1;stroke:#000000;stroke-width:0.264583px;stroke-linecap:round;stroke-linejoin:round;stroke-miterlimit:4;stroke-dasharray:none;stroke-dashoffset:0;stroke-opacity:1;-inkscape-stroke:none;stop-color:#000000;stop-opacity:1"
       d="m 43.586284,38.780551 c -1.651439,0.120361 -1.981689,1.378795 -2.178301,2.788278 -0.08425,0.603988 -0.08002,1.258155 -0.02556,1.862686 0.06365,0.706494 0.289639,1.377397 0.300236,2.092648 0.0083,0.559622 -0.169476,1.17639 -0.402442,1.678714 -0.483349,1.042187 -1.099513,1.597577 -2.069708,2.213377 -0.08487,0.05387 -0.17258,0.103381 -0.261909,0.149473 -0.07055,0.0364 -0.144793,0.06516 -0.217191,0.09774 -0.01402,0.0063 -0.05494,-6e-6 -0.04471,0.0115 0.172339,0.193878 0.94362,0.211624 1.194551,0.287451 0.67845,0.205013 1.296059,0.641619 1.513954,1.345271 0.194953,0.629557 0.158938,1.310669 0.204417,1.960421 0.109514,1.56462 0.07298,3.134696 0.05749,4.702704 -0.0058,0.586681 -0.03881,1.172326 -0.03194,1.759204 0.0059,0.504666 0.0449,1.007655 0.05749,1.511995 0.01812,0.72621 0.0063,1.973202 0.396055,2.587062 0.09578,0.150847 0.252486,0.311515 0.408831,0.396682 0.119491,0.06509 0.287669,0.09149 0.415222,0.132228 0.413236,0.131966 0.818414,0.264274 1.258432,0.252957 0.340532,-0.0088 0.58693,-0.09547 0.932646,-0.178218"
       id="path13033" /><path
       style="font-variation-settings:normal;opacity:1;vector-effect:none;fill:none;fill-opacity:1;stroke:#000000;stroke-width:0.264583px;stroke-linecap:round;stroke-linejoin:round;stroke-miterlimit:4;stroke-dasharray:none;stroke-dashoffset:0;stroke-opacity:1;-inkscape-stroke:none;stop-color:#000000;stop-opacity:1"
       d="m 108.19777,53.728219 c 4.85884,-4.815841 10.20834,-9.114878 15.71445,-13.165273 1.82012,-1.338913 3.64737,-2.675781 5.5256,-3.932335"
       id="path13035" /><path
       style="font-variation-settings:normal;opacity:1;vector-effect:none;fill:none;fill-opacity:1;stroke:#000000;stroke-width:0.264583px;stroke-linecap:round;stroke-linejoin:round;stroke-miterlimit:4;stroke-dasharray:none;stroke-dashoffset:0;stroke-opacity:1;-inkscape-stroke:none;stop-color:#000000;stop-opacity:1"
       d="m 117.43479,53.992676 c 1.11464,-1.368528 1.42774,-1.830979 2.95126,-3.19071 1.09289,-0.9754 2.25546,-1.869869 3.39201,-2.794029 1.35435,-1.101253 2.44031,-1.929415 3.82641,-2.989495 1.57597,-1.205286 2.65748,-2.049617 4.18413,-3.144717 0.87881,-0.630389 1.75303,-1.218752 2.63185,-1.833942"
       id="path13037" /><path
       style="font-variation-settings:normal;opacity:1;vector-effect:none;fill:none;fill-opacity:1;stroke:#000000;stroke-width:0.264583px;stroke-linecap:round;stroke-linejoin:round;stroke-miterlimit:4;stroke-dasharray:none;stroke-dashoffset:0;stroke-opacity:1;-inkscape-stroke:none;stop-color:#000000;stop-opacity:1"
       d="m 127.71306,54.182395 c 0.10434,-0.07474 0.22045,-0.135316 0.31301,-0.224215 0.25794,-0.247704 0.48175,-0.528999 0.73463,-0.781867 0.89789,-0.897868 1.53797,-1.477516 2.53603,-2.288113 1.34306,-1.090803 2.79152,-2.0463 4.14581,-3.121721"
       id="path13039" /><path
       style="font-variation-settings:normal;opacity:1;vector-effect:none;fill:none;fill-opacity:1;stroke:#000000;stroke-width:0.264583px;stroke-linecap:round;stroke-linejoin:round;stroke-miterlimit:4;stroke-dasharray:none;stroke-dashoffset:0;stroke-opacity:1;-inkscape-stroke:none;stop-color:#000000;stop-opacity:1"
       d="m 98.449698,54.993005 c 1.174038,-1.134546 2.522232,-2.079131 3.794472,-3.098725 0.53933,-0.432229 1.14384,-0.864508 1.57144,-1.41426"
       id="path13081" /><path
       style="font-variation-settings:normal;opacity:1;vector-effect:none;fill:none;fill-opacity:1;stroke:#000000;stroke-width:0.264583px;stroke-linecap:round;stroke-linejoin:round;stroke-miterlimit:4;stroke-dasharray:none;stroke-dashoffset:0;stroke-opacity:1;-inkscape-stroke:none;stop-color:#000000;stop-opacity:1"
       d="m 112.22859,41.362061 c 0.11498,-0.118813 0.22455,-0.243115 0.34495,-0.356439 0.59444,-0.559519 1.27983,-1.044941 1.90362,-1.569485 0.61286,-0.515353 1.20868,-1.060365 1.84612,-1.54649 0.21719,-0.159057 0.43439,-0.318113 0.65158,-0.477169 0.083,-0.05557 0.16839,-0.107852 0.24914,-0.166721 0.20576,-0.150019 0.22844,-0.170297 0.37688,-0.321946 0.098,-0.100133 0.19676,-0.242608 0.3194,-0.316196"
       id="path13083" /><path
       style="font-variation-settings:normal;opacity:1;vector-effect:none;fill:none;fill-opacity:1;stroke:#000000;stroke-width:0.264583px;stroke-linecap:round;stroke-linejoin:round;stroke-miterlimit:4;stroke-dasharray:none;stroke-dashoffset:0;stroke-opacity:1;-inkscape-stroke:none;stop-color:#000000;stop-opacity:1"
       d="m 89.027417,55.470175 c 1.181807,-1.143662 2.436583,-2.207635 3.628382,-3.340185 0.261562,-0.248559 0.563084,-0.486787 0.811274,-0.747374"
       id="path13085" /><path
       style="font-variation-settings:normal;opacity:1;vector-effect:none;fill:none;fill-opacity:1;stroke:#000000;stroke-width:0.264583px;stroke-linecap:round;stroke-linejoin:round;stroke-miterlimit:4;stroke-dasharray:none;stroke-dashoffset:0;stroke-opacity:1;-inkscape-stroke:none;stop-color:#000000;stop-opacity:1"
       d="m 105.55314,40.396225 c 0.16183,-0.09007 0.32742,-0.173678 0.48549,-0.270206 0.38396,-0.234483 0.7599,-0.576136 1.09873,-0.856606 0.62174,-0.514654 1.22712,-1.052635 1.82696,-1.59248 0.27756,-0.249794 0.5401,-0.525844 0.83683,-0.753122 0.0904,-0.06928 0.19365,-0.09896 0.28746,-0.155223"
       id="path13087" /><path
       style="font-variation-settings:normal;opacity:1;vector-effect:none;fill:none;fill-opacity:1;stroke:#000000;stroke-width:0.264583px;stroke-linecap:round;stroke-linejoin:round;stroke-miterlimit:4;stroke-dasharray:none;stroke-dashoffset:0;stroke-opacity:1;-inkscape-stroke:none;stop-color:#000000;stop-opacity:1"
       d="m 81.412939,55.677143 c 0.123243,-0.116685 0.208482,-0.272865 0.332177,-0.390937 0.18361,-0.175261 0.397335,-0.320046 0.587698,-0.488667 0.466643,-0.413351 0.932534,-0.822025 1.418132,-1.213043 0.954019,-0.768206 1.886942,-1.563949 2.849038,-2.322609 0.412314,-0.32513 0.784694,-0.673466 1.169004,-1.029076 0.276868,-0.256192 0.625239,-0.487476 0.836824,-0.804863"
       id="path13089" /><path
       style="font-variation-settings:normal;opacity:1;vector-effect:none;fill:none;fill-opacity:1;stroke:#000000;stroke-width:0.264583px;stroke-linecap:round;stroke-linejoin:round;stroke-miterlimit:4;stroke-dasharray:none;stroke-dashoffset:0;stroke-opacity:1;-inkscape-stroke:none;stop-color:#000000;stop-opacity:1"
       d="m 93.345698,43.425962 c 0.37293,-0.498307 0.813244,-0.903481 1.303155,-1.282034 0.479581,-0.370573 0.960308,-0.74125 1.450067,-1.098065 0.317987,-0.23167 0.65686,-0.442043 0.958202,-0.695631 0.235839,-0.198467 0.437653,-0.425021 0.66435,-0.632392 0.259202,-0.237107 0.537562,-0.450924 0.804884,-0.678386 0.350306,-0.29807 0.73011,-0.581286 1.054021,-0.908347 0.223938,-0.226115 0.446743,-0.442303 0.683513,-0.655389 0.1776,-0.159839 0.35985,-0.321414 0.5302,-0.488667 0.0242,-0.02374 0.20125,-0.169617 0.14692,-0.12073"
       id="path13091" /><path
       style="font-variation-settings:normal;opacity:1;vector-effect:none;fill:none;fill-opacity:1;stroke:#000000;stroke-width:0.264583px;stroke-linecap:round;stroke-linejoin:round;stroke-miterlimit:4;stroke-dasharray:none;stroke-dashoffset:0;stroke-opacity:1;-inkscape-stroke:none;stop-color:#000000;stop-opacity:1"
       d="m 74.149799,55.521918 c 0.08554,-0.09427 0.355732,-0.399438 0.485487,-0.523163 0.79376,-0.756885 1.654415,-1.44976 2.478539,-2.173132 0.258242,-0.226672 0.501071,-0.469975 0.76017,-0.695633 0.18516,-0.161265 0.391911,-0.300837 0.568531,-0.47142 0.213034,-0.205753 0.411528,-0.422113 0.632412,-0.620894"
       id="path13093" /><path
       style="font-variation-settings:normal;opacity:1;vector-effect:none;fill:none;fill-opacity:1;stroke:#000000;stroke-width:0.264583px;stroke-linecap:round;stroke-linejoin:round;stroke-miterlimit:4;stroke-dasharray:none;stroke-dashoffset:0;stroke-opacity:1;-inkscape-stroke:none;stop-color:#000000;stop-opacity:1"
       d="m 88.382231,40.516954 c 0.209513,-0.291142 0.493604,-0.498438 0.747398,-0.747374 0.353173,-0.346417 0.661725,-0.736121 1.028462,-1.069319 0.384669,-0.34949 0.260876,-0.19463 0.587703,-0.494417 0.1988,-0.182353 0.280418,-0.211521 0.517421,-0.367938 0.07164,-0.04728 0.133512,-0.120656 0.06388,-0.0057"
       id="path13095" /><path
       style="font-variation-settings:normal;opacity:1;vector-effect:none;fill:none;fill-opacity:1;stroke:#000000;stroke-width:0.264583px;stroke-linecap:round;stroke-linejoin:round;stroke-miterlimit:4;stroke-dasharray:none;stroke-dashoffset:0;stroke-opacity:1;-inkscape-stroke:none;stop-color:#000000;stop-opacity:1"
       d="m 66.995257,54.987258 c 0.136276,-0.134144 0.277077,-0.263842 0.408829,-0.402433 0.78251,-0.82314 0.340891,-0.429808 1.117899,-1.172802 0.370546,-0.354324 0.769998,-0.679143 1.149834,-1.023327 0.562512,-0.509713 1.116166,-1.027111 1.705594,-1.506245 0.316005,-0.256875 0.649771,-0.491382 0.970973,-0.741625 0.294381,-0.229346 0.724247,-0.739831 1.022077,-0.873851"
       id="path13097" /><path
       style="font-variation-settings:normal;opacity:1;vector-effect:none;fill:none;fill-opacity:1;stroke:#000000;stroke-width:0.264583px;stroke-linecap:round;stroke-linejoin:round;stroke-miterlimit:4;stroke-dasharray:none;stroke-dashoffset:0;stroke-opacity:1;-inkscape-stroke:none;stop-color:#000000;stop-opacity:1"
       d="m 80.595276,40.718169 c 0.704464,-0.77042 1.588921,-1.337616 2.446602,-1.920176 0.140896,-0.0957 0.454618,-0.362309 0.606859,-0.379435"
       id="path13099" /><path
       style="font-variation-settings:normal;opacity:1;vector-effect:none;fill:none;fill-opacity:1;stroke:#000000;stroke-width:0.264583px;stroke-linecap:round;stroke-linejoin:round;stroke-miterlimit:4;stroke-dasharray:none;stroke-dashoffset:0;stroke-opacity:1;-inkscape-stroke:none;stop-color:#000000;stop-opacity:1"
       d="m 67.13579,48.186158 c 0.417319,-0.601242 1.00447,-1.039002 1.571445,-1.488999 0.221647,-0.175916 0.519592,-0.35649 0.689904,-0.586401"
       id="path13101" /><path
       style="font-variation-settings:normal;opacity:1;vector-effect:none;fill:none;fill-opacity:1;stroke:#000000;stroke-width:0.264583px;stroke-linecap:round;stroke-linejoin:round;stroke-miterlimit:4;stroke-dasharray:none;stroke-dashoffset:0;stroke-opacity:1;-inkscape-stroke:none;stop-color:#000000;stop-opacity:1"
       d="m 75.146323,39.896058 c 0.315627,-0.237955 0.49643,-0.607249 0.830442,-0.816362"
       id="path13103" /><path
       style="font-variation-settings:normal;opacity:1;vector-effect:none;fill:none;fill-opacity:1;stroke:#000000;stroke-width:0.264583px;stroke-linecap:round;stroke-linejoin:round;stroke-miterlimit:4;stroke-dasharray:none;stroke-dashoffset:0;stroke-opacity:1;-inkscape-stroke:none;stop-color:#000000;stop-opacity:1"
       d="m 67.602113,42.161175 c 0.754076,-0.784453 1.614109,-1.452659 2.421046,-2.178881 0.230809,-0.207723 0.819568,-0.868103 1.169003,-0.868103"
       id="path13105" /></g></svg>
