<?xml version="1.0" encoding="UTF-8" standalone="no"?>
<!-- Created with Inkscape (http://www.inkscape.org/) -->

<svg
   width="128"
   height="128"
   viewBox="0 0 33.866664 33.866667"
   version="1.1"
   id="svg5"
   xml:space="preserve"
   inkscape:version="1.2.2 (b0a8486541, 2022-12-01)"
   sodipodi:docname="cover.svg"
   xmlns:inkscape="http://www.inkscape.org/namespaces/inkscape"
   xmlns:sodipodi="http://sodipodi.sourceforge.net/DTD/sodipodi-0.dtd"
   xmlns:xlink="http://www.w3.org/1999/xlink"
   xmlns="http://www.w3.org/2000/svg"
   xmlns:svg="http://www.w3.org/2000/svg"><sodipodi:namedview
     id="namedview7"
     pagecolor="#ffffff"
     bordercolor="#111111"
     borderopacity="1"
     inkscape:showpageshadow="0"
     inkscape:pageopacity="0"
     inkscape:pagecheckerboard="1"
     inkscape:deskcolor="#d1d1d1"
     inkscape:document-units="mm"
     showgrid="false"
     inkscape:zoom="4.4569828"
     inkscape:cx="80.43558"
     inkscape:cy="75.387322"
     inkscape:window-width="1908"
     inkscape:window-height="1049"
     inkscape:window-x="4"
     inkscape:window-y="4"
     inkscape:window-maximized="1"
     inkscape:current-layer="g279" /><defs
     id="defs2"><linearGradient
       inkscape:collect="always"
       id="linearGradient1185"><stop
         style="stop-color:#000000;stop-opacity:1;"
         offset="0"
         id="stop1181" /><stop
         style="stop-color:#000000;stop-opacity:0;"
         offset="1"
         id="stop1183" /></linearGradient><linearGradient
       inkscape:collect="always"
       xlink:href="#linearGradient1185"
       id="linearGradient1187"
       x1="24.657865"
       y1="4.0634066"
       x2="30.273399"
       y2="4.0634066"
       gradientUnits="userSpaceOnUse" /></defs><g
     inkscape:label="Layer 1"
     inkscape:groupmode="layer"
     id="layer1"><g
       style="fill:#239dad;fill-opacity:1"
       id="g279"
       transform="matrix(0.26458333,0,0,0.26458333,4.8947918,22.030829)"><g
         id="logo"
         style="fill:#239dad;fill-opacity:1"
         transform="translate(-1.0928794e-7,2.3539657)"><path
           d="m 7.88785,18.1481 c 0,1.1324 0.16248,1.8923 0.48745,2.2797 0.32496,0.3874 0.91581,0.5811 1.7725,0.5811 0.8863,0 2.0237,-0.447 3.4122,-1.341 l 0.8863,1.4751 c -2.5998,2.1754 -4.74159,3.2631 -6.42551,3.2631 -1.68392,0 -3.01334,-0.4023 -3.98824,-1.2069 C 3.05765,22.3648 2.5702,20.9046 2.5702,18.8186 V 7.10728 H 0.35451 L 0,5.45338 2.5702,4.64879 V 2.45849 L 7.88785,0 V 4.91699 L 13.1169,4.51469 12.6294,7.42018 7.88785,7.24138 Z"
           fill="currentColor"
           id="path256"
           style="fill:#239dad;fill-opacity:1" /><path
           d="m 17.5836,34.5977 h -0.7534 c -0.709,-1.2218 -1.2555,-2.9651 -1.6396,-5.2299 l 1.0192,-0.6258 c 0.8568,0.5364 1.6101,0.8046 2.26,0.8046 1.3885,0 2.4521,-0.6407 3.1906,-1.9221 l 1.5067,-3.5313 -6.78,-15.95782 c -0.3545,-0.8046 -0.6647,-1.3112 -0.9306,-1.5198 -0.2659,-0.2086 -0.7681,-0.3576 -1.5067,-0.447 L 13.6396,4.51469 c 2.3634,0.2384 4.0621,0.3576 5.0961,0.3576 1.034,0 2.8804,-0.1192 5.5392,-0.3576 l -0.1772,1.56449 c -0.0591,0.0298 -0.2216,0.0745 -0.4875,0.1341 -0.2363,0.0596 -0.4431,0.1192 -0.6204,0.1788 -0.1477,0.0298 -0.3249,0.0745 -0.5317,0.1341 -0.4136,0.1788 -0.6204,0.4023 -0.6204,0.6705 0,0.2086 0.0591,0.5215 0.1772,0.9387 l 3.8996,10.05742 3.811,-10.23623 c 0.0886,-0.2682 0.133,-0.52149 0.133,-0.75989 0,-0.5364 -0.7829,-0.894 -2.3487,-1.0728 l -0.0886,-1.5645 c 1.4476,0.2086 2.6588,0.31291 3.6337,0.31291 0.9749,0 2.585,-0.10431 4.8302,-0.31291 l -0.3102,1.6539 c -0.709,0.0298 -1.2112,0.1639 -1.5066,0.4023 -0.2659,0.2086 -0.5466,0.6556 -0.842,1.34099 L 23.9204,29.9042 c -1.3294,3.129 -3.4417,4.6935 -6.3368,4.6935 z"
           fill="currentColor"
           id="path258"
           style="fill:#239dad;fill-opacity:1" /><path
           d="m 49.1768,22.1264 c 1.1522,0 2.1271,-0.6407 2.9247,-1.9221 0.8272,-1.3112 1.2408,-3.2184 1.2408,-5.7215 0,-4.64883 -1.3442,-6.97322 -4.0325,-6.97322 -1.0931,0 -2.2896,0.6109 -3.5894,1.83269 V 19.6232 c 0.3249,0.7152 0.8124,1.3112 1.4623,1.788 0.65,0.4768 1.3147,0.7152 1.9941,0.7152 z M 49.2655,35 c -2.7475,-0.2682 -4.6087,-0.4023 -5.5836,-0.4023 -0.9749,0 -2.9247,0.1341 -5.8494,0.4023 l -0.4431,-1.6092 c 1.0635,-0.2384 1.8316,-0.5066 2.3043,-0.8046 0.4727,-0.298 0.709,-0.7599 0.709,-1.3857 V 8.89527 c 0,-1.01319 -0.384,-1.51979 -1.1521,-1.51979 l -2.0385,0.2682 -0.2215,-1.6986 c 2.5406,-1.13239 4.9483,-1.80289 7.2231,-2.01149 l 0.9306,1.02809 c 0,0.6556 0.1477,1.4006 0.4431,2.235 l 1.9498,-1.4751 c 1.359,-1.04299 2.585,-1.56449 3.6781,-1.56449 2.6883,0 4.6677,0.81949 5.938,2.45849 1.2703,1.63899 1.9055,3.99322 1.9055,7.06262 0,3.0395 -0.9601,5.5874 -2.8804,7.6436 -1.9203,2.0562 -4.3871,3.0843 -7.4004,3.0843 -0.9749,0 -1.9941,-0.3278 -3.0576,-0.9834 v 7.8672 c 0,0.5662 0.2363,1.0132 0.709,1.341 0.6795,0.298 1.5657,0.5364 2.6588,0.7152 l 0.4875,0.0894 z"
           fill="currentColor"
           id="path260"
           style="fill:#239dad;fill-opacity:1" /><path
           d="m 67.3337,22.2605 c 0.709,0 1.2999,-0.2235 1.7726,-0.6705 0.4726,-0.447 0.709,-0.9983 0.709,-1.6539 0,-0.6854 -0.0886,-1.192 -0.2659,-1.5198 -0.1772,-0.3576 -0.4727,-0.6854 -0.8863,-0.9834 -0.5908,-0.4768 -1.4328,-0.9833 -2.5258,-1.5197 -1.0636,-0.5364 -1.9055,-0.9983 -2.5259,-1.3857 -0.5909,-0.3874 -1.1817,-1.0132 -1.7726,-1.8774 -0.5613,-0.894 -0.8419,-1.9221 -0.8419,-3.08433 0,-1.66879 0.6499,-2.97999 1.9498,-3.93359 1.3294,-0.98339 2.969,-1.47509 4.9188,-1.47509 1.9498,0 4.1655,0.3427 6.6471,1.02809 -0.0887,1.937 -0.3398,3.57599 -0.7534,4.91702 l -1.7725,0.4023 c -0.709,-2.86082 -2.0532,-4.29122 -4.0326,-4.29122 -1.3294,0 -1.9941,0.7897 -1.9941,2.36909 0,0.6258 0.2511,1.1622 0.7533,1.60923 0.5318,0.447 1.2999,0.9238 2.3043,1.4304 1.0045,0.4768 1.7283,0.8493 2.1714,1.1175 0.4432,0.2384 1.034,0.6407 1.7726,1.2069 C 74.3205,15.0192 75,16.524 75,18.461 c 0,1.937 -0.7386,3.4121 -2.2157,4.4253 -1.4771,1.0132 -3.4269,1.5198 -5.8494,1.5198 -2.3929,0 -4.4905,-0.4023 -6.2926,-1.2069 -0.059,-0.5066 -0.0886,-1.3857 -0.0886,-2.6373 0,-1.2814 0.0296,-2.1754 0.0886,-2.682 l 2.1714,-0.4916 c 0.2364,1.4601 0.7534,2.6372 1.551,3.5312 0.7976,0.894 1.7873,1.341 2.969,1.341 z"
           fill="currentColor"
           id="path262"
           style="fill:#239dad;fill-opacity:1" /><path
           d="m 84.4416,18.1481 c 0,1.1324 0.1624,1.8923 0.4874,2.2797 0.325,0.3874 0.9158,0.5811 1.7726,0.5811 0.8862,0 2.0236,-0.447 3.4121,-1.341 L 91,21.143 c -2.5997,2.1754 -4.7416,3.2631 -6.4255,3.2631 -1.6839,0 -3.0133,-0.4023 -3.9882,-1.2069 -0.9749,-0.8344 -1.4624,-2.2946 -1.4624,-4.3806 V 7.10728 H 76.9082 L 76.5537,5.45338 79.1239,4.64879 V 2.45849 L 84.4416,0 v 4.91699 l 5.229,-0.4023 -0.4875,2.90549 -4.7415,-0.1788 z"
           fill="currentColor"
           id="path264"
           style="fill:#239dad;fill-opacity:1" /></g></g><g
       id="g315"
       transform="matrix(0.01345814,0,0,0.01345814,4.8469467,7.9679223)"
       style="stroke-width:19.6597"><g
         id="g290"
         style="stroke-width:19.6597">
	<path
   d="m 210.546,469.738 c -94.811,0 -177.388,-80.027 -177.388,-185.543 0,-103.985 82.067,-185.033 177.388,-185.033 48.935,0 74.931,25.486 93.791,43.837 l 25.487,-37.722 c 4.078,-6.116 6.117,-6.116 8.156,-6.116 5.606,0 5.606,3.567 5.606,12.233 v 120.808 c 0,10.703 0,12.232 -8.156,12.232 -7.136,0 -7.136,-1.529 -8.155,-8.666 -10.194,-74.421 -55.562,-120.807 -111.123,-120.807 -31.094,0 -130.492,17.331 -130.492,169.742 0,151.899 99.908,169.23 131.002,169.23 55.561,0 110.103,-41.798 114.181,-114.689 0.511,-5.098 0.511,-8.155 6.117,-8.155 6.626,0 6.626,3.568 6.626,8.665 10e-4,59.131 -49.953,129.984 -133.04,129.984 z"
   id="path282"
   style="stroke-width:19.6597" />
	<path
   d="m 499.676,464.131 c -59.64,0 -112.651,-48.936 -112.651,-114.69 0,-63.717 49.444,-119.277 113.161,-119.277 61.679,0 112.651,54.031 112.651,119.277 0,64.736 -51.483,114.69 -113.161,114.69 z m 57.599,-189.622 c -13.253,-21.918 -35.173,-33.133 -57.601,-33.133 -20.39,0 -44.348,10.705 -58.109,34.151 -12.233,22.43 -12.233,49.954 -12.233,69.834 0,18.352 0,49.444 12.743,71.873 13.763,23.447 36.19,34.151 58.109,34.151 25.486,0 47.915,-14.782 59.13,-37.72 11.214,-22.43 11.214,-49.954 11.214,-68.306 0,-19.367 0,-48.931 -13.253,-70.85 z"
   id="path284"
   style="stroke-width:19.6597" />
	<path
   d="m 843.237,456.993 -57.602,1.529 V 442.72 c 34.152,0 39.76,0 39.76,-22.938 V 301.016 c 0,-29.056 -5.606,-56.581 -37.721,-56.581 -32.623,0 -68.813,28.545 -68.813,81.559 v 93.791 c 0,22.938 5.606,22.938 39.76,22.938 v 15.802 l -57.091,-1.529 -57.601,1.529 v -15.802 c 34.152,0 39.761,0 39.761,-22.938 v -136.61 c 0,-24.979 -4.078,-28.545 -39.761,-28.545 v -15.803 l 71.873,-5.606 v 53.522 c 14.272,-31.604 38.229,-53.522 75.44,-53.522 29.563,0 46.386,10.194 53.521,18.86 15.803,18.351 15.803,34.151 15.803,77.988 v 97.359 c 0.51,15.292 13.253,15.292 39.759,15.292 v 15.802 z"
   id="path286"
   style="stroke-width:19.6597" />
	<path
   d="m 1247.223,228.123 c -7.135,-82.067 -14.781,-98.89 -91.752,-98.89 -9.684,0 -23.447,0 -29.055,1.021 -9.176,2.039 -9.176,9.175 -9.176,19.37 v 268.63 c 0,17.331 0,24.468 53.521,24.468 h 20.391 v 15.802 c -20.898,-1.529 -73.402,-1.529 -96.85,-1.529 -23.449,0 -75.441,0 -96.34,1.529 v -15.802 h 20.39 c 53.521,0 53.521,-7.137 53.521,-24.468 v -268.63 c 0,-11.725 0,-17.331 -10.703,-19.37 -5.098,-1.021 -18.352,-1.021 -27.527,-1.021 -76.969,0 -84.614,16.821 -91.751,98.89 H 929.15 l 9.685,-114.69 h 311.448 l 9.686,114.69 z"
   id="path288"
   style="stroke-width:19.6597" />
</g><g
         id="g294"
         style="stroke-width:19.6597">
	<path
   d="M 1511.967,568.243 H 1217.85 v -15.802 h 12.234 c 39.25,0 40.27,-5.606 40.27,-23.958 v -267.1 c 0,-18.351 -1.02,-23.958 -40.27,-23.958 h -12.234 v -15.802 h 286.98 l 14.271,114.689 h -12.742 c -8.154,-70.853 -21.918,-98.889 -99.908,-98.889 h -65.756 c -23.957,0 -24.977,3.568 -24.977,20.39 V 380.15 h 45.875 c 49.445,0 55.053,-15.802 55.053,-59.64 h 12.742 v 135.08 h -12.742 c 0,-43.327 -5.607,-59.639 -55.053,-59.639 h -45.875 V 532.05 c 0,16.82 1.02,20.39 24.977,20.39 h 67.795 c 87.676,0 99.398,-37.211 112.143,-115.71 h 12.744 z"
   id="path292"
   style="stroke-width:19.6597" />
</g><g
         id="g300"
         style="stroke-width:19.6597">
	<path
   d="m 1793.323,456.993 c -19.369,0 -56.58,0 -74.422,1.529 V 442.72 c 21.92,-0.51 33.133,-9.175 33.133,-15.292 0,-1.529 -1.529,-3.568 -2.549,-5.607 l -80.537,-121.825 -72.383,107.044 c -3.568,5.606 -5.098,7.646 -5.098,12.232 0,9.176 8.664,22.938 32.113,23.448 v 15.802 c -18.352,-1.529 -46.387,-1.529 -65.246,-1.529 l -56.582,1.529 V 442.72 c 51.484,0 66.775,-23.448 73.912,-33.643 l 83.598,-123.355 -93.793,-141.707 c -9.684,-14.272 -19.369,-17.841 -47.404,-17.841 h -9.686 v -15.802 l 66.266,1.528 c 19.371,0 56.58,0 74.422,-1.528 v 15.802 c -21.918,0.51 -33.133,9.175 -33.133,15.292 0,2.039 2.549,6.117 3.568,7.646 l 65.756,98.379 58.109,-86.146 c 3.566,-5.607 4.588,-6.626 4.588,-11.724 0,-11.725 -11.215,-22.938 -31.605,-23.448 v -15.802 c 20.391,1.528 44.857,1.528 65.246,1.528 l 56.582,-1.528 v 15.802 c -45.367,0.51 -62.699,16.821 -73.912,33.133 l -69.834,102.457 107.555,162.604 c 10.705,15.803 21.41,18.352 47.916,18.352 h 9.684 v 15.802 z"
   id="path296"
   style="stroke-width:19.6597" />
	<path
   d="m 1990.59,464.131 c -18.35,0 -65.756,-6.117 -65.756,-68.814 V 254.63 h -43.328 v -11.215 c 49.955,-2.039 65.246,-56.581 65.756,-98.379 h 12.744 v 93.791 h 72.893 v 15.803 h -72.893 v 141.706 c 0,8.665 0,55.051 34.152,55.051 18.859,0 34.15,-19.369 34.15,-57.09 v -28.035 h 12.744 v 29.055 c 0,32.623 -14.27,68.814 -50.462,68.814 z"
   id="path298"
   style="stroke-width:19.6597" />
</g></g><g
       style="overflow:scroll;stroke-width:15.4364"
       id="g338"
       transform="matrix(0.01714026,0,0,0.01714026,0.39621942,0.39940636)"><path
         d="M 5.46,4.23 H 5.21 c -0.1,1.02 -0.24,2.26 -2,2.26 H 2.4 C 1.93,6.49 1.91,6.42 1.91,6.09 V 0.78 c 0,-0.34 0,-0.48 0.94,-0.48 H 3.18 V 0 C 2.82,0.03 1.92,0.03 1.51,0.03 1.12,0.03 0.34,0.03 0,0 V 0.3 H 0.23 C 1,0.3 1.02,0.41 1.02,0.77 V 6.02 C 1.02,6.38 1,6.49 0.23,6.49 H 0 V 6.8 h 5.19 z"
         transform="matrix(45,0,0,45,40,47.65)"
         id="path317"
         style="stroke-width:15.4364" /><path
         d="M 2.81,0.16 C 2.77,0.04 2.75,0 2.62,0 2.49,0 2.46,0.04 2.42,0.16 L 0.81,4.24 C 0.74,4.41 0.62,4.72 0,4.72 V 4.97 H 1.55 V 4.72 c -0.31,0 -0.5,-0.14 -0.5,-0.34 0,-0.05 0.01,-0.07 0.03,-0.14 0,0 0.34,-0.86 0.34,-0.86 H 3.4 L 3.8,4.4 c 0.02,0.04 0.04,0.09 0.04,0.12 0,0.2 -0.38,0.2 -0.57,0.2 V 4.97 H 5.24 V 4.72 H 5.1 c -0.47,0 -0.52,-0.07 -0.59,-0.27 0,0 -1.7,-4.29 -1.7,-4.29 z M 2.41,0.87 3.3,3.13 H 1.52 Z"
         transform="matrix(45,0,0,45,151.6,40)"
         id="path319"
         style="stroke-width:15.4364" /><path
         d="M 6.27,0 H 0.18 C 0.18,0 0,2.24 0,2.24 H 0.24 C 0.38,0.63 0.53,0.3 2.04,0.3 c 0.18,0 0.44,0 0.54,0.02 0.21,0.04 0.21,0.15 0.21,0.38 v 5.25 c 0,0.34 0,0.48 -1.05,0.48 H 1.34 V 6.74 C 1.75,6.71 2.76,6.71 3.22,6.71 c 0.46,0 1.49,0 1.9,0.03 V 6.43 H 4.72 C 3.67,6.43 3.67,6.29 3.67,5.95 V 0.7 c 0,-0.2 0,-0.34 0.18,-0.38 C 3.96,0.3 4.23,0.3 4.42,0.3 c 1.5,0 1.65,0.33 1.79,1.94 H 6.46 C 6.46,2.24 6.27,0 6.27,0 Z"
         transform="matrix(45,0,0,45,356.35,50.35)"
         id="path321"
         style="stroke-width:15.4364" /><path
         d="M 6.16,4.2 H 5.91 C 5.66,5.73 5.43,6.46 3.72,6.46 H 2.4 C 1.93,6.46 1.91,6.39 1.91,6.06 V 3.4 H 2.8 c 0.97,0 1.08,0.32 1.08,1.17 H 4.13 V 1.93 H 3.88 C 3.88,2.78 3.77,3.09 2.8,3.09 H 1.91 V 0.7 C 1.91,0.37 1.93,0.3 2.4,0.3 h 1.28 c 1.53,0 1.79,0.55 1.95,1.94 H 5.88 L 5.6,0 H 0 V 0.3 H 0.23 C 1,0.3 1.02,0.41 1.02,0.77 V 5.99 C 1.02,6.35 1,6.46 0.23,6.46 H 0 v 0.31 h 5.74 z"
         transform="matrix(45,0,0,45,602.5,150.25)"
         id="path323"
         style="stroke-width:15.4364" /><path
         d="m 3.76,2.95 1.37,-2 C 5.34,0.63 5.68,0.31 6.57,0.3 V 0 H 4.19 v 0.3 c 0.4,0.01 0.62,0.23 0.62,0.46 0,0.1 -0.02,0.12 -0.09,0.23 0,0 -1.14,1.68 -1.14,1.68 L 2.3,0.75 C 2.28,0.72 2.23,0.64 2.23,0.6 2.23,0.48 2.45,0.31 2.87,0.3 V 0 C 2.53,0.03 1.8,0.03 1.42,0.03 1.11,0.03 0.49,0.02 0.12,0 v 0.3 h 0.19 c 0.55,0 0.74,0.07 0.93,0.35 0,0 1.83,2.77 1.83,2.77 L 1.44,5.83 C 1.3,6.03 1,6.49 0,6.49 V 6.8 H 2.38 V 6.49 C 1.92,6.48 1.75,6.21 1.75,6.03 1.75,5.94 1.78,5.9 1.85,5.79 L 3.26,3.7 4.84,6.08 c 0.02,0.04 0.05,0.08 0.05,0.11 0,0.12 -0.22,0.29 -0.65,0.3 V 6.8 C 4.59,6.77 5.32,6.77 5.69,6.77 c 0.42,0 0.88,0.01 1.3,0.03 V 6.49 H 6.8 c -0.52,0 -0.73,-0.05 -0.94,-0.36 0,0 -2.1,-3.18 -2.1,-3.18 z"
         transform="matrix(45,0,0,45,845.95,47.65)"
         id="path325"
         style="stroke-width:15.4364" /></g><text
       xml:space="preserve"
       style="font-style:normal;font-weight:normal;font-size:5.42994px;line-height:1.25;font-family:sans-serif;fill:#a10000;fill-opacity:1;stroke:none;stroke-width:0.264583"
       x="24.496134"
       y="5.5455046"
       id="text552"><tspan
         sodipodi:role="line"
         id="tspan550"
         style="stroke-width:0.264583;fill-opacity:1;fill:#a10000"
         x="24.496134"
         y="5.5455046">vs</tspan></text><text
       xml:space="preserve"
       style="font-style:normal;font-weight:normal;font-size:5.42994px;line-height:1.25;font-family:sans-serif;fill:#a10000;fill-opacity:1;stroke:none;stroke-width:0.264583"
       x="13.963835"
       y="20.616631"
       id="text1191"><tspan
         sodipodi:role="line"
         id="tspan1189"
         style="fill:#a10000;fill-opacity:1;stroke-width:0.264583"
         x="13.963835"
         y="20.616631">vs</tspan></text></g></svg>
